<ttFont>
    <TTGlyph name=".notdef" xMin="14" yMin="-500" xMax="645" yMax="1050">
      <contour>
        <pt x="14" y="-500" on="1"/>
        <pt x="231" y="1050" on="1"/>
        <pt x="645" y="1050" on="1"/>
        <pt x="427" y="-500" on="1"/>
      </contour>
      <contour>
        <pt x="76" y="-448" on="1"/>
        <pt x="382" y="-448" on="1"/>
        <pt x="585" y="998" on="1"/>
        <pt x="279" y="998" on="1"/>
      </contour>
      <contour>
        <pt x="394" y="451" on="0"/>
        <pt x="440" y="401" on="0"/>
        <pt x="440" y="359" on="1"/>
        <pt x="440" y="352" on="0"/>
        <pt x="438" y="332" on="1"/>
        <pt x="431" y="280" on="0"/>
        <pt x="380" y="225" on="0"/>
        <pt x="330" y="218" on="1"/>
        <pt x="322" y="171" on="1"/>
        <pt x="321" y="160" on="0"/>
        <pt x="306" y="149" on="0"/>
        <pt x="297" y="149" on="1"/>
        <pt x="286" y="149" on="0"/>
        <pt x="272" y="164" on="0"/>
        <pt x="273" y="175" on="1"/>
        <pt x="283" y="257" on="1"/>
        <pt x="336" y="260" on="0"/>
        <pt x="380" y="296" on="0"/>
        <pt x="385" y="338" on="1"/>
        <pt x="387" y="345" on="0"/>
        <pt x="387" y="359" on="1"/>
        <pt x="387" y="380" on="0"/>
        <pt x="365" y="403" on="0"/>
        <pt x="337" y="403" on="1"/>
        <pt x="309" y="403" on="0"/>
        <pt x="284" y="391" on="1"/>
        <pt x="278" y="389" on="0"/>
        <pt x="272" y="389" on="1"/>
        <pt x="261" y="389" on="0"/>
        <pt x="249" y="402" on="0"/>
        <pt x="249" y="412" on="1"/>
        <pt x="249" y="431" on="0"/>
        <pt x="307" y="451" on="0"/>
        <pt x="342" y="451" on="1"/>
      </contour>
      <contour>
        <pt x="302" y="120" on="0"/>
        <pt x="320" y="101" on="0"/>
        <pt x="320" y="86" on="1"/>
        <pt x="320" y="70" on="0"/>
        <pt x="298" y="48" on="0"/>
        <pt x="282" y="48" on="1"/>
        <pt x="267" y="48" on="0"/>
        <pt x="249" y="72" on="0"/>
        <pt x="252" y="89" on="1"/>
        <pt x="253" y="102" on="0"/>
        <pt x="273" y="120" on="0"/>
        <pt x="287" y="120" on="1"/>
      </contour>
    </TTGlyph>
    <TTGlyph name="A" xMin="-51" yMin="0" xMax="557" yMax="693">
      <contour>
        <pt x="172" y="149" on="1"/>
        <pt x="117" y="0" on="1"/>
        <pt x="-51" y="0" on="1"/>
        <pt x="253" y="693" on="1"/>
        <pt x="448" y="693" on="1"/>
        <pt x="557" y="0" on="1"/>
        <pt x="387" y="0" on="1"/>
        <pt x="373" y="149" on="1"/>
      </contour>
      <contour>
        <pt x="332" y="583" on="1"/>
        <pt x="216" y="268" on="1"/>
        <pt x="362" y="268" on="1"/>
      </contour>
    </TTGlyph>
    <TTGlyph name="AE" xMin="-58" yMin="0" xMax="824" yMax="693">
      <contour>
        <pt x="535" y="408" on="1"/>
        <pt x="775" y="408" on="1"/>
        <pt x="760" y="293" on="1"/>
        <pt x="542" y="293" on="1"/>
        <pt x="553" y="118" on="1"/>
        <pt x="780" y="118" on="1"/>
        <pt x="763" y="0" on="1"/>
        <pt x="409" y="0" on="1"/>
        <pt x="402" y="149" on="1"/>
        <pt x="186" y="149" on="1"/>
        <pt x="116" y="0" on="1"/>
        <pt x="-58" y="0" on="1"/>
        <pt x="299" y="693" on="1"/>
        <pt x="824" y="693" on="1"/>
        <pt x="791" y="576" on="1"/>
        <pt x="524" y="576" on="1"/>
      </contour>
      <contour>
        <pt x="385" y="573" on="1"/>
        <pt x="241" y="268" on="1"/>
        <pt x="397" y="268" on="1"/>
      </contour>
    </TTGlyph>
    <TTGlyph name="AEacute" xMin="-58" yMin="0" xMax="824" yMax="957">
      <component glyphName="AE" x="0" y="0" flags="0x0"/>
      <component glyphName="acute.case" x="314" y="0" flags="0x0"/>
    </TTGlyph>
    <TTGlyph name="Aacute" xMin="-51" yMin="0" xMax="557" yMax="957">
      <component glyphName="A" x="0" y="0" flags="0x0"/>
      <component glyphName="acute.case" x="128" y="0" flags="0x0"/>
    </TTGlyph>
    <TTGlyph name="Abreve" xMin="-51" yMin="0" xMax="557" yMax="930">
      <component glyphName="A" x="0" y="0" flags="0x0"/>
      <component glyphName="breve.case" x="83" y="0" flags="0x0"/>
    </TTGlyph>
    <TTGlyph name="Acircumflex" xMin="-51" yMin="0" xMax="560" yMax="949">
      <component glyphName="A" x="0" y="0" flags="0x0"/>
      <component glyphName="circumflex.case" x="80" y="0" flags="0x0"/>
    </TTGlyph>
    <TTGlyph name="Adieresis" xMin="-51" yMin="0" xMax="566" yMax="925">
      <component glyphName="A" x="0" y="0" flags="0x0"/>
      <component glyphName="dieresis.case" x="109" y="0" flags="0x0"/>
    </TTGlyph>
    <TTGlyph name="Agrave" xMin="-51" yMin="0" xMax="557" yMax="958">
      <component glyphName="A" x="0" y="0" flags="0x0"/>
      <component glyphName="grave.case" x="128" y="0" flags="0x0"/>
    </TTGlyph>
    <TTGlyph name="Alpha" xMin="-51" yMin="0" xMax="557" yMax="693">
      <contour>
        <pt x="172" y="149" on="1"/>
        <pt x="117" y="0" on="1"/>
        <pt x="-51" y="0" on="1"/>
        <pt x="253" y="693" on="1"/>
        <pt x="448" y="693" on="1"/>
        <pt x="557" y="0" on="1"/>
        <pt x="387" y="0" on="1"/>
        <pt x="373" y="149" on="1"/>
      </contour>
      <contour>
        <pt x="332" y="583" on="1"/>
        <pt x="216" y="268" on="1"/>
        <pt x="362" y="268" on="1"/>
      </contour>
    </TTGlyph>
    <TTGlyph name="Alphatonos" xMin="-51" yMin="0" xMax="557" yMax="724">
      <component glyphName="A" x="0" y="0" flags="0x0"/>
      <component glyphName="tonos.case" x="-79" y="0" flags="0x0"/>
    </TTGlyph>
    <TTGlyph name="Amacron" xMin="-51" yMin="0" xMax="557" yMax="891">
      <component glyphName="A" x="0" y="0" flags="0x0"/>
      <component glyphName="macron.case" x="155" y="0" flags="0x0"/>
    </TTGlyph>
    <TTGlyph name="Aogonek" xMin="-51" yMin="-246" xMax="557" yMax="693">
      <contour>
        <pt x="350" y="-48" on="0"/>
        <pt x="350" y="-114" on="1"/>
        <pt x="350" y="-148" on="0"/>
        <pt x="394" y="-148" on="1"/>
        <pt x="420" y="-148" on="0"/>
        <pt x="457" y="-140" on="1"/>
        <pt x="435" y="-238" on="1"/>
        <pt x="401" y="-246" on="0"/>
        <pt x="366" y="-246" on="1"/>
        <pt x="307" y="-246" on="0"/>
        <pt x="234" y="-189" on="0"/>
        <pt x="234" y="-141" on="1"/>
        <pt x="234" y="-34" on="0"/>
        <pt x="385" y="26" on="1"/>
        <pt x="373" y="149" on="1"/>
        <pt x="172" y="149" on="1"/>
        <pt x="117" y="0" on="1"/>
        <pt x="-51" y="0" on="1"/>
        <pt x="253" y="693" on="1"/>
        <pt x="448" y="693" on="1"/>
        <pt x="557" y="0" on="1"/>
        <pt x="484" y="0" on="1"/>
      </contour>
      <contour>
        <pt x="332" y="583" on="1"/>
        <pt x="216" y="268" on="1"/>
        <pt x="362" y="268" on="1"/>
      </contour>
    </TTGlyph>
    <TTGlyph name="Aring" xMin="-51" yMin="0" xMax="557" yMax="993">
      <component glyphName="A" x="0" y="0" flags="0x0"/>
      <component glyphName="ring.case" x="168" y="0" flags="0x0"/>
    </TTGlyph>
    <TTGlyph name="Atilde" xMin="-51" yMin="0" xMax="563" yMax="918">
      <component glyphName="A" x="0" y="0" flags="0x0"/>
      <component glyphName="tilde.case" x="120" y="0" flags="0x0"/>
    </TTGlyph>
    <TTGlyph name="B" xMin="27" yMin="0" xMax="589" yMax="693">
      <contour>
        <pt x="499" y="355" on="0"/>
        <pt x="574" y="288" on="0"/>
        <pt x="574" y="221" on="1"/>
        <pt x="574" y="121" on="0"/>
        <pt x="421" y="0" on="0"/>
        <pt x="248" y="0" on="1"/>
        <pt x="27" y="0" on="1"/>
        <pt x="124" y="693" on="1"/>
        <pt x="327" y="693" on="1"/>
        <pt x="589" y="693" on="0"/>
        <pt x="589" y="536" on="1"/>
        <pt x="589" y="466" on="0"/>
        <pt x="502" y="381" on="0"/>
        <pt x="437" y="366" on="1"/>
      </contour>
      <contour>
        <pt x="365" y="416" on="0"/>
        <pt x="423" y="473" on="0"/>
        <pt x="423" y="518" on="1"/>
        <pt x="423" y="550" on="0"/>
        <pt x="376" y="577" on="0"/>
        <pt x="329" y="577" on="1"/>
        <pt x="268" y="577" on="1"/>
        <pt x="246" y="416" on="1"/>
        <pt x="306" y="416" on="1"/>
      </contour>
      <contour>
        <pt x="344" y="119" on="0"/>
        <pt x="408" y="179" on="0"/>
        <pt x="408" y="233" on="1"/>
        <pt x="408" y="307" on="0"/>
        <pt x="304" y="307" on="1"/>
        <pt x="231" y="307" on="1"/>
        <pt x="204" y="119" on="1"/>
        <pt x="262" y="119" on="1"/>
      </contour>
    </TTGlyph>
    <TTGlyph name="Beta" xMin="27" yMin="0" xMax="589" yMax="693">
      <component glyphName="B" x="0" y="0" flags="0x0"/>
    </TTGlyph>
    <TTGlyph name="C" xMin="39" yMin="-17" xMax="600" yMax="710">
      <contour>
        <pt x="526" y="710" on="0"/>
        <pt x="600" y="628" on="1"/>
        <pt x="511" y="540" on="1"/>
        <pt x="485" y="565" on="0"/>
        <pt x="432" y="589" on="0"/>
        <pt x="398" y="589" on="1"/>
        <pt x="330" y="589" on="0"/>
        <pt x="244" y="486" on="0"/>
        <pt x="206" y="339" on="0"/>
        <pt x="206" y="269" on="1"/>
        <pt x="206" y="188" on="0"/>
        <pt x="270" y="110" on="0"/>
        <pt x="328" y="110" on="1"/>
        <pt x="365" y="110" on="0"/>
        <pt x="429" y="140" on="0"/>
        <pt x="469" y="169" on="1"/>
        <pt x="531" y="71" on="1"/>
        <pt x="488" y="33" on="0"/>
        <pt x="372" y="-17" on="0"/>
        <pt x="307" y="-17" on="1"/>
        <pt x="182" y="-17" on="0"/>
        <pt x="39" y="131" on="0"/>
        <pt x="39" y="269" on="1"/>
        <pt x="39" y="373" on="0"/>
        <pt x="113" y="576" on="0"/>
        <pt x="273" y="710" on="0"/>
        <pt x="395" y="710" on="1"/>
      </contour>
    </TTGlyph>
    <TTGlyph name="Cacute" xMin="39" yMin="-17" xMax="600" yMax="957">
      <component glyphName="C" x="0" y="0" flags="0x0"/>
      <component glyphName="acute.case" x="185" y="0" flags="0x0"/>
    </TTGlyph>
    <TTGlyph name="Cacute.loclPLK" xMin="39" yMin="-17" xMax="600" yMax="965">
      <component glyphName="C" x="0" y="0" flags="0x0"/>
      <component glyphName="acute.case.loclPLK" x="166" y="0" flags="0x0"/>
    </TTGlyph>
    <TTGlyph name="Ccaron" xMin="39" yMin="-17" xMax="616" yMax="943">
      <component glyphName="C" x="0" y="0" flags="0x0"/>
      <component glyphName="caron.case" x="128" y="0" flags="0x0"/>
    </TTGlyph>
    <TTGlyph name="Ccedilla" xMin="39" yMin="-262" xMax="600" yMax="710">
      <contour>
        <pt x="490" y="35" on="0"/>
        <pt x="386" y="-12" on="0"/>
        <pt x="326" y="-16" on="1"/>
        <pt x="320" y="-48" on="1"/>
        <pt x="365" y="-53" on="0"/>
        <pt x="411" y="-100" on="0"/>
        <pt x="411" y="-136" on="1"/>
        <pt x="411" y="-166" on="0"/>
        <pt x="379" y="-224" on="0"/>
        <pt x="306" y="-262" on="0"/>
        <pt x="250" y="-262" on="1"/>
        <pt x="187" y="-262" on="0"/>
        <pt x="142" y="-230" on="1"/>
        <pt x="187" y="-159" on="1"/>
        <pt x="215" y="-176" on="0"/>
        <pt x="246" y="-176" on="1"/>
        <pt x="269" y="-176" on="0"/>
        <pt x="299" y="-159" on="0"/>
        <pt x="299" y="-142" on="1"/>
        <pt x="299" y="-125" on="0"/>
        <pt x="260" y="-112" on="0"/>
        <pt x="213" y="-112" on="1"/>
        <pt x="238" y="-11" on="1"/>
        <pt x="144" y="8" on="0"/>
        <pt x="39" y="151" on="0"/>
        <pt x="39" y="269" on="1"/>
        <pt x="39" y="373" on="0"/>
        <pt x="113" y="576" on="0"/>
        <pt x="273" y="710" on="0"/>
        <pt x="395" y="710" on="1"/>
        <pt x="526" y="710" on="0"/>
        <pt x="600" y="628" on="1"/>
        <pt x="511" y="540" on="1"/>
        <pt x="485" y="565" on="0"/>
        <pt x="432" y="589" on="0"/>
        <pt x="398" y="589" on="1"/>
        <pt x="330" y="589" on="0"/>
        <pt x="244" y="486" on="0"/>
        <pt x="206" y="339" on="0"/>
        <pt x="206" y="269" on="1"/>
        <pt x="206" y="188" on="0"/>
        <pt x="270" y="110" on="0"/>
        <pt x="328" y="110" on="1"/>
        <pt x="365" y="110" on="0"/>
        <pt x="429" y="140" on="0"/>
        <pt x="469" y="169" on="1"/>
        <pt x="531" y="71" on="1"/>
      </contour>
    </TTGlyph>
    <TTGlyph name="Ccircumflex" xMin="39" yMin="-17" xMax="617" yMax="949">
      <component glyphName="C" x="0" y="0" flags="0x0"/>
      <component glyphName="circumflex.case" x="137" y="0" flags="0x0"/>
    </TTGlyph>
    <TTGlyph name="Cdotaccent" xMin="39" yMin="-17" xMax="600" yMax="937">
      <component glyphName="C" x="0" y="0" flags="0x0"/>
      <component glyphName="dotaccent.case" x="272" y="0" flags="0x0"/>
    </TTGlyph>
    <TTGlyph name="Chi" xMin="-42" yMin="0" xMax="619" yMax="693">
      <component glyphName="X" x="0" y="0" flags="0x0"/>
    </TTGlyph>
    <TTGlyph name="D" xMin="27" yMin="0" xMax="627" yMax="693">
      <contour>
        <pt x="455" y="693" on="0"/>
        <pt x="627" y="578" on="0"/>
        <pt x="627" y="430" on="1"/>
        <pt x="627" y="241" on="0"/>
        <pt x="441" y="0" on="0"/>
        <pt x="234" y="0" on="1"/>
        <pt x="27" y="0" on="1"/>
        <pt x="124" y="693" on="1"/>
        <pt x="312" y="693" on="1"/>
      </contour>
      <contour>
        <pt x="205" y="119" on="1"/>
        <pt x="258" y="119" on="1"/>
        <pt x="368" y="119" on="0"/>
        <pt x="461" y="305" on="0"/>
        <pt x="461" y="430" on="1"/>
        <pt x="461" y="513" on="0"/>
        <pt x="389" y="574" on="0"/>
        <pt x="322" y="574" on="1"/>
        <pt x="269" y="574" on="1"/>
      </contour>
    </TTGlyph>
    <TTGlyph name="Dcaron" xMin="27" yMin="0" xMax="627" yMax="943">
      <component glyphName="D" x="0" y="0" flags="0x0"/>
      <component glyphName="caron.case" x="72" y="0" flags="0x0"/>
    </TTGlyph>
    <TTGlyph name="Dcroat" xMin="20" yMin="0" xMax="636" yMax="694">
      <component glyphName="Eth" x="0" y="0" flags="0x0"/>
    </TTGlyph>
    <TTGlyph name="Delta" xMin="-51" yMin="0" xMax="566" yMax="693">
      <contour>
        <pt x="-51" y="0" on="1"/>
        <pt x="257" y="693" on="1"/>
        <pt x="453" y="693" on="1"/>
        <pt x="566" y="0" on="1"/>
      </contour>
      <contour>
        <pt x="385" y="120" on="1"/>
        <pt x="338" y="572" on="1"/>
        <pt x="163" y="120" on="1"/>
      </contour>
    </TTGlyph>
    <TTGlyph name="E" xMin="27" yMin="0" xMax="543" yMax="693">
      <contour>
        <pt x="269" y="576" on="1"/>
        <pt x="245" y="410" on="1"/>
        <pt x="455" y="410" on="1"/>
        <pt x="440" y="295" on="1"/>
        <pt x="230" y="295" on="1"/>
        <pt x="205" y="118" on="1"/>
        <pt x="462" y="118" on="1"/>
        <pt x="446" y="0" on="1"/>
        <pt x="27" y="0" on="1"/>
        <pt x="124" y="693" on="1"/>
        <pt x="543" y="693" on="1"/>
        <pt x="509" y="576" on="1"/>
      </contour>
    </TTGlyph>
    <TTGlyph name="Eacute" xMin="27" yMin="0" xMax="543" yMax="957">
      <component glyphName="E" x="0" y="0" flags="0x0"/>
      <component glyphName="acute.case" x="112" y="0" flags="0x0"/>
    </TTGlyph>
    <TTGlyph name="Ebreve" xMin="27" yMin="0" xMax="543" yMax="930">
      <component glyphName="E" x="0" y="0" flags="0x0"/>
      <component glyphName="breve.case" x="68" y="0" flags="0x0"/>
    </TTGlyph>
    <TTGlyph name="Ecaron" xMin="27" yMin="0" xMax="543" yMax="943">
      <component glyphName="E" x="0" y="0" flags="0x0"/>
      <component glyphName="caron.case" x="56" y="0" flags="0x0"/>
    </TTGlyph>
    <TTGlyph name="Ecircumflex" xMin="27" yMin="0" xMax="544" yMax="949">
      <component glyphName="E" x="0" y="0" flags="0x0"/>
      <component glyphName="circumflex.case" x="65" y="0" flags="0x0"/>
    </TTGlyph>
    <TTGlyph name="Edieresis" xMin="27" yMin="0" xMax="550" yMax="925">
      <component glyphName="E" x="0" y="0" flags="0x0"/>
      <component glyphName="dieresis.case" x="94" y="0" flags="0x0"/>
    </TTGlyph>
    <TTGlyph name="Edotaccent" xMin="27" yMin="0" xMax="543" yMax="937">
      <component glyphName="E" x="0" y="0" flags="0x0"/>
      <component glyphName="dotaccent.case" x="199" y="0" flags="0x0"/>
    </TTGlyph>
    <TTGlyph name="Egrave" xMin="27" yMin="0" xMax="543" yMax="958">
      <component glyphName="E" x="0" y="0" flags="0x0"/>
      <component glyphName="grave.case" x="112" y="0" flags="0x0"/>
    </TTGlyph>
    <TTGlyph name="Emacron" xMin="27" yMin="0" xMax="543" yMax="891">
      <component glyphName="E" x="0" y="0" flags="0x0"/>
      <component glyphName="macron.case" x="139" y="0" flags="0x0"/>
    </TTGlyph>
    <TTGlyph name="Eng" xMin="27" yMin="-222" xMax="649" yMax="693">
      <contour>
        <pt x="539" y="-86" on="0"/>
        <pt x="424" y="-191" on="0"/>
        <pt x="313" y="-222" on="1"/>
        <pt x="277" y="-114" on="1"/>
        <pt x="337" y="-92" on="0"/>
        <pt x="397" y="-44" on="0"/>
        <pt x="411" y="0" on="1"/>
        <pt x="348" y="0" on="1"/>
        <pt x="220" y="557" on="1"/>
        <pt x="221" y="551" on="0"/>
        <pt x="221" y="537" on="1"/>
        <pt x="222" y="519" on="0"/>
        <pt x="222" y="480" on="1"/>
        <pt x="222" y="372" on="0"/>
        <pt x="205" y="246" on="1"/>
        <pt x="170" y="0" on="1"/>
        <pt x="27" y="0" on="1"/>
        <pt x="124" y="693" on="1"/>
        <pt x="327" y="693" on="1"/>
        <pt x="457" y="136" on="1"/>
        <pt x="454" y="190" on="0"/>
        <pt x="454" y="236" on="1"/>
        <pt x="454" y="316" on="0"/>
        <pt x="467" y="421" on="1"/>
        <pt x="506" y="693" on="1"/>
        <pt x="649" y="693" on="1"/>
        <pt x="552" y="0" on="1"/>
      </contour>
    </TTGlyph>
    <TTGlyph name="Eogonek" xMin="27" yMin="-246" xMax="543" yMax="693">
      <contour>
        <pt x="245" y="410" on="1"/>
        <pt x="455" y="410" on="1"/>
        <pt x="440" y="295" on="1"/>
        <pt x="230" y="295" on="1"/>
        <pt x="205" y="118" on="1"/>
        <pt x="462" y="118" on="1"/>
        <pt x="446" y="0" on="1"/>
        <pt x="408" y="0" on="1"/>
        <pt x="274" y="-48" on="0"/>
        <pt x="274" y="-114" on="1"/>
        <pt x="274" y="-148" on="0"/>
        <pt x="318" y="-148" on="1"/>
        <pt x="344" y="-148" on="0"/>
        <pt x="381" y="-140" on="1"/>
        <pt x="359" y="-238" on="1"/>
        <pt x="325" y="-246" on="0"/>
        <pt x="290" y="-246" on="1"/>
        <pt x="231" y="-246" on="0"/>
        <pt x="158" y="-189" on="0"/>
        <pt x="158" y="-141" on="1"/>
        <pt x="158" y="-56" on="0"/>
        <pt x="255" y="0" on="1"/>
        <pt x="27" y="0" on="1"/>
        <pt x="124" y="693" on="1"/>
        <pt x="543" y="693" on="1"/>
        <pt x="509" y="576" on="1"/>
        <pt x="269" y="576" on="1"/>
      </contour>
    </TTGlyph>
    <TTGlyph name="Epsilon" xMin="27" yMin="0" xMax="543" yMax="693">
      <contour>
        <pt x="269" y="576" on="1"/>
        <pt x="245" y="410" on="1"/>
        <pt x="455" y="410" on="1"/>
        <pt x="440" y="295" on="1"/>
        <pt x="230" y="295" on="1"/>
        <pt x="205" y="118" on="1"/>
        <pt x="462" y="118" on="1"/>
        <pt x="446" y="0" on="1"/>
        <pt x="27" y="0" on="1"/>
        <pt x="124" y="693" on="1"/>
        <pt x="543" y="693" on="1"/>
        <pt x="509" y="576" on="1"/>
      </contour>
    </TTGlyph>
    <TTGlyph name="Epsilontonos" xMin="-111" yMin="0" xMax="543" yMax="727">
      <component glyphName="E" x="0" y="0" flags="0x0"/>
      <component glyphName="tonos.case" x="-186" y="2" flags="0x0"/>
    </TTGlyph>
    <TTGlyph name="Eta" xMin="27" yMin="0" xMax="652" yMax="693">
      <contour>
        <pt x="230" y="297" on="1"/>
        <pt x="188" y="0" on="1"/>
        <pt x="27" y="0" on="1"/>
        <pt x="124" y="693" on="1"/>
        <pt x="285" y="693" on="1"/>
        <pt x="247" y="425" on="1"/>
        <pt x="453" y="425" on="1"/>
        <pt x="491" y="693" on="1"/>
        <pt x="652" y="693" on="1"/>
        <pt x="555" y="0" on="1"/>
        <pt x="394" y="0" on="1"/>
        <pt x="434" y="297" on="1"/>
      </contour>
    </TTGlyph>
    <TTGlyph name="Etatonos" xMin="-113" yMin="0" xMax="652" yMax="727">
      <component glyphName="H" x="0" y="0" flags="0x0"/>
      <component glyphName="tonos.case" x="-187" y="2" flags="0x0"/>
    </TTGlyph>
    <TTGlyph name="Eth" xMin="20" yMin="0" xMax="636" yMax="694">
      <contour>
        <pt x="464" y="694" on="0"/>
        <pt x="636" y="578" on="0"/>
        <pt x="636" y="431" on="1"/>
        <pt x="636" y="241" on="0"/>
        <pt x="450" y="0" on="0"/>
        <pt x="243" y="0" on="1"/>
        <pt x="37" y="0" on="1"/>
        <pt x="79" y="304" on="1"/>
        <pt x="20" y="304" on="1"/>
        <pt x="33" y="402" on="1"/>
        <pt x="93" y="402" on="1"/>
        <pt x="134" y="694" on="1"/>
        <pt x="322" y="694" on="1"/>
      </contour>
      <contour>
        <pt x="377" y="119" on="0"/>
        <pt x="470" y="305" on="0"/>
        <pt x="470" y="430" on="1"/>
        <pt x="470" y="514" on="0"/>
        <pt x="399" y="575" on="0"/>
        <pt x="332" y="575" on="1"/>
        <pt x="278" y="575" on="1"/>
        <pt x="254" y="402" on="1"/>
        <pt x="390" y="402" on="1"/>
        <pt x="377" y="304" on="1"/>
        <pt x="240" y="304" on="1"/>
        <pt x="215" y="119" on="1"/>
        <pt x="267" y="119" on="1"/>
      </contour>
    </TTGlyph>
    <TTGlyph name="Euro" xMin="2" yMin="-17" xMax="622" yMax="690">
      <contour>
        <pt x="383" y="576" on="0"/>
        <pt x="301" y="515" on="0"/>
        <pt x="279" y="456" on="1"/>
        <pt x="519" y="456" on="1"/>
        <pt x="486" y="373" on="1"/>
        <pt x="262" y="373" on="1"/>
        <pt x="251" y="302" on="1"/>
        <pt x="461" y="302" on="1"/>
        <pt x="429" y="220" on="1"/>
        <pt x="244" y="220" on="1"/>
        <pt x="249" y="157" on="0"/>
        <pt x="311" y="98" on="0"/>
        <pt x="369" y="98" on="1"/>
        <pt x="440" y="98" on="0"/>
        <pt x="519" y="142" on="1"/>
        <pt x="505" y="19" on="1"/>
        <pt x="462" y="0" on="0"/>
        <pt x="385" y="-17" on="0"/>
        <pt x="343" y="-17" on="1"/>
        <pt x="228" y="-17" on="0"/>
        <pt x="96" y="107" on="0"/>
        <pt x="88" y="220" on="1"/>
        <pt x="2" y="220" on="1"/>
        <pt x="34" y="302" on="1"/>
        <pt x="95" y="302" on="1"/>
        <pt x="105" y="373" on="1"/>
        <pt x="24" y="373" on="1"/>
        <pt x="56" y="456" on="1"/>
        <pt x="120" y="456" on="1"/>
        <pt x="160" y="566" on="0"/>
        <pt x="327" y="690" on="0"/>
        <pt x="435" y="690" on="1"/>
        <pt x="543" y="690" on="0"/>
        <pt x="622" y="629" on="1"/>
        <pt x="556" y="537" on="1"/>
        <pt x="529" y="557" on="0"/>
        <pt x="472" y="576" on="0"/>
        <pt x="437" y="576" on="1"/>
      </contour>
    </TTGlyph>
    <TTGlyph name="Euro.osf" xMin="2" yMin="-17" xMax="622" yMax="690">
      <component glyphName="Euro" x="0" y="0" flags="0x0"/>
    </TTGlyph>
    <TTGlyph name="Euro.tf" xMin="8" yMin="-17" xMax="618" yMax="710">
      <contour>
        <pt x="378" y="596" on="0"/>
        <pt x="303" y="534" on="0"/>
        <pt x="282" y="466" on="1"/>
        <pt x="525" y="466" on="1"/>
        <pt x="492" y="383" on="1"/>
        <pt x="266" y="383" on="1"/>
        <pt x="257" y="312" on="1"/>
        <pt x="467" y="312" on="1"/>
        <pt x="435" y="230" on="1"/>
        <pt x="249" y="230" on="1"/>
        <pt x="251" y="159" on="0"/>
        <pt x="307" y="98" on="0"/>
        <pt x="364" y="98" on="1"/>
        <pt x="431" y="98" on="0"/>
        <pt x="512" y="142" on="1"/>
        <pt x="497" y="19" on="1"/>
        <pt x="453" y="0" on="0"/>
        <pt x="378" y="-17" on="0"/>
        <pt x="335" y="-17" on="1"/>
        <pt x="225" y="-17" on="0"/>
        <pt x="102" y="111" on="0"/>
        <pt x="95" y="230" on="1"/>
        <pt x="8" y="230" on="1"/>
        <pt x="41" y="312" on="1"/>
        <pt x="102" y="312" on="1"/>
        <pt x="111" y="383" on="1"/>
        <pt x="30" y="383" on="1"/>
        <pt x="62" y="466" on="1"/>
        <pt x="125" y="466" on="1"/>
        <pt x="163" y="588" on="0"/>
        <pt x="322" y="710" on="0"/>
        <pt x="435" y="710" on="1"/>
        <pt x="541" y="710" on="0"/>
        <pt x="618" y="652" on="1"/>
        <pt x="558" y="558" on="1"/>
        <pt x="528" y="578" on="0"/>
        <pt x="471" y="596" on="0"/>
        <pt x="435" y="596" on="1"/>
      </contour>
    </TTGlyph>
    <TTGlyph name="Euro.tosf" xMin="23" yMin="-17" xMax="627" yMax="690">
      <contour>
        <pt x="398" y="576" on="0"/>
        <pt x="320" y="516" on="0"/>
        <pt x="299" y="456" on="1"/>
        <pt x="524" y="456" on="1"/>
        <pt x="492" y="373" on="1"/>
        <pt x="282" y="373" on="1"/>
        <pt x="272" y="302" on="1"/>
        <pt x="467" y="302" on="1"/>
        <pt x="434" y="220" on="1"/>
        <pt x="264" y="220" on="1"/>
        <pt x="269" y="156" on="0"/>
        <pt x="326" y="98" on="0"/>
        <pt x="381" y="98" on="1"/>
        <pt x="443" y="98" on="0"/>
        <pt x="524" y="142" on="1"/>
        <pt x="510" y="19" on="1"/>
        <pt x="466" y="0" on="0"/>
        <pt x="395" y="-17" on="0"/>
        <pt x="355" y="-17" on="1"/>
        <pt x="243" y="-17" on="0"/>
        <pt x="117" y="107" on="0"/>
        <pt x="109" y="220" on="1"/>
        <pt x="23" y="220" on="1"/>
        <pt x="55" y="302" on="1"/>
        <pt x="116" y="302" on="1"/>
        <pt x="125" y="373" on="1"/>
        <pt x="45" y="373" on="1"/>
        <pt x="77" y="456" on="1"/>
        <pt x="141" y="456" on="1"/>
        <pt x="183" y="566" on="0"/>
        <pt x="344" y="690" on="0"/>
        <pt x="448" y="690" on="1"/>
        <pt x="547" y="690" on="0"/>
        <pt x="627" y="630" on="1"/>
        <pt x="562" y="537" on="1"/>
        <pt x="534" y="558" on="0"/>
        <pt x="482" y="576" on="0"/>
        <pt x="450" y="576" on="1"/>
      </contour>
    </TTGlyph>
    <TTGlyph name="F" xMin="27" yMin="0" xMax="531" yMax="693">
      <contour>
        <pt x="269" y="576" on="1"/>
        <pt x="243" y="392" on="1"/>
        <pt x="443" y="392" on="1"/>
        <pt x="427" y="275" on="1"/>
        <pt x="227" y="275" on="1"/>
        <pt x="188" y="0" on="1"/>
        <pt x="27" y="0" on="1"/>
        <pt x="124" y="693" on="1"/>
        <pt x="531" y="693" on="1"/>
        <pt x="498" y="576" on="1"/>
      </contour>
    </TTGlyph>
    <TTGlyph name="G" xMin="38" yMin="-17" xMax="636" yMax="710">
      <contour>
        <pt x="553" y="710" on="0"/>
        <pt x="636" y="622" on="1"/>
        <pt x="542" y="538" on="1"/>
        <pt x="512" y="566" on="0"/>
        <pt x="455" y="591" on="0"/>
        <pt x="415" y="591" on="1"/>
        <pt x="338" y="591" on="0"/>
        <pt x="244" y="486" on="0"/>
        <pt x="204" y="329" on="0"/>
        <pt x="204" y="245" on="1"/>
        <pt x="204" y="169" on="0"/>
        <pt x="260" y="103" on="0"/>
        <pt x="317" y="103" on="1"/>
        <pt x="368" y="103" on="0"/>
        <pt x="414" y="127" on="1"/>
        <pt x="436" y="283" on="1"/>
        <pt x="348" y="283" on="1"/>
        <pt x="349" y="399" on="1"/>
        <pt x="609" y="399" on="1"/>
        <pt x="562" y="56" on="1"/>
        <pt x="506" y="21" on="0"/>
        <pt x="373" y="-17" on="0"/>
        <pt x="307" y="-17" on="1"/>
        <pt x="173" y="-17" on="0"/>
        <pt x="38" y="123" on="0"/>
        <pt x="38" y="259" on="1"/>
        <pt x="38" y="371" on="0"/>
        <pt x="117" y="577" on="0"/>
        <pt x="288" y="710" on="0"/>
        <pt x="417" y="710" on="1"/>
      </contour>
    </TTGlyph>
    <TTGlyph name="Gamma" xMin="28" yMin="0" xMax="561" yMax="693">
      <component glyphName="uni0413" x="0" y="0" flags="0x0"/>
    </TTGlyph>
    <TTGlyph name="Gbreve" xMin="38" yMin="-17" xMax="636" yMax="930">
      <component glyphName="G" x="0" y="0" flags="0x0"/>
      <component glyphName="breve.case" x="139" y="0" flags="0x0"/>
    </TTGlyph>
    <TTGlyph name="Gcircumflex" xMin="38" yMin="-17" xMax="636" yMax="949">
      <component glyphName="G" x="0" y="0" flags="0x0"/>
      <component glyphName="circumflex.case" x="136" y="0" flags="0x0"/>
    </TTGlyph>
    <TTGlyph name="Gcommaaccent" xMin="38" yMin="-325" xMax="636" yMax="710">
      <component glyphName="G" x="0" y="0" flags="0x0"/>
      <component glyphName="uni0326.case" x="237" y="0" flags="0x0"/>
    </TTGlyph>
    <TTGlyph name="Gdotaccent" xMin="38" yMin="-17" xMax="636" yMax="937">
      <component glyphName="G" x="0" y="0" flags="0x0"/>
      <component glyphName="dotaccent.case" x="270" y="0" flags="0x0"/>
    </TTGlyph>
    <TTGlyph name="H" xMin="27" yMin="0" xMax="652" yMax="693">
      <contour>
        <pt x="230" y="297" on="1"/>
        <pt x="188" y="0" on="1"/>
        <pt x="27" y="0" on="1"/>
        <pt x="124" y="693" on="1"/>
        <pt x="285" y="693" on="1"/>
        <pt x="247" y="425" on="1"/>
        <pt x="453" y="425" on="1"/>
        <pt x="491" y="693" on="1"/>
        <pt x="652" y="693" on="1"/>
        <pt x="555" y="0" on="1"/>
        <pt x="394" y="0" on="1"/>
        <pt x="434" y="297" on="1"/>
      </contour>
    </TTGlyph>
    <TTGlyph name="Hbar" xMin="34" yMin="0" xMax="702" yMax="693">
      <contour>
        <pt x="632" y="500" on="1"/>
        <pt x="562" y="0" on="1"/>
        <pt x="401" y="0" on="1"/>
        <pt x="441" y="297" on="1"/>
        <pt x="237" y="297" on="1"/>
        <pt x="195" y="0" on="1"/>
        <pt x="34" y="0" on="1"/>
        <pt x="104" y="500" on="1"/>
        <pt x="48" y="500" on="1"/>
        <pt x="62" y="592" on="1"/>
        <pt x="117" y="592" on="1"/>
        <pt x="131" y="693" on="1"/>
        <pt x="292" y="693" on="1"/>
        <pt x="278" y="592" on="1"/>
        <pt x="484" y="592" on="1"/>
        <pt x="498" y="693" on="1"/>
        <pt x="659" y="693" on="1"/>
        <pt x="645" y="592" on="1"/>
        <pt x="702" y="592" on="1"/>
        <pt x="688" y="500" on="1"/>
      </contour>
      <contour>
        <pt x="266" y="500" on="1"/>
        <pt x="255" y="424" on="1"/>
        <pt x="460" y="424" on="1"/>
        <pt x="471" y="500" on="1"/>
      </contour>
    </TTGlyph>
    <TTGlyph name="Hcircumflex" xMin="27" yMin="0" xMax="652" yMax="949">
      <component glyphName="H" x="0" y="0" flags="0x0"/>
      <component glyphName="circumflex.case" x="118" y="0" flags="0x0"/>
    </TTGlyph>
    <TTGlyph name="I" xMin="27" yMin="0" xMax="286" yMax="693">
      <contour>
        <pt x="27" y="0" on="1"/>
        <pt x="124" y="693" on="1"/>
        <pt x="286" y="693" on="1"/>
        <pt x="189" y="0" on="1"/>
      </contour>
    </TTGlyph>
    <TTGlyph name="IJ" xMin="27" yMin="-170" xMax="599" yMax="693">
      <component glyphName="I" x="0" y="0" flags="0x0"/>
      <component glyphName="J" x="290" y="0" flags="0x0"/>
    </TTGlyph>
    <TTGlyph name="Iacute" xMin="27" yMin="0" xMax="366" yMax="957">
      <component glyphName="I" x="0" y="0" flags="0x0"/>
      <component glyphName="acute.case" x="-17" y="0" flags="0x0"/>
    </TTGlyph>
    <TTGlyph name="Ibreve" xMin="27" yMin="0" xMax="395" yMax="930">
      <component glyphName="I" x="0" y="0" flags="0x0"/>
      <component glyphName="breve.case" x="-62" y="0" flags="0x0"/>
    </TTGlyph>
    <TTGlyph name="Icircumflex" xMin="27" yMin="0" xMax="414" yMax="949">
      <component glyphName="I" x="0" y="0" flags="0x0"/>
      <component glyphName="circumflex.case" x="-65" y="0" flags="0x0"/>
    </TTGlyph>
    <TTGlyph name="Idieresis" xMin="27" yMin="0" xMax="420" yMax="925">
      <component glyphName="I" x="0" y="0" flags="0x0"/>
      <component glyphName="dieresis.case" x="-36" y="0" flags="0x0"/>
    </TTGlyph>
    <TTGlyph name="Idotaccent" xMin="27" yMin="0" xMax="319" yMax="937">
      <component glyphName="I" x="0" y="0" flags="0x0"/>
      <component glyphName="dotaccent.case" x="69" y="0" flags="0x0"/>
    </TTGlyph>
    <TTGlyph name="Igrave" xMin="27" yMin="0" xMax="368" yMax="958">
      <component glyphName="I" x="0" y="0" flags="0x0"/>
      <component glyphName="grave.case" x="-17" y="0" flags="0x0"/>
    </TTGlyph>
    <TTGlyph name="Imacron" xMin="27" yMin="0" xMax="383" yMax="891">
      <component glyphName="I" x="0" y="0" flags="0x0"/>
      <component glyphName="macron.case" x="9" y="0" flags="0x0"/>
    </TTGlyph>
    <TTGlyph name="Iogonek" xMin="-86" yMin="-246" xMax="286" yMax="693">
      <contour>
        <pt x="189" y="0" on="1"/>
        <pt x="163" y="0" on="1"/>
        <pt x="29" y="-48" on="0"/>
        <pt x="29" y="-114" on="1"/>
        <pt x="29" y="-130" on="0"/>
        <pt x="52" y="-148" on="0"/>
        <pt x="74" y="-148" on="1"/>
        <pt x="99" y="-148" on="0"/>
        <pt x="136" y="-140" on="1"/>
        <pt x="114" y="-238" on="1"/>
        <pt x="80" y="-246" on="0"/>
        <pt x="46" y="-246" on="1"/>
        <pt x="-13" y="-246" on="0"/>
        <pt x="-86" y="-189" on="0"/>
        <pt x="-86" y="-141" on="1"/>
        <pt x="-86" y="-47" on="0"/>
        <pt x="29" y="10" on="1"/>
        <pt x="124" y="693" on="1"/>
        <pt x="286" y="693" on="1"/>
      </contour>
    </TTGlyph>
    <TTGlyph name="Iota" xMin="27" yMin="0" xMax="286" yMax="693">
      <contour>
        <pt x="27" y="0" on="1"/>
        <pt x="124" y="693" on="1"/>
        <pt x="286" y="693" on="1"/>
        <pt x="189" y="0" on="1"/>
      </contour>
    </TTGlyph>
    <TTGlyph name="Iotadieresis" xMin="27" yMin="0" xMax="420" yMax="925">
      <component glyphName="I" x="0" y="0" flags="0x0"/>
      <component glyphName="dieresis.case" x="-36" y="0" flags="0x0"/>
    </TTGlyph>
    <TTGlyph name="Iotatonos" xMin="-111" yMin="0" xMax="286" yMax="727">
      <component glyphName="I" x="0" y="0" flags="0x0"/>
      <component glyphName="tonos.case" x="-186" y="2" flags="0x0"/>
    </TTGlyph>
    <TTGlyph name="Itilde" xMin="27" yMin="0" xMax="417" yMax="918">
      <component glyphName="I" x="0" y="0" flags="0x0"/>
      <component glyphName="tilde.case" x="-25" y="0" flags="0x0"/>
    </TTGlyph>
    <TTGlyph name="J" xMin="-59" yMin="-170" xMax="309" yMax="693">
      <contour>
        <pt x="215" y="21" on="0"/>
        <pt x="142" y="-87" on="0"/>
        <pt x="39" y="-148" on="0"/>
        <pt x="-30" y="-170" on="1"/>
        <pt x="-59" y="-53" on="1"/>
        <pt x="-14" y="-36" on="0"/>
        <pt x="37" y="9" on="0"/>
        <pt x="60" y="68" on="0"/>
        <pt x="66" y="113" on="1"/>
        <pt x="148" y="693" on="1"/>
        <pt x="309" y="693" on="1"/>
        <pt x="227" y="104" on="1"/>
      </contour>
    </TTGlyph>
    <TTGlyph name="Jcircumflex" xMin="-59" yMin="-170" xMax="437" yMax="949">
      <component glyphName="J" x="0" y="0" flags="0x0"/>
      <component glyphName="circumflex.case" x="-42" y="0" flags="0x0"/>
    </TTGlyph>
    <TTGlyph name="K" xMin="27" yMin="0" xMax="678" yMax="693">
      <contour>
        <pt x="27" y="0" on="1"/>
        <pt x="124" y="693" on="1"/>
        <pt x="285" y="693" on="1"/>
        <pt x="188" y="0" on="1"/>
      </contour>
      <contour>
        <pt x="598" y="0" on="1"/>
        <pt x="414" y="0" on="1"/>
        <pt x="246" y="370" on="1"/>
        <pt x="505" y="693" on="1"/>
        <pt x="678" y="693" on="1"/>
        <pt x="414" y="372" on="1"/>
      </contour>
    </TTGlyph>
    <TTGlyph name="Kappa" xMin="27" yMin="0" xMax="678" yMax="693">
      <component glyphName="K" x="0" y="0" flags="0x0"/>
    </TTGlyph>
    <TTGlyph name="Kcommaaccent" xMin="27" yMin="-325" xMax="678" yMax="693">
      <component glyphName="K" x="0" y="0" flags="0x0"/>
      <component glyphName="uni0326.case" x="215" y="0" flags="0x0"/>
    </TTGlyph>
    <TTGlyph name="L" xMin="27" yMin="0" xMax="472" yMax="693">
      <contour>
        <pt x="472" y="130" on="1"/>
        <pt x="438" y="0" on="1"/>
        <pt x="27" y="0" on="1"/>
        <pt x="124" y="693" on="1"/>
        <pt x="285" y="693" on="1"/>
        <pt x="207" y="130" on="1"/>
      </contour>
    </TTGlyph>
    <TTGlyph name="Lacute" xMin="27" yMin="0" xMax="472" yMax="957">
      <component glyphName="L" x="0" y="0" flags="0x0"/>
      <component glyphName="acute.case" x="-17" y="0" flags="0x0"/>
    </TTGlyph>
    <TTGlyph name="Lambda" xMin="-51" yMin="0" xMax="557" yMax="693">
      <contour>
        <pt x="388" y="0" on="1"/>
        <pt x="334" y="574" on="1"/>
        <pt x="118" y="0" on="1"/>
        <pt x="-51" y="0" on="1"/>
        <pt x="253" y="693" on="1"/>
        <pt x="448" y="693" on="1"/>
        <pt x="557" y="0" on="1"/>
      </contour>
    </TTGlyph>
    <TTGlyph name="Lcaron" xMin="27" yMin="0" xMax="478" yMax="707">
      <component glyphName="L" x="0" y="0" flags="0x0"/>
      <component glyphName="caron.alt" x="220" y="0" flags="0x0"/>
    </TTGlyph>
    <TTGlyph name="Lcommaaccent" xMin="27" yMin="-325" xMax="472" yMax="693">
      <component glyphName="L" x="0" y="0" flags="0x0"/>
      <component glyphName="uni0326.case" x="164" y="0" flags="0x0"/>
    </TTGlyph>
    <TTGlyph name="Ldot" xMin="27" yMin="0" xMax="503" yMax="693">
      <component glyphName="L" x="0" y="0" flags="0x0"/>
      <component glyphName="dotaccent" x="228" y="-323" flags="0x0"/>
    </TTGlyph>
    <TTGlyph name="Lslash" xMin="9" yMin="0" xMax="506" yMax="693">
      <contour>
        <pt x="61" y="0" on="1"/>
        <pt x="92" y="223" on="1"/>
        <pt x="49" y="198" on="1"/>
        <pt x="9" y="285" on="1"/>
        <pt x="109" y="343" on="1"/>
        <pt x="158" y="693" on="1"/>
        <pt x="319" y="693" on="1"/>
        <pt x="284" y="445" on="1"/>
        <pt x="422" y="525" on="1"/>
        <pt x="464" y="439" on="1"/>
        <pt x="267" y="325" on="1"/>
        <pt x="240" y="130" on="1"/>
        <pt x="506" y="130" on="1"/>
        <pt x="471" y="0" on="1"/>
      </contour>
    </TTGlyph>
    <TTGlyph name="M" xMin="-4" yMin="0" xMax="751" yMax="693">
      <contour>
        <pt x="548" y="0" on="1"/>
        <pt x="573" y="273" on="1"/>
        <pt x="587" y="425" on="0"/>
        <pt x="611" y="567" on="1"/>
        <pt x="438" y="73" on="1"/>
        <pt x="283" y="73" on="1"/>
        <pt x="238" y="565" on="1"/>
        <pt x="232" y="421" on="0"/>
        <pt x="203" y="267" on="1"/>
        <pt x="154" y="0" on="1"/>
        <pt x="-4" y="0" on="1"/>
        <pt x="145" y="693" on="1"/>
        <pt x="342" y="693" on="1"/>
        <pt x="380" y="212" on="1"/>
        <pt x="541" y="693" on="1"/>
        <pt x="751" y="693" on="1"/>
        <pt x="706" y="0" on="1"/>
      </contour>
    </TTGlyph>
    <TTGlyph name="Mu" xMin="-4" yMin="0" xMax="751" yMax="693">
      <component glyphName="M" x="0" y="0" flags="0x0"/>
    </TTGlyph>
    <TTGlyph name="N" xMin="27" yMin="0" xMax="649" yMax="693">
      <contour>
        <pt x="348" y="0" on="1"/>
        <pt x="220" y="557" on="1"/>
        <pt x="221" y="551" on="0"/>
        <pt x="221" y="537" on="1"/>
        <pt x="222" y="519" on="0"/>
        <pt x="222" y="480" on="1"/>
        <pt x="222" y="372" on="0"/>
        <pt x="205" y="246" on="1"/>
        <pt x="170" y="0" on="1"/>
        <pt x="27" y="0" on="1"/>
        <pt x="124" y="693" on="1"/>
        <pt x="327" y="693" on="1"/>
        <pt x="457" y="136" on="1"/>
        <pt x="454" y="190" on="0"/>
        <pt x="454" y="236" on="1"/>
        <pt x="454" y="316" on="0"/>
        <pt x="467" y="421" on="1"/>
        <pt x="506" y="693" on="1"/>
        <pt x="649" y="693" on="1"/>
        <pt x="552" y="0" on="1"/>
      </contour>
    </TTGlyph>
    <TTGlyph name="Nacute" xMin="27" yMin="0" xMax="649" yMax="957">
      <component glyphName="N" x="0" y="0" flags="0x0"/>
      <component glyphName="acute.case" x="169" y="0" flags="0x0"/>
    </TTGlyph>
    <TTGlyph name="Nacute.loclPLK" xMin="27" yMin="0" xMax="649" yMax="965">
      <component glyphName="N" x="0" y="0" flags="0x0"/>
      <component glyphName="acute.case.loclPLK" x="150" y="0" flags="0x0"/>
    </TTGlyph>
    <TTGlyph name="Ncaron" xMin="27" yMin="0" xMax="649" yMax="943">
      <component glyphName="N" x="0" y="0" flags="0x0"/>
      <component glyphName="caron.case" x="112" y="0" flags="0x0"/>
    </TTGlyph>
    <TTGlyph name="Ncommaaccent" xMin="27" yMin="-325" xMax="649" yMax="693">
      <component glyphName="N" x="0" y="0" flags="0x0"/>
      <component glyphName="uni0326.case" x="222" y="0" flags="0x0"/>
    </TTGlyph>
    <TTGlyph name="Ntilde" xMin="27" yMin="0" xMax="649" yMax="918">
      <component glyphName="N" x="0" y="0" flags="0x0"/>
      <component glyphName="tilde.case" x="160" y="0" flags="0x0"/>
    </TTGlyph>
    <TTGlyph name="Nu" xMin="27" yMin="0" xMax="649" yMax="693">
      <component glyphName="N" x="0" y="0" flags="0x0"/>
    </TTGlyph>
    <TTGlyph name="O" xMin="39" yMin="-17" xMax="665" yMax="710">
      <contour>
        <pt x="527" y="710" on="0"/>
        <pt x="665" y="562" on="0"/>
        <pt x="665" y="426" on="1"/>
        <pt x="665" y="321" on="0"/>
        <pt x="595" y="119" on="0"/>
        <pt x="433" y="-17" on="0"/>
        <pt x="304" y="-17" on="1"/>
        <pt x="177" y="-17" on="0"/>
        <pt x="39" y="132" on="0"/>
        <pt x="39" y="267" on="1"/>
        <pt x="39" y="371" on="0"/>
        <pt x="110" y="573" on="0"/>
        <pt x="272" y="710" on="0"/>
        <pt x="401" y="710" on="1"/>
      </contour>
      <contour>
        <pt x="319" y="590" on="0"/>
        <pt x="237" y="478" on="0"/>
        <pt x="205" y="323" on="0"/>
        <pt x="205" y="249" on="1"/>
        <pt x="205" y="103" on="0"/>
        <pt x="315" y="103" on="1"/>
        <pt x="385" y="103" on="0"/>
        <pt x="467" y="215" on="0"/>
        <pt x="499" y="372" on="0"/>
        <pt x="499" y="447" on="1"/>
        <pt x="499" y="521" on="0"/>
        <pt x="444" y="590" on="0"/>
        <pt x="389" y="590" on="1"/>
      </contour>
    </TTGlyph>
    <TTGlyph name="OE" xMin="39" yMin="-17" xMax="915" yMax="710">
      <contour>
        <pt x="641" y="509" on="0"/>
        <pt x="641" y="410" on="1"/>
        <pt x="828" y="410" on="1"/>
        <pt x="813" y="295" on="1"/>
        <pt x="630" y="295" on="1"/>
        <pt x="608" y="191" on="0"/>
        <pt x="545" y="118" on="1"/>
        <pt x="835" y="118" on="1"/>
        <pt x="819" y="0" on="1"/>
        <pt x="384" y="0" on="1"/>
        <pt x="338" y="-17" on="0"/>
        <pt x="288" y="-17" on="1"/>
        <pt x="171" y="-17" on="0"/>
        <pt x="39" y="131" on="0"/>
        <pt x="39" y="266" on="1"/>
        <pt x="39" y="368" on="0"/>
        <pt x="109" y="572" on="0"/>
        <pt x="264" y="710" on="0"/>
        <pt x="384" y="710" on="1"/>
        <pt x="440" y="710" on="0"/>
        <pt x="478" y="693" on="1"/>
        <pt x="915" y="693" on="1"/>
        <pt x="882" y="576" on="1"/>
        <pt x="604" y="576" on="1"/>
      </contour>
      <contour>
        <pt x="204" y="103" on="0"/>
        <pt x="304" y="103" on="1"/>
        <pt x="396" y="103" on="0"/>
        <pt x="478" y="312" on="0"/>
        <pt x="478" y="449" on="1"/>
        <pt x="478" y="590" on="0"/>
        <pt x="378" y="590" on="1"/>
        <pt x="314" y="590" on="0"/>
        <pt x="236" y="485" on="0"/>
        <pt x="204" y="330" on="0"/>
        <pt x="204" y="248" on="1"/>
      </contour>
    </TTGlyph>
    <TTGlyph name="Oacute" xMin="39" yMin="-17" xMax="665" yMax="957">
      <component glyphName="O" x="0" y="0" flags="0x0"/>
      <component glyphName="acute.case" x="179" y="0" flags="0x0"/>
    </TTGlyph>
    <TTGlyph name="Oacute.loclPLK" xMin="39" yMin="-17" xMax="665" yMax="965">
      <component glyphName="O" x="0" y="0" flags="0x0"/>
      <component glyphName="acute.case.loclPLK" x="160" y="0" flags="0x0"/>
    </TTGlyph>
    <TTGlyph name="Obreve" xMin="39" yMin="-17" xMax="665" yMax="930">
      <component glyphName="O" x="0" y="0" flags="0x0"/>
      <component glyphName="breve.case" x="135" y="0" flags="0x0"/>
    </TTGlyph>
    <TTGlyph name="Ocircumflex" xMin="39" yMin="-17" xMax="665" yMax="949">
      <component glyphName="O" x="0" y="0" flags="0x0"/>
      <component glyphName="circumflex.case" x="131" y="0" flags="0x0"/>
    </TTGlyph>
    <TTGlyph name="Odieresis" xMin="39" yMin="-17" xMax="665" yMax="925">
      <component glyphName="O" x="0" y="0" flags="0x0"/>
      <component glyphName="dieresis.case" x="161" y="0" flags="0x0"/>
    </TTGlyph>
    <TTGlyph name="Ograve" xMin="39" yMin="-17" xMax="665" yMax="958">
      <component glyphName="O" x="0" y="0" flags="0x0"/>
      <component glyphName="grave.case" x="179" y="0" flags="0x0"/>
    </TTGlyph>
    <TTGlyph name="Ohm" xMin="17" yMin="0" xMax="668" yMax="710">
      <component glyphName="Omega" x="0" y="0" flags="0x0"/>
    </TTGlyph>
    <TTGlyph name="Ohungarumlaut" xMin="39" yMin="-17" xMax="665" yMax="986">
      <component glyphName="O" x="0" y="0" flags="0x0"/>
      <component glyphName="hungarumlaut.case" x="175" y="0" flags="0x0"/>
    </TTGlyph>
    <TTGlyph name="Omacron" xMin="39" yMin="-17" xMax="665" yMax="891">
      <component glyphName="O" x="0" y="0" flags="0x0"/>
      <component glyphName="macron.case" x="206" y="0" flags="0x0"/>
    </TTGlyph>
    <TTGlyph name="Omega" xMin="17" yMin="0" xMax="668" yMax="710">
      <contour>
        <pt x="485" y="710" on="0"/>
        <pt x="606" y="641" on="0"/>
        <pt x="668" y="519" on="0"/>
        <pt x="668" y="438" on="1"/>
        <pt x="668" y="339" on="0"/>
        <pt x="589" y="165" on="0"/>
        <pt x="497" y="119" on="1"/>
        <pt x="606" y="119" on="1"/>
        <pt x="589" y="0" on="1"/>
        <pt x="340" y="0" on="1"/>
        <pt x="355" y="113" on="1"/>
        <pt x="439" y="147" on="0"/>
        <pt x="501" y="348" on="0"/>
        <pt x="501" y="451" on="1"/>
        <pt x="501" y="590" on="0"/>
        <pt x="389" y="590" on="1"/>
        <pt x="319" y="590" on="0"/>
        <pt x="237" y="481" on="0"/>
        <pt x="205" y="328" on="0"/>
        <pt x="205" y="252" on="1"/>
        <pt x="205" y="197" on="0"/>
        <pt x="241" y="130" on="0"/>
        <pt x="280" y="111" on="1"/>
        <pt x="266" y="0" on="1"/>
        <pt x="17" y="0" on="1"/>
        <pt x="34" y="119" on="1"/>
        <pt x="141" y="119" on="1"/>
        <pt x="92" y="150" on="0"/>
        <pt x="44" y="247" on="0"/>
        <pt x="44" y="317" on="1"/>
        <pt x="44" y="401" on="0"/>
        <pt x="118" y="583" on="0"/>
        <pt x="278" y="710" on="0"/>
        <pt x="400" y="710" on="1"/>
      </contour>
    </TTGlyph>
    <TTGlyph name="Omegatonos" xMin="-95" yMin="0" xMax="668" yMax="727">
      <component glyphName="Omega" x="0" y="0" flags="0x0"/>
      <component glyphName="tonos.case" x="-170" y="2" flags="0x0"/>
    </TTGlyph>
    <TTGlyph name="Omicron" xMin="39" yMin="-17" xMax="665" yMax="710">
      <contour>
        <pt x="527" y="710" on="0"/>
        <pt x="665" y="562" on="0"/>
        <pt x="665" y="426" on="1"/>
        <pt x="665" y="321" on="0"/>
        <pt x="595" y="119" on="0"/>
        <pt x="433" y="-17" on="0"/>
        <pt x="304" y="-17" on="1"/>
        <pt x="177" y="-17" on="0"/>
        <pt x="39" y="132" on="0"/>
        <pt x="39" y="267" on="1"/>
        <pt x="39" y="371" on="0"/>
        <pt x="110" y="573" on="0"/>
        <pt x="272" y="710" on="0"/>
        <pt x="401" y="710" on="1"/>
      </contour>
      <contour>
        <pt x="319" y="590" on="0"/>
        <pt x="237" y="478" on="0"/>
        <pt x="205" y="323" on="0"/>
        <pt x="205" y="249" on="1"/>
        <pt x="205" y="103" on="0"/>
        <pt x="315" y="103" on="1"/>
        <pt x="385" y="103" on="0"/>
        <pt x="467" y="215" on="0"/>
        <pt x="499" y="372" on="0"/>
        <pt x="499" y="447" on="1"/>
        <pt x="499" y="521" on="0"/>
        <pt x="444" y="590" on="0"/>
        <pt x="389" y="590" on="1"/>
      </contour>
    </TTGlyph>
    <TTGlyph name="Omicrontonos" xMin="-83" yMin="-17" xMax="665" yMax="727">
      <component glyphName="O" x="0" y="0" flags="0x0"/>
      <component glyphName="tonos.case" x="-158" y="2" flags="0x0"/>
    </TTGlyph>
    <TTGlyph name="Oslash" xMin="39" yMin="-134" xMax="665" yMax="828">
      <contour>
        <pt x="612" y="630" on="0"/>
        <pt x="665" y="509" on="0"/>
        <pt x="665" y="426" on="1"/>
        <pt x="665" y="321" on="0"/>
        <pt x="595" y="119" on="0"/>
        <pt x="433" y="-17" on="0"/>
        <pt x="304" y="-17" on="1"/>
        <pt x="277" y="-17" on="0"/>
        <pt x="253" y="-14" on="1"/>
        <pt x="200" y="-134" on="1"/>
        <pt x="82" y="-102" on="1"/>
        <pt x="141" y="29" on="1"/>
        <pt x="91" y="64" on="0"/>
        <pt x="39" y="185" on="0"/>
        <pt x="39" y="267" on="1"/>
        <pt x="39" y="371" on="0"/>
        <pt x="110" y="573" on="0"/>
        <pt x="272" y="710" on="0"/>
        <pt x="401" y="710" on="1"/>
        <pt x="426" y="710" on="0"/>
        <pt x="450" y="707" on="1"/>
        <pt x="504" y="828" on="1"/>
        <pt x="621" y="795" on="1"/>
        <pt x="562" y="665" on="1"/>
      </contour>
      <contour>
        <pt x="319" y="590" on="0"/>
        <pt x="236" y="478" on="0"/>
        <pt x="202" y="322" on="0"/>
        <pt x="202" y="249" on="1"/>
        <pt x="202" y="176" on="0"/>
        <pt x="221" y="145" on="1"/>
        <pt x="415" y="589" on="1"/>
        <pt x="407" y="590" on="0"/>
        <pt x="389" y="590" on="1"/>
      </contour>
      <contour>
        <pt x="385" y="103" on="0"/>
        <pt x="468" y="216" on="0"/>
        <pt x="501" y="372" on="0"/>
        <pt x="501" y="447" on="1"/>
        <pt x="501" y="518" on="0"/>
        <pt x="483" y="549" on="1"/>
        <pt x="290" y="104" on="1"/>
        <pt x="315" y="103" on="1"/>
      </contour>
    </TTGlyph>
    <TTGlyph name="Oslashacute" xMin="39" yMin="-134" xMax="665" yMax="991">
      <component glyphName="Oslash" x="0" y="0" flags="0x0"/>
      <component glyphName="acute.case" x="181" y="33" flags="0x0"/>
    </TTGlyph>
    <TTGlyph name="Oslashacute.001" xMin="39" yMin="-134" xMax="665" yMax="991">
      <component glyphName="Oslash" x="0" y="0" flags="0x0"/>
      <component glyphName="acute.case" x="181" y="33" flags="0x0"/>
    </TTGlyph>
    <TTGlyph name="Otilde" xMin="39" yMin="-17" xMax="665" yMax="918">
      <component glyphName="O" x="0" y="0" flags="0x0"/>
      <component glyphName="tilde.case" x="171" y="0" flags="0x0"/>
    </TTGlyph>
    <TTGlyph name="P" xMin="27" yMin="0" xMax="602" yMax="693">
      <contour>
        <pt x="467" y="693" on="0"/>
        <pt x="602" y="595" on="0"/>
        <pt x="602" y="500" on="1"/>
        <pt x="602" y="431" on="0"/>
        <pt x="540" y="309" on="0"/>
        <pt x="402" y="231" on="0"/>
        <pt x="296" y="231" on="1"/>
        <pt x="221" y="231" on="1"/>
        <pt x="188" y="0" on="1"/>
        <pt x="27" y="0" on="1"/>
        <pt x="124" y="693" on="1"/>
        <pt x="344" y="693" on="1"/>
      </contour>
      <contour>
        <pt x="371" y="349" on="0"/>
        <pt x="434" y="434" on="0"/>
        <pt x="434" y="492" on="1"/>
        <pt x="434" y="536" on="0"/>
        <pt x="381" y="576" on="0"/>
        <pt x="328" y="576" on="1"/>
        <pt x="269" y="576" on="1"/>
        <pt x="237" y="349" on="1"/>
        <pt x="296" y="349" on="1"/>
      </contour>
    </TTGlyph>
    <TTGlyph name="Phi" xMin="26" yMin="0" xMax="830" yMax="693">
      <contour>
        <pt x="830" y="303" on="0"/>
        <pt x="757" y="170" on="0"/>
        <pt x="594" y="80" on="0"/>
        <pt x="468" y="75" on="1"/>
        <pt x="458" y="0" on="1"/>
        <pt x="301" y="0" on="1"/>
        <pt x="311" y="76" on="1"/>
        <pt x="177" y="84" on="0"/>
        <pt x="26" y="207" on="0"/>
        <pt x="26" y="316" on="1"/>
        <pt x="26" y="390" on="0"/>
        <pt x="99" y="523" on="0"/>
        <pt x="262" y="612" on="0"/>
        <pt x="388" y="617" on="1"/>
        <pt x="398" y="693" on="1"/>
        <pt x="555" y="693" on="1"/>
        <pt x="544" y="616" on="1"/>
        <pt x="678" y="608" on="0"/>
        <pt x="830" y="485" on="0"/>
        <pt x="830" y="377" on="1"/>
      </contour>
      <contour>
        <pt x="582" y="183" on="0"/>
        <pt x="666" y="307" on="0"/>
        <pt x="666" y="382" on="1"/>
        <pt x="666" y="442" on="0"/>
        <pt x="596" y="514" on="0"/>
        <pt x="524" y="519" on="1"/>
        <pt x="475" y="174" on="1"/>
      </contour>
      <contour>
        <pt x="190" y="250" on="0"/>
        <pt x="260" y="178" on="0"/>
        <pt x="332" y="173" on="1"/>
        <pt x="381" y="518" on="1"/>
        <pt x="274" y="509" on="0"/>
        <pt x="190" y="388" on="0"/>
        <pt x="190" y="312" on="1"/>
      </contour>
    </TTGlyph>
    <TTGlyph name="Pi" xMin="27" yMin="0" xMax="650" yMax="693">
      <component glyphName="uni041F" x="0" y="0" flags="0x0"/>
    </TTGlyph>
    <TTGlyph name="Psi" xMin="40" yMin="0" xMax="758" yMax="693">
      <contour>
        <pt x="721" y="428" on="1"/>
        <pt x="706" y="324" on="0"/>
        <pt x="557" y="198" on="0"/>
        <pt x="427" y="182" on="1"/>
        <pt x="403" y="0" on="1"/>
        <pt x="241" y="0" on="1"/>
        <pt x="266" y="182" on="1"/>
        <pt x="153" y="197" on="0"/>
        <pt x="40" y="303" on="0"/>
        <pt x="40" y="389" on="1"/>
        <pt x="40" y="410" on="0"/>
        <pt x="43" y="431" on="1"/>
        <pt x="80" y="693" on="1"/>
        <pt x="235" y="693" on="1"/>
        <pt x="196" y="424" on="1"/>
        <pt x="195" y="414" on="0"/>
        <pt x="195" y="395" on="1"/>
        <pt x="195" y="352" on="0"/>
        <pt x="239" y="303" on="0"/>
        <pt x="289" y="295" on="1"/>
        <pt x="345" y="693" on="1"/>
        <pt x="493" y="693" on="1"/>
        <pt x="437" y="296" on="1"/>
        <pt x="495" y="307" on="0"/>
        <pt x="557" y="372" on="0"/>
        <pt x="565" y="428" on="1"/>
        <pt x="603" y="693" on="1"/>
        <pt x="758" y="693" on="1"/>
      </contour>
    </TTGlyph>
    <TTGlyph name="Q" xMin="39" yMin="-148" xMax="665" yMax="710">
      <contour>
        <pt x="665" y="306" on="0"/>
        <pt x="571" y="92" on="0"/>
        <pt x="468" y="42" on="1"/>
        <pt x="534" y="40" on="0"/>
        <pt x="621" y="8" on="0"/>
        <pt x="659" y="-22" on="1"/>
        <pt x="546" y="-148" on="1"/>
        <pt x="499" y="-85" on="0"/>
        <pt x="391" y="-17" on="0"/>
        <pt x="304" y="-17" on="1"/>
        <pt x="177" y="-17" on="0"/>
        <pt x="39" y="132" on="0"/>
        <pt x="39" y="267" on="1"/>
        <pt x="39" y="371" on="0"/>
        <pt x="110" y="573" on="0"/>
        <pt x="272" y="710" on="0"/>
        <pt x="401" y="710" on="1"/>
        <pt x="527" y="710" on="0"/>
        <pt x="665" y="562" on="0"/>
        <pt x="665" y="426" on="1"/>
      </contour>
      <contour>
        <pt x="205" y="103" on="0"/>
        <pt x="315" y="103" on="1"/>
        <pt x="385" y="103" on="0"/>
        <pt x="467" y="215" on="0"/>
        <pt x="499" y="372" on="0"/>
        <pt x="499" y="447" on="1"/>
        <pt x="499" y="521" on="0"/>
        <pt x="444" y="590" on="0"/>
        <pt x="389" y="590" on="1"/>
        <pt x="319" y="590" on="0"/>
        <pt x="237" y="478" on="0"/>
        <pt x="205" y="323" on="0"/>
        <pt x="205" y="249" on="1"/>
      </contour>
    </TTGlyph>
    <TTGlyph name="R" xMin="27" yMin="0" xMax="601" yMax="693">
      <contour>
        <pt x="601" y="443" on="0"/>
        <pt x="532" y="329" on="0"/>
        <pt x="443" y="291" on="1"/>
        <pt x="573" y="0" on="1"/>
        <pt x="397" y="0" on="1"/>
        <pt x="292" y="264" on="1"/>
        <pt x="225" y="265" on="1"/>
        <pt x="188" y="0" on="1"/>
        <pt x="27" y="0" on="1"/>
        <pt x="124" y="693" on="1"/>
        <pt x="347" y="693" on="1"/>
        <pt x="474" y="693" on="0"/>
        <pt x="601" y="607" on="0"/>
        <pt x="601" y="518" on="1"/>
      </contour>
      <contour>
        <pt x="312" y="378" on="1"/>
        <pt x="379" y="378" on="0"/>
        <pt x="434" y="455" on="0"/>
        <pt x="434" y="506" on="1"/>
        <pt x="434" y="543" on="0"/>
        <pt x="383" y="578" on="0"/>
        <pt x="330" y="578" on="1"/>
        <pt x="269" y="578" on="1"/>
        <pt x="241" y="378" on="1"/>
      </contour>
    </TTGlyph>
    <TTGlyph name="Racute" xMin="27" yMin="0" xMax="601" yMax="957">
      <component glyphName="R" x="0" y="0" flags="0x0"/>
      <component glyphName="acute.case" x="140" y="0" flags="0x0"/>
    </TTGlyph>
    <TTGlyph name="Rcaron" xMin="27" yMin="0" xMax="601" yMax="943">
      <component glyphName="R" x="0" y="0" flags="0x0"/>
      <component glyphName="caron.case" x="83" y="0" flags="0x0"/>
    </TTGlyph>
    <TTGlyph name="Rcommaaccent" xMin="27" yMin="-325" xMax="601" yMax="693">
      <component glyphName="R" x="0" y="0" flags="0x0"/>
      <component glyphName="uni0326.case" x="201" y="0" flags="0x0"/>
    </TTGlyph>
    <TTGlyph name="Rho" xMin="27" yMin="0" xMax="602" yMax="693">
      <component glyphName="P" x="0" y="0" flags="0x0"/>
    </TTGlyph>
    <TTGlyph name="S" xMin="-16" yMin="-17" xMax="569" yMax="710">
      <contour>
        <pt x="483" y="710" on="0"/>
        <pt x="569" y="619" on="1"/>
        <pt x="483" y="533" on="1"/>
        <pt x="423" y="590" on="0"/>
        <pt x="343" y="590" on="1"/>
        <pt x="296" y="590" on="0"/>
        <pt x="238" y="549" on="0"/>
        <pt x="238" y="513" on="1"/>
        <pt x="238" y="493" on="0"/>
        <pt x="259" y="465" on="0"/>
        <pt x="307" y="441" on="0"/>
        <pt x="354" y="424" on="1"/>
        <pt x="442" y="395" on="0"/>
        <pt x="532" y="303" on="0"/>
        <pt x="532" y="227" on="1"/>
        <pt x="532" y="168" on="0"/>
        <pt x="474" y="56" on="0"/>
        <pt x="341" y="-17" on="0"/>
        <pt x="236" y="-17" on="1"/>
        <pt x="152" y="-17" on="0"/>
        <pt x="27" y="38" on="0"/>
        <pt x="-16" y="84" on="1"/>
        <pt x="77" y="176" on="1"/>
        <pt x="143" y="108" on="0"/>
        <pt x="236" y="108" on="1"/>
        <pt x="293" y="108" on="0"/>
        <pt x="362" y="158" on="0"/>
        <pt x="362" y="200" on="1"/>
        <pt x="362" y="235" on="0"/>
        <pt x="314" y="278" on="0"/>
        <pt x="253" y="300" on="1"/>
        <pt x="156" y="331" on="0"/>
        <pt x="69" y="425" on="0"/>
        <pt x="69" y="495" on="1"/>
        <pt x="69" y="549" on="0"/>
        <pt x="128" y="647" on="0"/>
        <pt x="251" y="710" on="0"/>
        <pt x="342" y="710" on="1"/>
      </contour>
    </TTGlyph>
    <TTGlyph name="Sacute" xMin="-16" yMin="-17" xMax="569" yMax="957">
      <component glyphName="S" x="0" y="0" flags="0x0"/>
      <component glyphName="acute.case" x="128" y="0" flags="0x0"/>
    </TTGlyph>
    <TTGlyph name="Sacute.loclPLK" xMin="-16" yMin="-17" xMax="569" yMax="965">
      <component glyphName="S" x="0" y="0" flags="0x0"/>
      <component glyphName="acute.case.loclPLK" x="109" y="0" flags="0x0"/>
    </TTGlyph>
    <TTGlyph name="Scaron" xMin="-16" yMin="-17" xMax="569" yMax="943">
      <component glyphName="S" x="0" y="0" flags="0x0"/>
      <component glyphName="caron.case" x="71" y="0" flags="0x0"/>
    </TTGlyph>
    <TTGlyph name="Scedilla" xMin="-16" yMin="-262" xMax="569" yMax="710">
      <contour>
        <pt x="442" y="395" on="0"/>
        <pt x="532" y="303" on="0"/>
        <pt x="532" y="227" on="1"/>
        <pt x="532" y="171" on="0"/>
        <pt x="480" y="65" on="0"/>
        <pt x="362" y="-10" on="0"/>
        <pt x="269" y="-16" on="1"/>
        <pt x="263" y="-48" on="1"/>
        <pt x="308" y="-53" on="0"/>
        <pt x="354" y="-100" on="0"/>
        <pt x="354" y="-137" on="1"/>
        <pt x="354" y="-166" on="0"/>
        <pt x="321" y="-224" on="0"/>
        <pt x="249" y="-262" on="0"/>
        <pt x="193" y="-262" on="1"/>
        <pt x="160" y="-262" on="0"/>
        <pt x="104" y="-244" on="0"/>
        <pt x="85" y="-230" on="1"/>
        <pt x="130" y="-160" on="1"/>
        <pt x="157" y="-176" on="0"/>
        <pt x="188" y="-176" on="1"/>
        <pt x="212" y="-176" on="0"/>
        <pt x="242" y="-159" on="0"/>
        <pt x="242" y="-142" on="1"/>
        <pt x="242" y="-125" on="0"/>
        <pt x="203" y="-112" on="0"/>
        <pt x="156" y="-112" on="1"/>
        <pt x="180" y="-13" on="1"/>
        <pt x="61" y="2" on="0"/>
        <pt x="-16" y="84" on="1"/>
        <pt x="77" y="176" on="1"/>
        <pt x="143" y="108" on="0"/>
        <pt x="236" y="108" on="1"/>
        <pt x="293" y="108" on="0"/>
        <pt x="362" y="158" on="0"/>
        <pt x="362" y="200" on="1"/>
        <pt x="362" y="235" on="0"/>
        <pt x="314" y="278" on="0"/>
        <pt x="253" y="300" on="1"/>
        <pt x="156" y="331" on="0"/>
        <pt x="69" y="425" on="0"/>
        <pt x="69" y="495" on="1"/>
        <pt x="69" y="549" on="0"/>
        <pt x="128" y="647" on="0"/>
        <pt x="251" y="710" on="0"/>
        <pt x="342" y="710" on="1"/>
        <pt x="483" y="710" on="0"/>
        <pt x="569" y="619" on="1"/>
        <pt x="483" y="533" on="1"/>
        <pt x="423" y="590" on="0"/>
        <pt x="343" y="590" on="1"/>
        <pt x="296" y="590" on="0"/>
        <pt x="238" y="549" on="0"/>
        <pt x="238" y="513" on="1"/>
        <pt x="238" y="493" on="0"/>
        <pt x="259" y="465" on="0"/>
        <pt x="307" y="441" on="0"/>
        <pt x="354" y="424" on="1"/>
      </contour>
    </TTGlyph>
    <TTGlyph name="Scircumflex" xMin="-16" yMin="-17" xMax="569" yMax="949">
      <component glyphName="S" x="0" y="0" flags="0x0"/>
      <component glyphName="circumflex.case" x="80" y="0" flags="0x0"/>
    </TTGlyph>
    <TTGlyph name="Scommaaccent" xMin="-16" yMin="-325" xMax="569" yMax="710">
      <component glyphName="S" x="0" y="0" flags="0x0"/>
      <component glyphName="uni0326.case" x="173" y="0" flags="0x0"/>
    </TTGlyph>
    <TTGlyph name="Sigma" xMin="-17" yMin="0" xMax="533" yMax="693">
      <contour>
        <pt x="240" y="574" on="1"/>
        <pt x="378" y="374" on="1"/>
        <pt x="370" y="309" on="1"/>
        <pt x="177" y="122" on="1"/>
        <pt x="453" y="122" on="1"/>
        <pt x="436" y="0" on="1"/>
        <pt x="-17" y="0" on="1"/>
        <pt x="0" y="119" on="1"/>
        <pt x="220" y="340" on="1"/>
        <pt x="64" y="574" on="1"/>
        <pt x="80" y="693" on="1"/>
        <pt x="533" y="693" on="1"/>
        <pt x="516" y="574" on="1"/>
      </contour>
    </TTGlyph>
    <TTGlyph name="T" xMin="50" yMin="0" xMax="591" yMax="693">
      <contour>
        <pt x="388" y="567" on="1"/>
        <pt x="309" y="0" on="1"/>
        <pt x="147" y="0" on="1"/>
        <pt x="227" y="567" on="1"/>
        <pt x="50" y="567" on="1"/>
        <pt x="68" y="693" on="1"/>
        <pt x="591" y="693" on="1"/>
        <pt x="556" y="567" on="1"/>
      </contour>
    </TTGlyph>
    <TTGlyph name="Tau" xMin="50" yMin="0" xMax="591" yMax="693">
      <component glyphName="T" x="0" y="0" flags="0x0"/>
    </TTGlyph>
    <TTGlyph name="Tbar" xMin="50" yMin="0" xMax="591" yMax="693">
      <contour>
        <pt x="476" y="390" on="1"/>
        <pt x="464" y="298" on="1"/>
        <pt x="351" y="298" on="1"/>
        <pt x="309" y="0" on="1"/>
        <pt x="147" y="0" on="1"/>
        <pt x="189" y="298" on="1"/>
        <pt x="76" y="298" on="1"/>
        <pt x="88" y="390" on="1"/>
        <pt x="202" y="390" on="1"/>
        <pt x="227" y="567" on="1"/>
        <pt x="50" y="567" on="1"/>
        <pt x="68" y="693" on="1"/>
        <pt x="591" y="693" on="1"/>
        <pt x="556" y="567" on="1"/>
        <pt x="388" y="567" on="1"/>
        <pt x="363" y="390" on="1"/>
      </contour>
    </TTGlyph>
    <TTGlyph name="Tcaron" xMin="50" yMin="0" xMax="591" yMax="943">
      <component glyphName="T" x="0" y="0" flags="0x0"/>
      <component glyphName="caron.case" x="46" y="0" flags="0x0"/>
    </TTGlyph>
    <TTGlyph name="Tcedilla" xMin="50" yMin="-262" xMax="591" yMax="693">
      <contour>
        <pt x="309" y="0" on="1"/>
        <pt x="302" y="-48" on="1"/>
        <pt x="346" y="-53" on="0"/>
        <pt x="391" y="-99" on="0"/>
        <pt x="391" y="-137" on="1"/>
        <pt x="391" y="-167" on="0"/>
        <pt x="359" y="-224" on="0"/>
        <pt x="287" y="-262" on="0"/>
        <pt x="230" y="-262" on="1"/>
        <pt x="197" y="-262" on="0"/>
        <pt x="142" y="-244" on="0"/>
        <pt x="123" y="-230" on="1"/>
        <pt x="167" y="-160" on="1"/>
        <pt x="196" y="-176" on="0"/>
        <pt x="226" y="-176" on="1"/>
        <pt x="249" y="-176" on="0"/>
        <pt x="279" y="-159" on="0"/>
        <pt x="279" y="-142" on="1"/>
        <pt x="279" y="-125" on="0"/>
        <pt x="240" y="-112" on="0"/>
        <pt x="193" y="-112" on="1"/>
        <pt x="221" y="0" on="1"/>
        <pt x="147" y="0" on="1"/>
        <pt x="227" y="567" on="1"/>
        <pt x="50" y="567" on="1"/>
        <pt x="68" y="693" on="1"/>
        <pt x="591" y="693" on="1"/>
        <pt x="556" y="567" on="1"/>
        <pt x="388" y="567" on="1"/>
      </contour>
    </TTGlyph>
    <TTGlyph name="Theta" xMin="39" yMin="-17" xMax="665" yMax="710">
      <contour>
        <pt x="527" y="710" on="0"/>
        <pt x="665" y="562" on="0"/>
        <pt x="665" y="426" on="1"/>
        <pt x="665" y="325" on="0"/>
        <pt x="594" y="122" on="0"/>
        <pt x="432" y="-17" on="0"/>
        <pt x="304" y="-17" on="1"/>
        <pt x="177" y="-17" on="0"/>
        <pt x="39" y="131" on="0"/>
        <pt x="39" y="267" on="1"/>
        <pt x="39" y="368" on="0"/>
        <pt x="110" y="571" on="0"/>
        <pt x="272" y="710" on="0"/>
        <pt x="400" y="710" on="1"/>
      </contour>
      <contour>
        <pt x="316" y="590" on="0"/>
        <pt x="231" y="483" on="0"/>
        <pt x="197" y="331" on="0"/>
        <pt x="197" y="254" on="1"/>
        <pt x="197" y="176" on="0"/>
        <pt x="257" y="103" on="0"/>
        <pt x="315" y="103" on="1"/>
        <pt x="388" y="103" on="0"/>
        <pt x="474" y="211" on="0"/>
        <pt x="507" y="365" on="0"/>
        <pt x="507" y="442" on="1"/>
        <pt x="507" y="520" on="0"/>
        <pt x="449" y="590" on="0"/>
        <pt x="389" y="590" on="1"/>
      </contour>
      <contour>
        <pt x="246" y="305" on="1"/>
        <pt x="259" y="399" on="1"/>
        <pt x="459" y="399" on="1"/>
        <pt x="445" y="305" on="1"/>
      </contour>
    </TTGlyph>
    <TTGlyph name="Thorn" xMin="27" yMin="0" xMax="586" yMax="693">
      <contour>
        <pt x="452" y="585" on="0"/>
        <pt x="586" y="486" on="0"/>
        <pt x="586" y="386" on="1"/>
        <pt x="586" y="320" on="0"/>
        <pt x="528" y="196" on="0"/>
        <pt x="390" y="114" on="0"/>
        <pt x="279" y="114" on="1"/>
        <pt x="204" y="114" on="1"/>
        <pt x="188" y="0" on="1"/>
        <pt x="27" y="0" on="1"/>
        <pt x="124" y="693" on="1"/>
        <pt x="285" y="693" on="1"/>
        <pt x="270" y="585" on="1"/>
        <pt x="328" y="585" on="1"/>
      </contour>
      <contour>
        <pt x="355" y="233" on="0"/>
        <pt x="419" y="323" on="0"/>
        <pt x="419" y="382" on="1"/>
        <pt x="419" y="468" on="0"/>
        <pt x="313" y="468" on="1"/>
        <pt x="254" y="468" on="1"/>
        <pt x="221" y="233" on="1"/>
        <pt x="279" y="233" on="1"/>
      </contour>
    </TTGlyph>
    <TTGlyph name="U" xMin="46" yMin="-17" xMax="647" yMax="693">
      <contour>
        <pt x="566" y="119" on="0"/>
        <pt x="411" y="-17" on="0"/>
        <pt x="283" y="-17" on="1"/>
        <pt x="166" y="-17" on="0"/>
        <pt x="46" y="93" on="0"/>
        <pt x="46" y="187" on="1"/>
        <pt x="46" y="210" on="0"/>
        <pt x="49" y="232" on="1"/>
        <pt x="114" y="693" on="1"/>
        <pt x="275" y="693" on="1"/>
        <pt x="211" y="235" on="1"/>
        <pt x="208" y="214" on="0"/>
        <pt x="208" y="195" on="1"/>
        <pt x="208" y="149" on="0"/>
        <pt x="250" y="106" on="0"/>
        <pt x="295" y="105" on="1"/>
        <pt x="350" y="105" on="0"/>
        <pt x="411" y="171" on="0"/>
        <pt x="421" y="238" on="1"/>
        <pt x="485" y="693" on="1"/>
        <pt x="647" y="693" on="1"/>
        <pt x="582" y="229" on="1"/>
      </contour>
    </TTGlyph>
    <TTGlyph name="Uacute" xMin="46" yMin="-17" xMax="647" yMax="957">
      <component glyphName="U" x="0" y="0" flags="0x0"/>
      <component glyphName="acute.case" x="158" y="0" flags="0x0"/>
    </TTGlyph>
    <TTGlyph name="Ubreve" xMin="46" yMin="-17" xMax="647" yMax="930">
      <component glyphName="U" x="0" y="0" flags="0x0"/>
      <component glyphName="breve.case" x="113" y="0" flags="0x0"/>
    </TTGlyph>
    <TTGlyph name="Ucircumflex" xMin="46" yMin="-17" xMax="647" yMax="949">
      <component glyphName="U" x="0" y="0" flags="0x0"/>
      <component glyphName="circumflex.case" x="110" y="0" flags="0x0"/>
    </TTGlyph>
    <TTGlyph name="Udieresis" xMin="46" yMin="-17" xMax="647" yMax="925">
      <component glyphName="U" x="0" y="0" flags="0x0"/>
      <component glyphName="dieresis.case" x="139" y="0" flags="0x0"/>
    </TTGlyph>
    <TTGlyph name="Ugrave" xMin="46" yMin="-17" xMax="647" yMax="958">
      <component glyphName="U" x="0" y="0" flags="0x0"/>
      <component glyphName="grave.case" x="158" y="0" flags="0x0"/>
    </TTGlyph>
    <TTGlyph name="Uhungarumlaut" xMin="46" yMin="-17" xMax="647" yMax="986">
      <component glyphName="U" x="0" y="0" flags="0x0"/>
      <component glyphName="hungarumlaut.case" x="154" y="0" flags="0x0"/>
    </TTGlyph>
    <TTGlyph name="Umacron" xMin="46" yMin="-17" xMax="647" yMax="891">
      <component glyphName="U" x="0" y="0" flags="0x0"/>
      <component glyphName="macron.case" x="184" y="0" flags="0x0"/>
    </TTGlyph>
    <TTGlyph name="Uogonek" xMin="46" yMin="-246" xMax="647" yMax="693">
      <contour>
        <pt x="582" y="229" on="1"/>
        <pt x="570" y="144" on="0"/>
        <pt x="469" y="20" on="0"/>
        <pt x="385" y="-4" on="1"/>
        <pt x="267" y="-49" on="0"/>
        <pt x="267" y="-110" on="1"/>
        <pt x="267" y="-148" on="0"/>
        <pt x="315" y="-148" on="1"/>
        <pt x="342" y="-148" on="0"/>
        <pt x="377" y="-140" on="1"/>
        <pt x="358" y="-238" on="1"/>
        <pt x="324" y="-246" on="0"/>
        <pt x="288" y="-246" on="1"/>
        <pt x="227" y="-246" on="0"/>
        <pt x="150" y="-188" on="0"/>
        <pt x="150" y="-139" on="1"/>
        <pt x="150" y="-98" on="0"/>
        <pt x="200" y="-35" on="0"/>
        <pt x="245" y="-15" on="1"/>
        <pt x="147" y="-6" on="0"/>
        <pt x="46" y="101" on="0"/>
        <pt x="46" y="187" on="1"/>
        <pt x="46" y="210" on="0"/>
        <pt x="49" y="232" on="1"/>
        <pt x="114" y="693" on="1"/>
        <pt x="275" y="693" on="1"/>
        <pt x="211" y="235" on="1"/>
        <pt x="208" y="214" on="0"/>
        <pt x="208" y="195" on="1"/>
        <pt x="208" y="149" on="0"/>
        <pt x="250" y="106" on="0"/>
        <pt x="295" y="105" on="1"/>
        <pt x="350" y="105" on="0"/>
        <pt x="411" y="171" on="0"/>
        <pt x="421" y="238" on="1"/>
        <pt x="485" y="693" on="1"/>
        <pt x="647" y="693" on="1"/>
      </contour>
    </TTGlyph>
    <TTGlyph name="Upsilon" xMin="53" yMin="0" xMax="652" yMax="693">
      <contour>
        <pt x="336" y="0" on="1"/>
        <pt x="174" y="0" on="1"/>
        <pt x="211" y="259" on="1"/>
        <pt x="53" y="693" on="1"/>
        <pt x="225" y="693" on="1"/>
        <pt x="309" y="388" on="1"/>
        <pt x="478" y="693" on="1"/>
        <pt x="652" y="693" on="1"/>
        <pt x="372" y="260" on="1"/>
      </contour>
    </TTGlyph>
    <TTGlyph name="Upsilondieresis" xMin="53" yMin="0" xMax="652" yMax="925">
      <component glyphName="Y" x="0" y="0" flags="0x0"/>
      <component glyphName="dieresis.case" x="112" y="0" flags="0x0"/>
    </TTGlyph>
    <TTGlyph name="Upsilontonos" xMin="-175" yMin="0" xMax="652" yMax="727">
      <component glyphName="Y" x="0" y="0" flags="0x0"/>
      <component glyphName="tonos.case" x="-250" y="2" flags="0x0"/>
    </TTGlyph>
    <TTGlyph name="Uring" xMin="46" yMin="-17" xMax="647" yMax="993">
      <component glyphName="U" x="0" y="0" flags="0x0"/>
      <component glyphName="ring.case" x="198" y="0" flags="0x0"/>
    </TTGlyph>
    <TTGlyph name="Utilde" xMin="46" yMin="-17" xMax="647" yMax="918">
      <component glyphName="U" x="0" y="0" flags="0x0"/>
      <component glyphName="tilde.case" x="149" y="0" flags="0x0"/>
    </TTGlyph>
    <TTGlyph name="V" xMin="47" yMin="0" xMax="635" yMax="693">
      <contour>
        <pt x="148" y="0" on="1"/>
        <pt x="47" y="693" on="1"/>
        <pt x="215" y="693" on="1"/>
        <pt x="265" y="128" on="1"/>
        <pt x="467" y="693" on="1"/>
        <pt x="635" y="693" on="1"/>
        <pt x="348" y="0" on="1"/>
      </contour>
    </TTGlyph>
    <TTGlyph name="W" xMin="71" yMin="0" xMax="886" yMax="693">
      <contour>
        <pt x="466" y="0" on="1"/>
        <pt x="455" y="529" on="1"/>
        <pt x="290" y="0" on="1"/>
        <pt x="86" y="0" on="1"/>
        <pt x="71" y="693" on="1"/>
        <pt x="230" y="693" on="1"/>
        <pt x="218" y="124" on="1"/>
        <pt x="393" y="693" on="1"/>
        <pt x="563" y="693" on="1"/>
        <pt x="572" y="124" on="1"/>
        <pt x="731" y="693" on="1"/>
        <pt x="886" y="693" on="1"/>
        <pt x="675" y="0" on="1"/>
      </contour>
    </TTGlyph>
    <TTGlyph name="Wacute" xMin="71" yMin="0" xMax="886" yMax="957">
      <component glyphName="W" x="0" y="0" flags="0x0"/>
      <component glyphName="acute.case" x="257" y="0" flags="0x0"/>
    </TTGlyph>
    <TTGlyph name="Wcircumflex" xMin="71" yMin="0" xMax="886" yMax="949">
      <component glyphName="W" x="0" y="0" flags="0x0"/>
      <component glyphName="circumflex.case" x="209" y="0" flags="0x0"/>
    </TTGlyph>
    <TTGlyph name="Wdieresis" xMin="71" yMin="0" xMax="886" yMax="925">
      <component glyphName="W" x="0" y="0" flags="0x0"/>
      <component glyphName="dieresis.case" x="239" y="0" flags="0x0"/>
    </TTGlyph>
    <TTGlyph name="Wgrave" xMin="71" yMin="0" xMax="886" yMax="958">
      <component glyphName="W" x="0" y="0" flags="0x0"/>
      <component glyphName="grave.case" x="257" y="0" flags="0x0"/>
    </TTGlyph>
    <TTGlyph name="X" xMin="-42" yMin="0" xMax="619" yMax="693">
      <contour>
        <pt x="539" y="0" on="1"/>
        <pt x="365" y="0" on="1"/>
        <pt x="285" y="270" on="1"/>
        <pt x="132" y="0" on="1"/>
        <pt x="-42" y="0" on="1"/>
        <pt x="200" y="368" on="1"/>
        <pt x="201" y="369" on="1"/>
        <pt x="71" y="693" on="1"/>
        <pt x="243" y="693" on="1"/>
        <pt x="309" y="465" on="1"/>
        <pt x="446" y="693" on="1"/>
        <pt x="619" y="693" on="1"/>
        <pt x="395" y="374" on="1"/>
        <pt x="394" y="373" on="1"/>
      </contour>
    </TTGlyph>
    <TTGlyph name="Xi" xMin="-9" yMin="0" xMax="546" yMax="693">
      <contour>
        <pt x="69" y="556" on="1"/>
        <pt x="88" y="693" on="1"/>
        <pt x="546" y="693" on="1"/>
        <pt x="509" y="556" on="1"/>
      </contour>
      <contour>
        <pt x="94" y="288" on="1"/>
        <pt x="113" y="416" on="1"/>
        <pt x="442" y="416" on="1"/>
        <pt x="423" y="288" on="1"/>
      </contour>
      <contour>
        <pt x="-9" y="0" on="1"/>
        <pt x="11" y="142" on="1"/>
        <pt x="468" y="142" on="1"/>
        <pt x="449" y="0" on="1"/>
      </contour>
    </TTGlyph>
    <TTGlyph name="Y" xMin="53" yMin="0" xMax="652" yMax="693">
      <contour>
        <pt x="336" y="0" on="1"/>
        <pt x="174" y="0" on="1"/>
        <pt x="211" y="259" on="1"/>
        <pt x="53" y="693" on="1"/>
        <pt x="225" y="693" on="1"/>
        <pt x="309" y="388" on="1"/>
        <pt x="478" y="693" on="1"/>
        <pt x="652" y="693" on="1"/>
        <pt x="372" y="260" on="1"/>
      </contour>
    </TTGlyph>
    <TTGlyph name="Yacute" xMin="53" yMin="0" xMax="652" yMax="957">
      <component glyphName="Y" x="0" y="0" flags="0x0"/>
      <component glyphName="acute.case" x="130" y="0" flags="0x0"/>
    </TTGlyph>
    <TTGlyph name="Ycircumflex" xMin="53" yMin="0" xMax="652" yMax="949">
      <component glyphName="Y" x="0" y="0" flags="0x0"/>
      <component glyphName="circumflex.case" x="82" y="0" flags="0x0"/>
    </TTGlyph>
    <TTGlyph name="Ydieresis" xMin="53" yMin="0" xMax="652" yMax="925">
      <component glyphName="Y" x="0" y="0" flags="0x0"/>
      <component glyphName="dieresis.case" x="112" y="0" flags="0x0"/>
    </TTGlyph>
    <TTGlyph name="Ygrave" xMin="53" yMin="0" xMax="652" yMax="958">
      <component glyphName="Y" x="0" y="0" flags="0x0"/>
      <component glyphName="grave.case" x="130" y="0" flags="0x0"/>
    </TTGlyph>
    <TTGlyph name="Z" xMin="-20" yMin="0" xMax="563" yMax="693">
      <contour>
        <pt x="189" y="130" on="1"/>
        <pt x="490" y="131" on="1"/>
        <pt x="455" y="0" on="1"/>
        <pt x="-20" y="0" on="1"/>
        <pt x="-4" y="123" on="1"/>
        <pt x="360" y="566" on="1"/>
        <pt x="90" y="566" on="1"/>
        <pt x="108" y="693" on="1"/>
        <pt x="563" y="693" on="1"/>
        <pt x="546" y="569" on="1"/>
      </contour>
    </TTGlyph>
    <TTGlyph name="Zacute" xMin="-20" yMin="0" xMax="563" yMax="957">
      <component glyphName="Z" x="0" y="0" flags="0x0"/>
      <component glyphName="acute.case" x="109" y="0" flags="0x0"/>
    </TTGlyph>
    <TTGlyph name="Zacute.loclPLK" xMin="-20" yMin="0" xMax="563" yMax="965">
      <component glyphName="Z" x="0" y="0" flags="0x0"/>
      <component glyphName="acute.case.loclPLK" x="90" y="0" flags="0x0"/>
    </TTGlyph>
    <TTGlyph name="Zcaron" xMin="-20" yMin="0" xMax="563" yMax="943">
      <component glyphName="Z" x="0" y="0" flags="0x0"/>
      <component glyphName="caron.case" x="52" y="0" flags="0x0"/>
    </TTGlyph>
    <TTGlyph name="Zdotaccent" xMin="-20" yMin="0" xMax="563" yMax="937">
      <component glyphName="Z" x="0" y="0" flags="0x0"/>
      <component glyphName="dotaccent.case" x="195" y="0" flags="0x0"/>
    </TTGlyph>
    <TTGlyph name="Zeta" xMin="-20" yMin="0" xMax="563" yMax="693">
      <component glyphName="Z" x="0" y="0" flags="0x0"/>
    </TTGlyph>
    <TTGlyph name="a" xMin="25" yMin="-17" xMax="548" yMax="548">
      <contour>
        <pt x="446" y="548" on="0"/>
        <pt x="548" y="492" on="1"/>
        <pt x="497" y="152" on="1"/>
        <pt x="495" y="136" on="0"/>
        <pt x="495" y="130" on="1"/>
        <pt x="495" y="112" on="0"/>
        <pt x="509" y="94" on="0"/>
        <pt x="523" y="88" on="1"/>
        <pt x="479" y="-14" on="1"/>
        <pt x="432" y="-10" on="0"/>
        <pt x="367" y="33" on="0"/>
        <pt x="356" y="74" on="1"/>
        <pt x="292" y="-17" on="0"/>
        <pt x="199" y="-17" on="1"/>
        <pt x="114" y="-17" on="0"/>
        <pt x="25" y="96" on="0"/>
        <pt x="25" y="194" on="1"/>
        <pt x="25" y="278" on="0"/>
        <pt x="87" y="440" on="0"/>
        <pt x="225" y="548" on="0"/>
        <pt x="330" y="548" on="1"/>
      </contour>
      <contour>
        <pt x="277" y="436" on="0"/>
        <pt x="214" y="362" on="0"/>
        <pt x="186" y="252" on="0"/>
        <pt x="186" y="195" on="1"/>
        <pt x="186" y="142" on="0"/>
        <pt x="218" y="99" on="0"/>
        <pt x="247" y="99" on="1"/>
        <pt x="299" y="99" on="0"/>
        <pt x="347" y="173" on="1"/>
        <pt x="385" y="426" on="1"/>
        <pt x="356" y="436" on="0"/>
        <pt x="326" y="436" on="1"/>
      </contour>
    </TTGlyph>
    <TTGlyph name="a.sc" xMin="-51" yMin="0" xMax="486" yMax="568">
      <contour>
        <pt x="112" y="0" on="1"/>
        <pt x="-51" y="0" on="1"/>
        <pt x="205" y="568" on="1"/>
        <pt x="391" y="568" on="1"/>
        <pt x="486" y="0" on="1"/>
        <pt x="324" y="0" on="1"/>
        <pt x="313" y="115" on="1"/>
        <pt x="154" y="115" on="1"/>
      </contour>
      <contour>
        <pt x="193" y="226" on="1"/>
        <pt x="305" y="226" on="1"/>
        <pt x="282" y="465" on="1"/>
      </contour>
    </TTGlyph>
    <TTGlyph name="aacute" xMin="25" yMin="-17" xMax="548" yMax="835">
      <component glyphName="a" x="0" y="0" flags="0x0"/>
      <component glyphName="acute" x="129" y="0" flags="0x0"/>
    </TTGlyph>
    <TTGlyph name="aacute.sc" xMin="-51" yMin="0" xMax="490" yMax="865">
      <component glyphName="a.sc" x="0" y="0" flags="0x0"/>
      <component glyphName="acute.sc" x="137" y="0" flags="0x0"/>
    </TTGlyph>
    <TTGlyph name="abreve" xMin="25" yMin="-17" xMax="549" yMax="822">
      <component glyphName="a" x="0" y="0" flags="0x0"/>
      <component glyphName="breve" x="106" y="0" flags="0x0"/>
    </TTGlyph>
    <TTGlyph name="abreve.sc" xMin="-51" yMin="0" xMax="494" yMax="852">
      <component glyphName="a.sc" x="0" y="0" flags="0x0"/>
      <component glyphName="breve.sc" x="66" y="0" flags="0x0"/>
    </TTGlyph>
    <TTGlyph name="acircumflex" xMin="25" yMin="-17" xMax="549" yMax="822">
      <component glyphName="a" x="0" y="0" flags="0x0"/>
      <component glyphName="circumflex" x="89" y="0" flags="0x0"/>
    </TTGlyph>
    <TTGlyph name="acircumflex.sc" xMin="-51" yMin="0" xMax="510" yMax="852">
      <component glyphName="a.sc" x="0" y="0" flags="0x0"/>
      <component glyphName="circumflex.sc" x="70" y="0" flags="0x0"/>
    </TTGlyph>
    <TTGlyph name="acute" xMin="90" yMin="622" xMax="366" yMax="835">
      <contour>
        <pt x="121" y="622" on="1"/>
        <pt x="90" y="703" on="1"/>
        <pt x="321" y="835" on="1"/>
        <pt x="366" y="717" on="1"/>
      </contour>
    </TTGlyph>
    <TTGlyph name="acute.case" xMin="104" yMin="747" xMax="384" yMax="957">
      <contour>
        <pt x="143" y="747" on="1"/>
        <pt x="104" y="827" on="1"/>
        <pt x="327" y="957" on="1"/>
        <pt x="384" y="838" on="1"/>
      </contour>
    </TTGlyph>
    <TTGlyph name="acute.case.loclPLK" xMin="166" yMin="741" xMax="393" yMax="965">
      <contour>
        <pt x="231" y="741" on="1"/>
        <pt x="166" y="782" on="1"/>
        <pt x="287" y="965" on="1"/>
        <pt x="393" y="898" on="1"/>
      </contour>
    </TTGlyph>
    <TTGlyph name="acute.loclPLK" xMin="145" yMin="581" xMax="372" yMax="809">
      <contour>
        <pt x="210" y="581" on="1"/>
        <pt x="145" y="622" on="1"/>
        <pt x="265" y="809" on="1"/>
        <pt x="372" y="743" on="1"/>
      </contour>
    </TTGlyph>
    <TTGlyph name="acute.sc" xMin="76" yMin="653" xMax="352" yMax="865">
      <contour>
        <pt x="107" y="653" on="1"/>
        <pt x="76" y="733" on="1"/>
        <pt x="307" y="865" on="1"/>
        <pt x="352" y="747" on="1"/>
      </contour>
    </TTGlyph>
    <TTGlyph name="acute.sc.loclPLK" xMin="147" yMin="626" xMax="374" yMax="854">
      <contour>
        <pt x="213" y="626" on="1"/>
        <pt x="147" y="667" on="1"/>
        <pt x="268" y="854" on="1"/>
        <pt x="374" y="788" on="1"/>
      </contour>
    </TTGlyph>
    <TTGlyph name="acutecomb" xMin="113" yMin="621" xMax="393" yMax="831">
      <contour>
        <pt x="152" y="621" on="1"/>
        <pt x="113" y="701" on="1"/>
        <pt x="336" y="831" on="1"/>
        <pt x="393" y="712" on="1"/>
      </contour>
    </TTGlyph>
    <TTGlyph name="adieresis" xMin="25" yMin="-17" xMax="556" yMax="799">
      <component glyphName="a" x="0" y="0" flags="0x0"/>
      <component glyphName="dieresis" x="75" y="0" flags="0x0"/>
    </TTGlyph>
    <TTGlyph name="adieresis.sc" xMin="-51" yMin="0" xMax="517" yMax="829">
      <component glyphName="a.sc" x="0" y="0" flags="0x0"/>
      <component glyphName="dieresis.sc" x="56" y="0" flags="0x0"/>
    </TTGlyph>
    <TTGlyph name="ae" xMin="13" yMin="-17" xMax="829" yMax="548">
      <contour>
        <pt x="357" y="548" on="0"/>
        <pt x="430" y="512" on="0"/>
        <pt x="453" y="477" on="1"/>
        <pt x="483" y="509" on="0"/>
        <pt x="579" y="548" on="0"/>
        <pt x="633" y="548" on="1"/>
        <pt x="726" y="548" on="0"/>
        <pt x="829" y="466" on="0"/>
        <pt x="829" y="403" on="1"/>
        <pt x="829" y="301" on="0"/>
        <pt x="639" y="209" on="0"/>
        <pt x="487" y="194" on="1"/>
        <pt x="490" y="141" on="0"/>
        <pt x="539" y="99" on="0"/>
        <pt x="583" y="99" on="1"/>
        <pt x="616" y="99" on="0"/>
        <pt x="681" y="123" on="0"/>
        <pt x="718" y="148" on="1"/>
        <pt x="774" y="54" on="1"/>
        <pt x="676" y="-17" on="0"/>
        <pt x="563" y="-17" on="1"/>
        <pt x="495" y="-17" on="0"/>
        <pt x="398" y="28" on="0"/>
        <pt x="371" y="71" on="1"/>
        <pt x="329" y="23" on="0"/>
        <pt x="232" y="-17" on="0"/>
        <pt x="174" y="-17" on="1"/>
        <pt x="100" y="-17" on="0"/>
        <pt x="13" y="62" on="0"/>
        <pt x="13" y="127" on="1"/>
        <pt x="13" y="210" on="0"/>
        <pt x="140" y="322" on="0"/>
        <pt x="289" y="322" on="1"/>
        <pt x="348" y="322" on="1"/>
        <pt x="356" y="353" on="0"/>
        <pt x="366" y="375" on="1"/>
        <pt x="362" y="402" on="0"/>
        <pt x="307" y="432" on="0"/>
        <pt x="264" y="432" on="1"/>
        <pt x="207" y="432" on="0"/>
        <pt x="128" y="406" on="1"/>
        <pt x="103" y="511" on="1"/>
        <pt x="203" y="548" on="0"/>
        <pt x="299" y="548" on="1"/>
      </contour>
      <contour>
        <pt x="567" y="443" on="0"/>
        <pt x="506" y="356" on="0"/>
        <pt x="494" y="290" on="1"/>
        <pt x="587" y="298" on="0"/>
        <pt x="672" y="356" on="0"/>
        <pt x="672" y="394" on="1"/>
        <pt x="672" y="415" on="0"/>
        <pt x="647" y="443" on="0"/>
        <pt x="618" y="443" on="1"/>
      </contour>
      <contour>
        <pt x="238" y="231" on="0"/>
        <pt x="178" y="190" on="0"/>
        <pt x="178" y="147" on="1"/>
        <pt x="178" y="96" on="0"/>
        <pt x="231" y="96" on="1"/>
        <pt x="259" y="96" on="0"/>
        <pt x="310" y="127" on="0"/>
        <pt x="338" y="158" on="1"/>
        <pt x="333" y="185" on="0"/>
        <pt x="335" y="231" on="1"/>
        <pt x="293" y="231" on="1"/>
      </contour>
    </TTGlyph>
    <TTGlyph name="ae.sc" xMin="-58" yMin="0" xMax="715" yMax="568">
      <contour>
        <pt x="464" y="458" on="1"/>
        <pt x="471" y="342" on="1"/>
        <pt x="676" y="342" on="1"/>
        <pt x="661" y="234" on="1"/>
        <pt x="475" y="234" on="1"/>
        <pt x="483" y="111" on="1"/>
        <pt x="682" y="111" on="1"/>
        <pt x="666" y="0" on="1"/>
        <pt x="341" y="0" on="1"/>
        <pt x="338" y="115" on="1"/>
        <pt x="166" y="115" on="1"/>
        <pt x="110" y="0" on="1"/>
        <pt x="-58" y="0" on="1"/>
        <pt x="253" y="568" on="1"/>
        <pt x="715" y="568" on="1"/>
        <pt x="683" y="458" on="1"/>
      </contour>
      <contour>
        <pt x="337" y="226" on="1"/>
        <pt x="330" y="457" on="1"/>
        <pt x="217" y="226" on="1"/>
      </contour>
    </TTGlyph>
    <TTGlyph name="aeacute" xMin="13" yMin="-17" xMax="829" yMax="835">
      <component glyphName="ae" x="0" y="0" flags="0x0"/>
      <component glyphName="acute" x="250" y="0" flags="0x0"/>
    </TTGlyph>
    <TTGlyph name="aeacute.sc" xMin="-58" yMin="0" xMax="715" yMax="865">
      <component glyphName="ae.sc" x="0" y="0" flags="0x0"/>
      <component glyphName="acute.sc" x="293" y="0" flags="0x0"/>
    </TTGlyph>
    <TTGlyph name="agrave" xMin="25" yMin="-17" xMax="548" yMax="835">
      <component glyphName="a" x="0" y="0" flags="0x0"/>
      <component glyphName="grave" x="149" y="0" flags="0x0"/>
    </TTGlyph>
    <TTGlyph name="agrave.sc" xMin="-51" yMin="0" xMax="486" yMax="865">
      <component glyphName="a.sc" x="0" y="0" flags="0x0"/>
      <component glyphName="grave.sc" x="117" y="0" flags="0x0"/>
    </TTGlyph>
    <TTGlyph name="alpha" xMin="25" yMin="-17" xMax="589" yMax="548">
      <contour>
        <pt x="349" y="548" on="0"/>
        <pt x="418" y="478" on="0"/>
        <pt x="423" y="407" on="1"/>
        <pt x="455" y="531" on="1"/>
        <pt x="589" y="531" on="1"/>
        <pt x="483" y="259" on="1"/>
        <pt x="493" y="153" on="1"/>
        <pt x="496" y="129" on="0"/>
        <pt x="518" y="106" on="0"/>
        <pt x="540" y="101" on="1"/>
        <pt x="476" y="-17" on="1"/>
        <pt x="430" y="-11" on="0"/>
        <pt x="377" y="37" on="0"/>
        <pt x="374" y="79" on="1"/>
        <pt x="372" y="110" on="1"/>
        <pt x="338" y="47" on="0"/>
        <pt x="252" y="-17" on="0"/>
        <pt x="195" y="-17" on="1"/>
        <pt x="115" y="-17" on="0"/>
        <pt x="25" y="90" on="0"/>
        <pt x="25" y="193" on="1"/>
        <pt x="25" y="277" on="0"/>
        <pt x="78" y="439" on="0"/>
        <pt x="194" y="548" on="0"/>
        <pt x="283" y="548" on="1"/>
      </contour>
      <contour>
        <pt x="255" y="433" on="0"/>
        <pt x="205" y="349" on="0"/>
        <pt x="182" y="236" on="0"/>
        <pt x="182" y="193" on="1"/>
        <pt x="182" y="98" on="0"/>
        <pt x="238" y="98" on="1"/>
        <pt x="274" y="98" on="0"/>
        <pt x="337" y="176" on="0"/>
        <pt x="368" y="275" on="1"/>
        <pt x="364" y="364" on="0"/>
        <pt x="330" y="433" on="0"/>
        <pt x="293" y="433" on="1"/>
      </contour>
    </TTGlyph>
    <TTGlyph name="alpha.sc" xMin="-51" yMin="0" xMax="486" yMax="568">
      <contour>
        <pt x="112" y="0" on="1"/>
        <pt x="-51" y="0" on="1"/>
        <pt x="205" y="568" on="1"/>
        <pt x="391" y="568" on="1"/>
        <pt x="486" y="0" on="1"/>
        <pt x="324" y="0" on="1"/>
        <pt x="313" y="115" on="1"/>
        <pt x="154" y="115" on="1"/>
      </contour>
      <contour>
        <pt x="193" y="226" on="1"/>
        <pt x="305" y="226" on="1"/>
        <pt x="282" y="465" on="1"/>
      </contour>
    </TTGlyph>
    <TTGlyph name="alphatonos" xMin="25" yMin="-17" xMax="589" yMax="853">
      <component glyphName="alpha" x="0" y="0" flags="0x0"/>
      <component glyphName="tonos" x="182" y="0" flags="0x0"/>
    </TTGlyph>
    <TTGlyph name="alphatonos.sc" xMin="-51" yMin="0" xMax="486" yMax="568">
      <component glyphName="a.sc" x="0" y="0" flags="0x0"/>
    </TTGlyph>
    <TTGlyph name="amacron" xMin="25" yMin="-17" xMax="548" yMax="765">
      <component glyphName="a" x="0" y="0" flags="0x0"/>
      <component glyphName="macron" x="126" y="0" flags="0x0"/>
    </TTGlyph>
    <TTGlyph name="amacron.sc" xMin="-51" yMin="0" xMax="486" yMax="795">
      <component glyphName="a.sc" x="0" y="0" flags="0x0"/>
      <component glyphName="macron.sc" x="102" y="0" flags="0x0"/>
    </TTGlyph>
    <TTGlyph name="ampersand" xMin="52" yMin="-17" xMax="707" yMax="710">
      <contour>
        <pt x="423" y="710" on="0"/>
        <pt x="513" y="670" on="0"/>
        <pt x="561" y="600" on="0"/>
        <pt x="561" y="556" on="1"/>
        <pt x="561" y="501" on="0"/>
        <pt x="487" y="413" on="0"/>
        <pt x="403" y="361" on="1"/>
        <pt x="518" y="234" on="1"/>
        <pt x="556" y="296" on="0"/>
        <pt x="582" y="365" on="1"/>
        <pt x="707" y="323" on="1"/>
        <pt x="658" y="227" on="0"/>
        <pt x="594" y="150" on="1"/>
        <pt x="691" y="47" on="1"/>
        <pt x="561" y="-17" on="1"/>
        <pt x="494" y="59" on="1"/>
        <pt x="443" y="19" on="0"/>
        <pt x="331" y="-17" on="0"/>
        <pt x="267" y="-17" on="1"/>
        <pt x="201" y="-17" on="0"/>
        <pt x="104" y="30" on="0"/>
        <pt x="52" y="112" on="0"/>
        <pt x="52" y="164" on="1"/>
        <pt x="52" y="230" on="0"/>
        <pt x="122" y="327" on="0"/>
        <pt x="208" y="377" on="1"/>
        <pt x="169" y="421" on="0"/>
        <pt x="136" y="490" on="0"/>
        <pt x="136" y="531" on="1"/>
        <pt x="136" y="575" on="0"/>
        <pt x="181" y="657" on="0"/>
        <pt x="283" y="710" on="0"/>
        <pt x="362" y="710" on="1"/>
      </contour>
      <contour>
        <pt x="322" y="609" on="0"/>
        <pt x="283" y="569" on="0"/>
        <pt x="283" y="534" on="1"/>
        <pt x="283" y="511" on="0"/>
        <pt x="303" y="470" on="0"/>
        <pt x="325" y="444" on="1"/>
        <pt x="371" y="473" on="0"/>
        <pt x="414" y="527" on="0"/>
        <pt x="414" y="556" on="1"/>
        <pt x="414" y="579" on="0"/>
        <pt x="381" y="609" on="0"/>
        <pt x="356" y="609" on="1"/>
      </contour>
      <contour>
        <pt x="246" y="260" on="0"/>
        <pt x="216" y="208" on="0"/>
        <pt x="216" y="176" on="1"/>
        <pt x="216" y="139" on="0"/>
        <pt x="261" y="95" on="0"/>
        <pt x="303" y="95" on="1"/>
        <pt x="363" y="95" on="0"/>
        <pt x="422" y="136" on="1"/>
        <pt x="285" y="288" on="1"/>
      </contour>
    </TTGlyph>
    <TTGlyph name="aogonek" xMin="25" yMin="-260" xMax="548" yMax="548">
      <contour>
        <pt x="495" y="112" on="0"/>
        <pt x="509" y="94" on="0"/>
        <pt x="523" y="88" on="1"/>
        <pt x="478" y="-14" on="1"/>
        <pt x="479" y="-14" on="1"/>
        <pt x="345" y="-62" on="0"/>
        <pt x="345" y="-128" on="1"/>
        <pt x="345" y="-162" on="0"/>
        <pt x="389" y="-162" on="1"/>
        <pt x="415" y="-162" on="0"/>
        <pt x="452" y="-154" on="1"/>
        <pt x="430" y="-252" on="1"/>
        <pt x="396" y="-260" on="0"/>
        <pt x="361" y="-260" on="1"/>
        <pt x="302" y="-260" on="0"/>
        <pt x="229" y="-203" on="0"/>
        <pt x="229" y="-155" on="1"/>
        <pt x="229" y="-45" on="0"/>
        <pt x="393" y="16" on="1"/>
        <pt x="365" y="38" on="0"/>
        <pt x="356" y="74" on="1"/>
        <pt x="292" y="-17" on="0"/>
        <pt x="199" y="-17" on="1"/>
        <pt x="114" y="-17" on="0"/>
        <pt x="25" y="96" on="0"/>
        <pt x="25" y="194" on="1"/>
        <pt x="25" y="278" on="0"/>
        <pt x="87" y="440" on="0"/>
        <pt x="225" y="548" on="0"/>
        <pt x="330" y="548" on="1"/>
        <pt x="446" y="548" on="0"/>
        <pt x="548" y="492" on="1"/>
        <pt x="497" y="152" on="1"/>
        <pt x="495" y="136" on="0"/>
        <pt x="495" y="130" on="1"/>
      </contour>
      <contour>
        <pt x="356" y="436" on="0"/>
        <pt x="326" y="436" on="1"/>
        <pt x="277" y="436" on="0"/>
        <pt x="214" y="362" on="0"/>
        <pt x="186" y="252" on="0"/>
        <pt x="186" y="195" on="1"/>
        <pt x="186" y="142" on="0"/>
        <pt x="218" y="99" on="0"/>
        <pt x="247" y="99" on="1"/>
        <pt x="299" y="99" on="0"/>
        <pt x="347" y="173" on="1"/>
        <pt x="385" y="426" on="1"/>
      </contour>
    </TTGlyph>
    <TTGlyph name="aogonek.sc" xMin="-51" yMin="-246" xMax="486" yMax="568">
      <contour>
        <pt x="241" y="-48" on="0"/>
        <pt x="241" y="-114" on="1"/>
        <pt x="241" y="-130" on="0"/>
        <pt x="264" y="-148" on="0"/>
        <pt x="285" y="-148" on="1"/>
        <pt x="311" y="-148" on="0"/>
        <pt x="348" y="-140" on="1"/>
        <pt x="326" y="-238" on="1"/>
        <pt x="292" y="-246" on="0"/>
        <pt x="257" y="-246" on="1"/>
        <pt x="198" y="-246" on="0"/>
        <pt x="125" y="-189" on="0"/>
        <pt x="125" y="-141" on="1"/>
        <pt x="125" y="-19" on="0"/>
        <pt x="320" y="41" on="1"/>
        <pt x="313" y="115" on="1"/>
        <pt x="154" y="115" on="1"/>
        <pt x="112" y="0" on="1"/>
        <pt x="-51" y="0" on="1"/>
        <pt x="205" y="568" on="1"/>
        <pt x="391" y="568" on="1"/>
        <pt x="486" y="0" on="1"/>
        <pt x="375" y="0" on="1"/>
      </contour>
      <contour>
        <pt x="282" y="465" on="1"/>
        <pt x="193" y="226" on="1"/>
        <pt x="305" y="226" on="1"/>
      </contour>
    </TTGlyph>
    <TTGlyph name="approxequal" xMin="3" yMin="130" xMax="518" yMax="516">
      <component glyphName="asciitilde" x="-14" y="-102" flags="0x0"/>
      <component glyphName="asciitilde" x="15" y="106" flags="0x0"/>
    </TTGlyph>
    <TTGlyph name="approxequal.osf" xMin="4" yMin="130" xMax="518" yMax="516">
      <contour>
        <pt x="241" y="516" on="0"/>
        <pt x="286" y="497" on="0"/>
        <pt x="311" y="479" on="1"/>
        <pt x="328" y="467" on="0"/>
        <pt x="349" y="456" on="0"/>
        <pt x="362" y="456" on="1"/>
        <pt x="386" y="456" on="0"/>
        <pt x="419" y="483" on="0"/>
        <pt x="437" y="511" on="1"/>
        <pt x="518" y="461" on="1"/>
        <pt x="483" y="405" on="0"/>
        <pt x="400" y="338" on="0"/>
        <pt x="345" y="338" on="1"/>
        <pt x="310" y="338" on="0"/>
        <pt x="265" y="358" on="0"/>
        <pt x="239" y="376" on="1"/>
        <pt x="222" y="388" on="0"/>
        <pt x="201" y="399" on="0"/>
        <pt x="188" y="399" on="1"/>
        <pt x="163" y="399" on="0"/>
        <pt x="132" y="371" on="0"/>
        <pt x="113" y="342" on="1"/>
        <pt x="33" y="391" on="1"/>
        <pt x="68" y="447" on="0"/>
        <pt x="151" y="516" on="0"/>
        <pt x="207" y="516" on="1"/>
      </contour>
      <contour>
        <pt x="212" y="308" on="0"/>
        <pt x="257" y="289" on="0"/>
        <pt x="282" y="271" on="1"/>
        <pt x="299" y="259" on="0"/>
        <pt x="320" y="248" on="0"/>
        <pt x="333" y="248" on="1"/>
        <pt x="357" y="248" on="0"/>
        <pt x="390" y="275" on="0"/>
        <pt x="408" y="303" on="1"/>
        <pt x="489" y="253" on="1"/>
        <pt x="454" y="197" on="0"/>
        <pt x="371" y="130" on="0"/>
        <pt x="316" y="130" on="1"/>
        <pt x="281" y="130" on="0"/>
        <pt x="236" y="150" on="0"/>
        <pt x="210" y="168" on="1"/>
        <pt x="193" y="180" on="0"/>
        <pt x="172" y="191" on="0"/>
        <pt x="159" y="191" on="1"/>
        <pt x="134" y="191" on="0"/>
        <pt x="104" y="163" on="0"/>
        <pt x="84" y="134" on="1"/>
        <pt x="4" y="183" on="1"/>
        <pt x="39" y="239" on="0"/>
        <pt x="122" y="308" on="0"/>
        <pt x="178" y="308" on="1"/>
      </contour>
    </TTGlyph>
    <TTGlyph name="approxequal.tf" xMin="-11" yMin="130" xMax="504" yMax="516">
      <contour>
        <pt x="227" y="516" on="0"/>
        <pt x="272" y="497" on="0"/>
        <pt x="297" y="479" on="1"/>
        <pt x="314" y="467" on="0"/>
        <pt x="335" y="456" on="0"/>
        <pt x="348" y="456" on="1"/>
        <pt x="372" y="456" on="0"/>
        <pt x="405" y="483" on="0"/>
        <pt x="423" y="511" on="1"/>
        <pt x="504" y="461" on="1"/>
        <pt x="469" y="405" on="0"/>
        <pt x="386" y="338" on="0"/>
        <pt x="331" y="338" on="1"/>
        <pt x="296" y="338" on="0"/>
        <pt x="251" y="358" on="0"/>
        <pt x="225" y="376" on="1"/>
        <pt x="208" y="388" on="0"/>
        <pt x="187" y="399" on="0"/>
        <pt x="174" y="399" on="1"/>
        <pt x="149" y="399" on="0"/>
        <pt x="119" y="371" on="0"/>
        <pt x="99" y="342" on="1"/>
        <pt x="19" y="391" on="1"/>
        <pt x="54" y="447" on="0"/>
        <pt x="137" y="516" on="0"/>
        <pt x="193" y="516" on="1"/>
      </contour>
      <contour>
        <pt x="198" y="308" on="0"/>
        <pt x="244" y="288" on="0"/>
        <pt x="267" y="271" on="1"/>
        <pt x="270" y="269" on="0"/>
        <pt x="291" y="255" on="0"/>
        <pt x="310" y="248" on="0"/>
        <pt x="319" y="248" on="1"/>
        <pt x="343" y="248" on="0"/>
        <pt x="374" y="275" on="0"/>
        <pt x="393" y="303" on="1"/>
        <pt x="474" y="253" on="1"/>
        <pt x="440" y="198" on="0"/>
        <pt x="357" y="130" on="0"/>
        <pt x="301" y="130" on="1"/>
        <pt x="266" y="130" on="0"/>
        <pt x="221" y="150" on="0"/>
        <pt x="195" y="168" on="1"/>
        <pt x="177" y="181" on="0"/>
        <pt x="158" y="191" on="0"/>
        <pt x="145" y="191" on="1"/>
        <pt x="120" y="191" on="0"/>
        <pt x="88" y="162" on="0"/>
        <pt x="70" y="134" on="1"/>
        <pt x="-11" y="183" on="1"/>
        <pt x="24" y="239" on="0"/>
        <pt x="107" y="308" on="0"/>
        <pt x="163" y="308" on="1"/>
      </contour>
    </TTGlyph>
    <TTGlyph name="approxequal.tosf" xMin="-11" yMin="130" xMax="504" yMax="516">
      <contour>
        <pt x="227" y="516" on="0"/>
        <pt x="272" y="497" on="0"/>
        <pt x="297" y="479" on="1"/>
        <pt x="314" y="467" on="0"/>
        <pt x="335" y="456" on="0"/>
        <pt x="348" y="456" on="1"/>
        <pt x="372" y="456" on="0"/>
        <pt x="405" y="483" on="0"/>
        <pt x="423" y="511" on="1"/>
        <pt x="504" y="461" on="1"/>
        <pt x="469" y="405" on="0"/>
        <pt x="386" y="338" on="0"/>
        <pt x="331" y="338" on="1"/>
        <pt x="296" y="338" on="0"/>
        <pt x="251" y="358" on="0"/>
        <pt x="225" y="376" on="1"/>
        <pt x="208" y="388" on="0"/>
        <pt x="187" y="399" on="0"/>
        <pt x="174" y="399" on="1"/>
        <pt x="149" y="399" on="0"/>
        <pt x="119" y="371" on="0"/>
        <pt x="99" y="342" on="1"/>
        <pt x="19" y="391" on="1"/>
        <pt x="54" y="447" on="0"/>
        <pt x="137" y="516" on="0"/>
        <pt x="193" y="516" on="1"/>
      </contour>
      <contour>
        <pt x="198" y="308" on="0"/>
        <pt x="244" y="288" on="0"/>
        <pt x="267" y="271" on="1"/>
        <pt x="270" y="269" on="0"/>
        <pt x="291" y="255" on="0"/>
        <pt x="310" y="248" on="0"/>
        <pt x="319" y="248" on="1"/>
        <pt x="343" y="248" on="0"/>
        <pt x="374" y="275" on="0"/>
        <pt x="393" y="303" on="1"/>
        <pt x="474" y="253" on="1"/>
        <pt x="440" y="198" on="0"/>
        <pt x="357" y="130" on="0"/>
        <pt x="301" y="130" on="1"/>
        <pt x="266" y="130" on="0"/>
        <pt x="221" y="150" on="0"/>
        <pt x="195" y="168" on="1"/>
        <pt x="177" y="181" on="0"/>
        <pt x="158" y="191" on="0"/>
        <pt x="145" y="191" on="1"/>
        <pt x="120" y="191" on="0"/>
        <pt x="88" y="162" on="0"/>
        <pt x="70" y="134" on="1"/>
        <pt x="-11" y="183" on="1"/>
        <pt x="24" y="239" on="0"/>
        <pt x="107" y="308" on="0"/>
        <pt x="163" y="308" on="1"/>
      </contour>
    </TTGlyph>
    <TTGlyph name="aring" xMin="25" yMin="-17" xMax="548" yMax="867">
      <component glyphName="a" x="0" y="0" flags="0x0"/>
      <component glyphName="ring" x="140" y="0" flags="0x0"/>
    </TTGlyph>
    <TTGlyph name="aring.sc" xMin="-51" yMin="0" xMax="486" yMax="897">
      <component glyphName="a.sc" x="0" y="0" flags="0x0"/>
      <component glyphName="ring.sc" x="116" y="0" flags="0x0"/>
    </TTGlyph>
    <TTGlyph name="arrowdown" xMin="103" yMin="-51" xMax="782" yMax="654">
      <contour>
        <pt x="529" y="186" on="0"/>
        <pt x="561" y="227" on="0"/>
        <pt x="590" y="253" on="1"/>
        <pt x="694" y="349" on="1"/>
        <pt x="782" y="257" on="1"/>
        <pt x="442" y="-51" on="1"/>
        <pt x="103" y="257" on="1"/>
        <pt x="191" y="349" on="1"/>
        <pt x="295" y="253" on="1"/>
        <pt x="324" y="226" on="0"/>
        <pt x="356" y="186" on="0"/>
        <pt x="370" y="156" on="1"/>
        <pt x="370" y="654" on="1"/>
        <pt x="515" y="654" on="1"/>
        <pt x="515" y="156" on="1"/>
      </contour>
    </TTGlyph>
    <TTGlyph name="arrowdownwhite" xMin="60" yMin="-94" xMax="660" yMax="750">
      <contour>
        <pt x="464" y="750" on="0"/>
        <pt x="491" y="723" on="0"/>
        <pt x="491" y="700" on="1"/>
        <pt x="491" y="204" on="1"/>
        <pt x="660" y="204" on="1"/>
        <pt x="360" y="-94" on="1"/>
        <pt x="60" y="204" on="1"/>
        <pt x="229" y="204" on="1"/>
        <pt x="229" y="700" on="1"/>
        <pt x="229" y="723" on="0"/>
        <pt x="257" y="750" on="0"/>
        <pt x="279" y="750" on="1"/>
        <pt x="441" y="750" on="1"/>
      </contour>
      <contour>
        <pt x="169" y="159" on="1"/>
        <pt x="360" y="-30" on="1"/>
        <pt x="551" y="159" on="1"/>
        <pt x="444" y="159" on="1"/>
        <pt x="444" y="706" on="1"/>
        <pt x="276" y="706" on="1"/>
        <pt x="276" y="159" on="1"/>
      </contour>
    </TTGlyph>
    <TTGlyph name="arrowleft" xMin="78" yMin="-6" xMax="805" yMax="664">
      <contour>
        <pt x="390" y="474" on="1"/>
        <pt x="362" y="444" on="0"/>
        <pt x="321" y="410" on="0"/>
        <pt x="293" y="393" on="1"/>
        <pt x="805" y="393" on="1"/>
        <pt x="805" y="265" on="1"/>
        <pt x="292" y="265" on="1"/>
        <pt x="319" y="250" on="0"/>
        <pt x="364" y="212" on="0"/>
        <pt x="390" y="184" on="1"/>
        <pt x="483" y="83" on="1"/>
        <pt x="379" y="-6" on="1"/>
        <pt x="78" y="329" on="1"/>
        <pt x="379" y="664" on="1"/>
        <pt x="483" y="575" on="1"/>
      </contour>
    </TTGlyph>
    <TTGlyph name="arrowleftwhite" xMin="40" yMin="13" xMax="920" yMax="613">
      <contour>
        <pt x="920" y="217" on="0"/>
        <pt x="893" y="189" on="0"/>
        <pt x="870" y="189" on="1"/>
        <pt x="338" y="189" on="1"/>
        <pt x="338" y="13" on="1"/>
        <pt x="40" y="313" on="1"/>
        <pt x="338" y="613" on="1"/>
        <pt x="338" y="437" on="1"/>
        <pt x="870" y="437" on="1"/>
        <pt x="893" y="437" on="0"/>
        <pt x="920" y="410" on="0"/>
        <pt x="920" y="387" on="1"/>
        <pt x="920" y="239" on="1"/>
      </contour>
      <contour>
        <pt x="293" y="504" on="1"/>
        <pt x="104" y="313" on="1"/>
        <pt x="293" y="122" on="1"/>
        <pt x="293" y="233" on="1"/>
        <pt x="876" y="233" on="1"/>
        <pt x="876" y="393" on="1"/>
        <pt x="293" y="393" on="1"/>
      </contour>
    </TTGlyph>
    <TTGlyph name="arrowright" xMin="112" yMin="-6" xMax="840" yMax="664">
      <component glyphName="arrowleft" x="917" y="0" scalex="-1.0" scaley="1.0" flags="0x0"/>
    </TTGlyph>
    <TTGlyph name="arrowrightwhite" xMin="53" yMin="13" xMax="933" yMax="613">
      <component glyphName="arrowleftwhite" x="973" y="0" scalex="-1.0" scaley="1.0" flags="0x0"/>
    </TTGlyph>
    <TTGlyph name="arrowup" xMin="118" yMin="0" xMax="797" yMax="705">
      <component glyphName="arrowdown" x="900" y="654" scale="-1.0" flags="0x0"/>
    </TTGlyph>
    <TTGlyph name="arrowupdn" xMin="149" yMin="-222" xMax="828" yMax="890">
      <contour>
        <pt x="740" y="491" on="1"/>
        <pt x="636" y="587" on="1"/>
        <pt x="607" y="613" on="0"/>
        <pt x="575" y="653" on="0"/>
        <pt x="561" y="683" on="1"/>
        <pt x="561" y="-15" on="1"/>
        <pt x="575" y="15" on="0"/>
        <pt x="607" y="55" on="0"/>
        <pt x="636" y="81" on="1"/>
        <pt x="740" y="178" on="1"/>
        <pt x="828" y="85" on="1"/>
        <pt x="489" y="-222" on="1"/>
        <pt x="149" y="85" on="1"/>
        <pt x="237" y="178" on="1"/>
        <pt x="341" y="81" on="1"/>
        <pt x="370" y="56" on="0"/>
        <pt x="402" y="15" on="0"/>
        <pt x="416" y="-15" on="1"/>
        <pt x="416" y="683" on="1"/>
        <pt x="402" y="653" on="0"/>
        <pt x="370" y="612" on="0"/>
        <pt x="341" y="587" on="1"/>
        <pt x="237" y="491" on="1"/>
        <pt x="149" y="583" on="1"/>
        <pt x="489" y="890" on="1"/>
        <pt x="828" y="583" on="1"/>
      </contour>
    </TTGlyph>
    <TTGlyph name="arrowupwhite" xMin="60" yMin="-12" xMax="660" yMax="832">
      <contour>
        <pt x="257" y="-12" on="0"/>
        <pt x="229" y="16" on="0"/>
        <pt x="229" y="38" on="1"/>
        <pt x="229" y="534" on="1"/>
        <pt x="60" y="534" on="1"/>
        <pt x="360" y="832" on="1"/>
        <pt x="660" y="534" on="1"/>
        <pt x="491" y="534" on="1"/>
        <pt x="491" y="38" on="1"/>
        <pt x="491" y="16" on="0"/>
        <pt x="464" y="-12" on="0"/>
        <pt x="441" y="-12" on="1"/>
        <pt x="279" y="-12" on="1"/>
      </contour>
      <contour>
        <pt x="551" y="579" on="1"/>
        <pt x="360" y="768" on="1"/>
        <pt x="169" y="579" on="1"/>
        <pt x="276" y="579" on="1"/>
        <pt x="276" y="32" on="1"/>
        <pt x="444" y="32" on="1"/>
        <pt x="444" y="579" on="1"/>
      </contour>
    </TTGlyph>
    <TTGlyph name="asciicircum" xMin="53" yMin="527" xMax="568" yMax="844">
      <contour>
        <pt x="416" y="527" on="1"/>
        <pt x="339" y="726" on="1"/>
        <pt x="209" y="527" on="1"/>
        <pt x="53" y="527" on="1"/>
        <pt x="285" y="844" on="1"/>
        <pt x="426" y="844" on="1"/>
        <pt x="568" y="527" on="1"/>
      </contour>
    </TTGlyph>
    <TTGlyph name="asciitilde" xMin="18" yMin="232" xMax="502" yMax="410">
      <contour>
        <pt x="226" y="410" on="0"/>
        <pt x="271" y="391" on="0"/>
        <pt x="296" y="373" on="1"/>
        <pt x="313" y="361" on="0"/>
        <pt x="334" y="350" on="0"/>
        <pt x="347" y="350" on="1"/>
        <pt x="372" y="350" on="0"/>
        <pt x="404" y="377" on="0"/>
        <pt x="421" y="404" on="1"/>
        <pt x="502" y="355" on="1"/>
        <pt x="468" y="300" on="0"/>
        <pt x="385" y="232" on="0"/>
        <pt x="329" y="232" on="1"/>
        <pt x="295" y="232" on="0"/>
        <pt x="250" y="252" on="0"/>
        <pt x="224" y="270" on="1"/>
        <pt x="209" y="282" on="0"/>
        <pt x="186" y="293" on="0"/>
        <pt x="173" y="293" on="1"/>
        <pt x="148" y="293" on="0"/>
        <pt x="118" y="265" on="0"/>
        <pt x="98" y="236" on="1"/>
        <pt x="18" y="285" on="1"/>
        <pt x="53" y="341" on="0"/>
        <pt x="136" y="410" on="0"/>
        <pt x="192" y="410" on="1"/>
      </contour>
    </TTGlyph>
    <TTGlyph name="asciitilde.osf" xMin="18" yMin="232" xMax="502" yMax="410">
      <component glyphName="asciitilde" x="0" y="0" flags="0x0"/>
    </TTGlyph>
    <TTGlyph name="asciitilde.tf" xMin="4" yMin="232" xMax="488" yMax="410">
      <component glyphName="asciitilde" x="-14" y="0" flags="0x0"/>
    </TTGlyph>
    <TTGlyph name="asciitilde.tosf" xMin="4" yMin="232" xMax="488" yMax="410">
      <component glyphName="asciitilde" x="-14" y="0" flags="0x0"/>
    </TTGlyph>
    <TTGlyph name="asterisk" xMin="43" yMin="329" xMax="471" yMax="742">
      <contour>
        <pt x="413" y="410" on="1"/>
        <pt x="295" y="330" on="1"/>
        <pt x="246" y="456" on="1"/>
        <pt x="165" y="329" on="1"/>
        <pt x="67" y="409" on="1"/>
        <pt x="180" y="512" on="1"/>
        <pt x="43" y="535" on="1"/>
        <pt x="100" y="659" on="1"/>
        <pt x="220" y="598" on="1"/>
        <pt x="216" y="742" on="1"/>
        <pt x="357" y="742" on="1"/>
        <pt x="314" y="599" on="1"/>
        <pt x="446" y="662" on="1"/>
        <pt x="471" y="535" on="1"/>
        <pt x="328" y="512" on="1"/>
      </contour>
    </TTGlyph>
    <TTGlyph name="at" xMin="41" yMin="-222" xMax="970" yMax="710">
      <contour>
        <pt x="695" y="710" on="0"/>
        <pt x="876" y="616" on="0"/>
        <pt x="970" y="455" on="0"/>
        <pt x="970" y="356" on="1"/>
        <pt x="970" y="278" on="0"/>
        <pt x="918" y="115" on="0"/>
        <pt x="806" y="4" on="0"/>
        <pt x="722" y="4" on="1"/>
        <pt x="685" y="4" on="0"/>
        <pt x="627" y="33" on="0"/>
        <pt x="594" y="79" on="0"/>
        <pt x="592" y="103" on="1"/>
        <pt x="567" y="59" on="0"/>
        <pt x="493" y="8" on="0"/>
        <pt x="444" y="8" on="1"/>
        <pt x="365" y="8" on="0"/>
        <pt x="284" y="102" on="0"/>
        <pt x="284" y="182" on="1"/>
        <pt x="284" y="255" on="0"/>
        <pt x="337" y="402" on="0"/>
        <pt x="457" y="503" on="0"/>
        <pt x="552" y="503" on="1"/>
        <pt x="594" y="503" on="0"/>
        <pt x="682" y="479" on="0"/>
        <pt x="718" y="457" on="1"/>
        <pt x="680" y="163" on="1"/>
        <pt x="679" y="145" on="1"/>
        <pt x="679" y="103" on="0"/>
        <pt x="716" y="102" on="1"/>
        <pt x="755" y="102" on="0"/>
        <pt x="807" y="187" on="0"/>
        <pt x="831" y="308" on="0"/>
        <pt x="831" y="364" on="1"/>
        <pt x="831" y="477" on="0"/>
        <pt x="695" y="595" on="0"/>
        <pt x="561" y="595" on="1"/>
        <pt x="423" y="595" on="0"/>
        <pt x="254" y="469" on="0"/>
        <pt x="183" y="283" on="0"/>
        <pt x="183" y="186" on="1"/>
        <pt x="183" y="100" on="0"/>
        <pt x="252" y="-31" on="0"/>
        <pt x="386" y="-105" on="0"/>
        <pt x="482" y="-105" on="1"/>
        <pt x="526" y="-105" on="0"/>
        <pt x="629" y="-85" on="0"/>
        <pt x="670" y="-70" on="1"/>
        <pt x="695" y="-181" on="1"/>
        <pt x="644" y="-200" on="0"/>
        <pt x="525" y="-222" on="0"/>
        <pt x="470" y="-222" on="1"/>
        <pt x="340" y="-222" on="0"/>
        <pt x="146" y="-119" on="0"/>
        <pt x="41" y="65" on="0"/>
        <pt x="41" y="183" on="1"/>
        <pt x="41" y="304" on="0"/>
        <pt x="152" y="547" on="0"/>
        <pt x="391" y="710" on="0"/>
        <pt x="571" y="710" on="1"/>
      </contour>
      <contour>
        <pt x="515" y="107" on="0"/>
        <pt x="546" y="161" on="1"/>
        <pt x="580" y="395" on="1"/>
        <pt x="561" y="403" on="0"/>
        <pt x="539" y="403" on="1"/>
        <pt x="477" y="403" on="0"/>
        <pt x="423" y="258" on="0"/>
        <pt x="423" y="170" on="1"/>
        <pt x="423" y="107" on="0"/>
        <pt x="470" y="107" on="1"/>
      </contour>
    </TTGlyph>
    <TTGlyph name="atilde" xMin="25" yMin="-17" xMax="558" yMax="792">
      <component glyphName="a" x="0" y="0" flags="0x0"/>
      <component glyphName="tilde" x="91" y="0" flags="0x0"/>
    </TTGlyph>
    <TTGlyph name="atilde.sc" xMin="-51" yMin="0" xMax="514" yMax="822">
      <component glyphName="a.sc" x="0" y="0" flags="0x0"/>
      <component glyphName="tilde.sc" x="66" y="0" flags="0x0"/>
    </TTGlyph>
    <TTGlyph name="b" xMin="28" yMin="-17" xMax="555" yMax="759">
      <contour>
        <pt x="276" y="515" on="0"/>
        <pt x="354" y="548" on="0"/>
        <pt x="392" y="548" on="1"/>
        <pt x="472" y="548" on="0"/>
        <pt x="555" y="441" on="0"/>
        <pt x="555" y="341" on="1"/>
        <pt x="555" y="253" on="0"/>
        <pt x="499" y="92" on="0"/>
        <pt x="360" y="-17" on="0"/>
        <pt x="245" y="-17" on="1"/>
        <pt x="141" y="-17" on="0"/>
        <pt x="28" y="27" on="1"/>
        <pt x="128" y="742" on="1"/>
        <pt x="285" y="759" on="1"/>
        <pt x="247" y="486" on="1"/>
      </contour>
      <contour>
        <pt x="279" y="432" on="0"/>
        <pt x="231" y="371" on="1"/>
        <pt x="195" y="111" on="1"/>
        <pt x="228" y="98" on="0"/>
        <pt x="262" y="98" on="1"/>
        <pt x="308" y="98" on="0"/>
        <pt x="368" y="172" on="0"/>
        <pt x="396" y="283" on="0"/>
        <pt x="396" y="338" on="1"/>
        <pt x="396" y="390" on="0"/>
        <pt x="362" y="432" on="0"/>
        <pt x="332" y="432" on="1"/>
      </contour>
    </TTGlyph>
    <TTGlyph name="b.sc" xMin="27" yMin="0" xMax="525" yMax="569">
      <contour>
        <pt x="409" y="569" on="0"/>
        <pt x="525" y="506" on="0"/>
        <pt x="525" y="436" on="1"/>
        <pt x="525" y="377" on="0"/>
        <pt x="452" y="311" on="0"/>
        <pt x="398" y="300" on="1"/>
        <pt x="448" y="293" on="0"/>
        <pt x="513" y="233" on="0"/>
        <pt x="513" y="180" on="1"/>
        <pt x="513" y="95" on="0"/>
        <pt x="381" y="0" on="0"/>
        <pt x="228" y="0" on="1"/>
        <pt x="27" y="0" on="1"/>
        <pt x="107" y="569" on="1"/>
        <pt x="293" y="569" on="1"/>
      </contour>
      <contour>
        <pt x="230" y="347" on="1"/>
        <pt x="274" y="347" on="1"/>
        <pt x="364" y="347" on="0"/>
        <pt x="364" y="416" on="1"/>
        <pt x="364" y="439" on="0"/>
        <pt x="326" y="460" on="0"/>
        <pt x="282" y="460" on="1"/>
        <pt x="245" y="460" on="1"/>
      </contour>
      <contour>
        <pt x="197" y="111" on="1"/>
        <pt x="240" y="111" on="1"/>
        <pt x="303" y="111" on="0"/>
        <pt x="354" y="154" on="0"/>
        <pt x="354" y="192" on="1"/>
        <pt x="354" y="221" on="0"/>
        <pt x="312" y="246" on="0"/>
        <pt x="270" y="246" on="1"/>
        <pt x="216" y="246" on="1"/>
      </contour>
    </TTGlyph>
    <TTGlyph name="backslash" xMin="145" yMin="-112" xMax="390" yMax="816">
      <contour>
        <pt x="250" y="-112" on="1"/>
        <pt x="145" y="785" on="1"/>
        <pt x="283" y="816" on="1"/>
        <pt x="390" y="-81" on="1"/>
      </contour>
    </TTGlyph>
    <TTGlyph name="bar" xMin="59" yMin="-105" xMax="332" yMax="810">
      <contour>
        <pt x="59" y="-105" on="1"/>
        <pt x="187" y="810" on="1"/>
        <pt x="332" y="810" on="1"/>
        <pt x="204" y="-105" on="1"/>
      </contour>
    </TTGlyph>
    <TTGlyph name="beta" xMin="-8" yMin="-223" xMax="567" yMax="759">
      <contour>
        <pt x="417" y="759" on="0"/>
        <pt x="511" y="715" on="0"/>
        <pt x="561" y="638" on="0"/>
        <pt x="561" y="589" on="1"/>
        <pt x="561" y="527" on="0"/>
        <pt x="484" y="421" on="0"/>
        <pt x="400" y="403" on="1"/>
        <pt x="467" y="399" on="0"/>
        <pt x="567" y="319" on="0"/>
        <pt x="567" y="239" on="1"/>
        <pt x="567" y="182" on="0"/>
        <pt x="513" y="63" on="0"/>
        <pt x="399" y="-17" on="0"/>
        <pt x="314" y="-17" on="1"/>
        <pt x="231" y="-17" on="0"/>
        <pt x="178" y="28" on="1"/>
        <pt x="146" y="-202" on="1"/>
        <pt x="-8" y="-223" on="1"/>
        <pt x="100" y="548" on="1"/>
        <pt x="114" y="647" on="0"/>
        <pt x="252" y="759" on="0"/>
        <pt x="354" y="759" on="1"/>
      </contour>
      <contour>
        <pt x="306" y="647" on="0"/>
        <pt x="257" y="596" on="0"/>
        <pt x="250" y="545" on="1"/>
        <pt x="192" y="131" on="1"/>
        <pt x="229" y="104" on="0"/>
        <pt x="284" y="104" on="1"/>
        <pt x="350" y="104" on="0"/>
        <pt x="411" y="191" on="0"/>
        <pt x="411" y="246" on="1"/>
        <pt x="411" y="344" on="0"/>
        <pt x="301" y="344" on="1"/>
        <pt x="261" y="344" on="1"/>
        <pt x="286" y="451" on="1"/>
        <pt x="309" y="451" on="1"/>
        <pt x="359" y="451" on="0"/>
        <pt x="409" y="532" on="0"/>
        <pt x="409" y="578" on="1"/>
        <pt x="409" y="613" on="0"/>
        <pt x="376" y="647" on="0"/>
        <pt x="345" y="647" on="1"/>
      </contour>
    </TTGlyph>
    <TTGlyph name="beta.sc" xMin="27" yMin="0" xMax="525" yMax="569">
      <component glyphName="b.sc" x="0" y="0" flags="0x0"/>
    </TTGlyph>
    <TTGlyph name="braceleft" xMin="8" yMin="-140" xMax="370" yMax="840">
      <contour>
        <pt x="313" y="730" on="0"/>
        <pt x="277" y="702" on="0"/>
        <pt x="272" y="668" on="1"/>
        <pt x="246" y="482" on="1"/>
        <pt x="238" y="419" on="0"/>
        <pt x="181" y="362" on="0"/>
        <pt x="126" y="348" on="1"/>
        <pt x="168" y="339" on="0"/>
        <pt x="212" y="295" on="0"/>
        <pt x="212" y="249" on="1"/>
        <pt x="212" y="227" on="0"/>
        <pt x="210" y="214" on="1"/>
        <pt x="183" y="28" on="1"/>
        <pt x="182" y="22" on="0"/>
        <pt x="182" y="11" on="1"/>
        <pt x="182" y="-12" on="0"/>
        <pt x="211" y="-30" on="0"/>
        <pt x="247" y="-30" on="1"/>
        <pt x="235" y="-140" on="1"/>
        <pt x="131" y="-140" on="0"/>
        <pt x="35" y="-73" on="0"/>
        <pt x="35" y="-6" on="1"/>
        <pt x="35" y="3" on="0"/>
        <pt x="37" y="27" on="1"/>
        <pt x="62" y="206" on="1"/>
        <pt x="65" y="224" on="0"/>
        <pt x="65" y="238" on="1"/>
        <pt x="65" y="264" on="0"/>
        <pt x="40" y="285" on="0"/>
        <pt x="8" y="285" on="1"/>
        <pt x="26" y="414" on="1"/>
        <pt x="63" y="414" on="0"/>
        <pt x="98" y="453" on="0"/>
        <pt x="104" y="498" on="1"/>
        <pt x="129" y="677" on="1"/>
        <pt x="137" y="735" on="0"/>
        <pt x="183" y="805" on="0"/>
        <pt x="283" y="840" on="0"/>
        <pt x="370" y="840" on="1"/>
        <pt x="356" y="730" on="1"/>
      </contour>
    </TTGlyph>
    <TTGlyph name="braceleft.case" xMin="7" yMin="-150" xMax="369" yMax="830">
      <component glyphName="braceleft" x="-1" y="-10" flags="0x0"/>
    </TTGlyph>
    <TTGlyph name="braceright" xMin="-32" yMin="-140" xMax="330" yMax="840">
      <contour>
        <pt x="24" y="-30" on="0"/>
        <pt x="60" y="-2" on="0"/>
        <pt x="65" y="32" on="1"/>
        <pt x="91" y="218" on="1"/>
        <pt x="100" y="281" on="0"/>
        <pt x="157" y="338" on="0"/>
        <pt x="212" y="352" on="1"/>
        <pt x="169" y="362" on="0"/>
        <pt x="126" y="406" on="0"/>
        <pt x="126" y="452" on="1"/>
        <pt x="126" y="474" on="0"/>
        <pt x="128" y="486" on="1"/>
        <pt x="154" y="672" on="1"/>
        <pt x="156" y="679" on="0"/>
        <pt x="156" y="689" on="1"/>
        <pt x="156" y="712" on="0"/>
        <pt x="127" y="730" on="0"/>
        <pt x="90" y="730" on="1"/>
        <pt x="102" y="840" on="1"/>
        <pt x="207" y="840" on="0"/>
        <pt x="303" y="773" on="0"/>
        <pt x="303" y="706" on="1"/>
        <pt x="303" y="691" on="0"/>
        <pt x="300" y="673" on="1"/>
        <pt x="275" y="494" on="1"/>
        <pt x="273" y="470" on="0"/>
        <pt x="273" y="463" on="1"/>
        <pt x="273" y="437" on="0"/>
        <pt x="298" y="415" on="0"/>
        <pt x="330" y="415" on="1"/>
        <pt x="311" y="286" on="1"/>
        <pt x="274" y="286" on="0"/>
        <pt x="240" y="247" on="0"/>
        <pt x="234" y="202" on="1"/>
        <pt x="209" y="23" on="1"/>
        <pt x="200" y="-35" on="0"/>
        <pt x="154" y="-105" on="0"/>
        <pt x="55" y="-140" on="0"/>
        <pt x="-32" y="-140" on="1"/>
        <pt x="-19" y="-30" on="1"/>
      </contour>
    </TTGlyph>
    <TTGlyph name="braceright.case" xMin="-33" yMin="-150" xMax="329" yMax="830">
      <component glyphName="braceright" x="-1" y="-10" flags="0x0"/>
    </TTGlyph>
    <TTGlyph name="bracketleft" xMin="-24" yMin="-123" xMax="370" yMax="823">
      <contour>
        <pt x="240" y="705" on="1"/>
        <pt x="140" y="-6" on="1"/>
        <pt x="254" y="-6" on="1"/>
        <pt x="237" y="-123" on="1"/>
        <pt x="-24" y="-123" on="1"/>
        <pt x="110" y="823" on="1"/>
        <pt x="370" y="823" on="1"/>
        <pt x="354" y="705" on="1"/>
      </contour>
    </TTGlyph>
    <TTGlyph name="bracketleft.case" xMin="-25" yMin="-133" xMax="369" yMax="813">
      <component glyphName="bracketleft" x="-1" y="-10" flags="0x0"/>
    </TTGlyph>
    <TTGlyph name="bracketright" xMin="-32" yMin="-123" xMax="362" yMax="823">
      <contour>
        <pt x="-32" y="-123" on="1"/>
        <pt x="-16" y="-5" on="1"/>
        <pt x="98" y="-5" on="1"/>
        <pt x="198" y="705" on="1"/>
        <pt x="84" y="705" on="1"/>
        <pt x="101" y="823" on="1"/>
        <pt x="362" y="823" on="1"/>
        <pt x="229" y="-123" on="1"/>
      </contour>
    </TTGlyph>
    <TTGlyph name="bracketright.case" xMin="-33" yMin="-133" xMax="361" yMax="813">
      <component glyphName="bracketright" x="-1" y="-10" flags="0x0"/>
    </TTGlyph>
    <TTGlyph name="breve" xMin="100" yMin="632" xMax="442" yMax="822">
      <contour>
        <pt x="176" y="632" on="0"/>
        <pt x="100" y="731" on="0"/>
        <pt x="103" y="806" on="1"/>
        <pt x="190" y="819" on="1"/>
        <pt x="198" y="742" on="0"/>
        <pt x="261" y="742" on="1"/>
        <pt x="295" y="742" on="0"/>
        <pt x="344" y="784" on="0"/>
        <pt x="358" y="822" on="1"/>
        <pt x="442" y="803" on="1"/>
        <pt x="426" y="728" on="0"/>
        <pt x="325" y="632" on="0"/>
        <pt x="251" y="632" on="1"/>
      </contour>
    </TTGlyph>
    <TTGlyph name="breve.case" xMin="116" yMin="751" xMax="457" yMax="930">
      <contour>
        <pt x="193" y="751" on="0"/>
        <pt x="116" y="846" on="0"/>
        <pt x="119" y="915" on="1"/>
        <pt x="204" y="927" on="1"/>
        <pt x="209" y="897" on="0"/>
        <pt x="245" y="860" on="0"/>
        <pt x="276" y="860" on="1"/>
        <pt x="309" y="860" on="0"/>
        <pt x="357" y="899" on="0"/>
        <pt x="371" y="930" on="1"/>
        <pt x="457" y="911" on="1"/>
        <pt x="442" y="843" on="0"/>
        <pt x="341" y="751" on="0"/>
        <pt x="267" y="751" on="1"/>
      </contour>
    </TTGlyph>
    <TTGlyph name="breve.sc" xMin="86" yMin="663" xMax="428" yMax="852">
      <contour>
        <pt x="162" y="663" on="0"/>
        <pt x="86" y="761" on="0"/>
        <pt x="89" y="837" on="1"/>
        <pt x="176" y="849" on="1"/>
        <pt x="184" y="773" on="0"/>
        <pt x="247" y="773" on="1"/>
        <pt x="281" y="773" on="0"/>
        <pt x="330" y="815" on="0"/>
        <pt x="344" y="852" on="1"/>
        <pt x="428" y="833" on="1"/>
        <pt x="412" y="758" on="0"/>
        <pt x="311" y="663" on="0"/>
        <pt x="237" y="663" on="1"/>
      </contour>
    </TTGlyph>
    <TTGlyph name="brevecy" xMin="99" yMin="632" xMax="440" yMax="803">
      <contour>
        <pt x="178" y="632" on="0"/>
        <pt x="99" y="718" on="0"/>
        <pt x="101" y="788" on="1"/>
        <pt x="187" y="800" on="1"/>
        <pt x="191" y="769" on="0"/>
        <pt x="227" y="742" on="0"/>
        <pt x="261" y="742" on="1"/>
        <pt x="296" y="742" on="0"/>
        <pt x="342" y="772" on="0"/>
        <pt x="355" y="803" on="1"/>
        <pt x="440" y="784" on="1"/>
        <pt x="425" y="714" on="0"/>
        <pt x="327" y="632" on="0"/>
        <pt x="253" y="632" on="1"/>
      </contour>
    </TTGlyph>
    <TTGlyph name="brevecy.case" xMin="75" yMin="759" xMax="415" yMax="929">
      <contour>
        <pt x="153" y="759" on="0"/>
        <pt x="75" y="845" on="0"/>
        <pt x="77" y="914" on="1"/>
        <pt x="163" y="927" on="1"/>
        <pt x="167" y="896" on="0"/>
        <pt x="203" y="869" on="0"/>
        <pt x="237" y="869" on="1"/>
        <pt x="272" y="869" on="0"/>
        <pt x="317" y="898" on="0"/>
        <pt x="330" y="929" on="1"/>
        <pt x="415" y="911" on="1"/>
        <pt x="400" y="841" on="0"/>
        <pt x="303" y="759" on="0"/>
        <pt x="228" y="759" on="1"/>
      </contour>
    </TTGlyph>
    <TTGlyph name="brevecy.sc" xMin="80" yMin="663" xMax="420" yMax="833">
      <contour>
        <pt x="158" y="663" on="0"/>
        <pt x="80" y="748" on="0"/>
        <pt x="82" y="818" on="1"/>
        <pt x="167" y="831" on="1"/>
        <pt x="171" y="800" on="0"/>
        <pt x="207" y="773" on="0"/>
        <pt x="241" y="773" on="1"/>
        <pt x="276" y="773" on="0"/>
        <pt x="322" y="802" on="0"/>
        <pt x="335" y="833" on="1"/>
        <pt x="420" y="815" on="1"/>
        <pt x="405" y="745" on="0"/>
        <pt x="308" y="663" on="0"/>
        <pt x="233" y="663" on="1"/>
      </contour>
    </TTGlyph>
    <TTGlyph name="brokenbar" xMin="59" yMin="-105" xMax="332" yMax="810">
      <contour>
        <pt x="135" y="443" on="1"/>
        <pt x="187" y="810" on="1"/>
        <pt x="332" y="810" on="1"/>
        <pt x="281" y="443" on="1"/>
      </contour>
      <contour>
        <pt x="59" y="-105" on="1"/>
        <pt x="110" y="262" on="1"/>
        <pt x="256" y="262" on="1"/>
        <pt x="204" y="-105" on="1"/>
      </contour>
    </TTGlyph>
    <TTGlyph name="bullet" xMin="42" yMin="203" xMax="316" yMax="480">
      <contour>
        <pt x="249" y="480" on="0"/>
        <pt x="316" y="412" on="0"/>
        <pt x="316" y="360" on="1"/>
        <pt x="316" y="317" on="0"/>
        <pt x="274" y="245" on="0"/>
        <pt x="203" y="203" on="0"/>
        <pt x="162" y="203" on="1"/>
        <pt x="109" y="203" on="0"/>
        <pt x="42" y="271" on="0"/>
        <pt x="42" y="324" on="1"/>
        <pt x="42" y="367" on="0"/>
        <pt x="84" y="439" on="0"/>
        <pt x="155" y="480" on="0"/>
        <pt x="196" y="480" on="1"/>
      </contour>
    </TTGlyph>
    <TTGlyph name="bulletoperator" xMin="36" yMin="218" xMax="214" yMax="398">
      <component glyphName="periodcentered" x="0" y="0" flags="0x0"/>
    </TTGlyph>
    <TTGlyph name="c" xMin="26" yMin="-17" xMax="493" yMax="548">
      <contour>
        <pt x="427" y="548" on="0"/>
        <pt x="493" y="480" on="1"/>
        <pt x="417" y="390" on="1"/>
        <pt x="395" y="410" on="0"/>
        <pt x="351" y="427" on="0"/>
        <pt x="324" y="427" on="1"/>
        <pt x="251" y="427" on="0"/>
        <pt x="189" y="292" on="0"/>
        <pt x="189" y="206" on="1"/>
        <pt x="189" y="153" on="0"/>
        <pt x="232" y="108" on="0"/>
        <pt x="272" y="108" on="1"/>
        <pt x="299" y="108" on="0"/>
        <pt x="346" y="126" on="0"/>
        <pt x="378" y="145" on="1"/>
        <pt x="435" y="44" on="1"/>
        <pt x="352" y="-17" on="0"/>
        <pt x="253" y="-17" on="1"/>
        <pt x="146" y="-17" on="0"/>
        <pt x="26" y="106" on="0"/>
        <pt x="26" y="212" on="1"/>
        <pt x="26" y="288" on="0"/>
        <pt x="89" y="443" on="0"/>
        <pt x="223" y="548" on="0"/>
        <pt x="323" y="548" on="1"/>
      </contour>
    </TTGlyph>
    <TTGlyph name="c.sc" xMin="31" yMin="-15" xMax="526" yMax="582">
      <contour>
        <pt x="455" y="582" on="0"/>
        <pt x="526" y="511" on="1"/>
        <pt x="440" y="427" on="1"/>
        <pt x="399" y="468" on="0"/>
        <pt x="345" y="468" on="1"/>
        <pt x="290" y="468" on="0"/>
        <pt x="222" y="392" on="0"/>
        <pt x="192" y="282" on="0"/>
        <pt x="192" y="228" on="1"/>
        <pt x="192" y="165" on="0"/>
        <pt x="243" y="104" on="0"/>
        <pt x="290" y="104" on="1"/>
        <pt x="322" y="104" on="0"/>
        <pt x="377" y="129" on="0"/>
        <pt x="411" y="153" on="1"/>
        <pt x="473" y="57" on="1"/>
        <pt x="432" y="25" on="0"/>
        <pt x="328" y="-15" on="0"/>
        <pt x="270" y="-15" on="1"/>
        <pt x="159" y="-15" on="0"/>
        <pt x="31" y="113" on="0"/>
        <pt x="31" y="229" on="1"/>
        <pt x="31" y="314" on="0"/>
        <pt x="96" y="476" on="0"/>
        <pt x="236" y="582" on="0"/>
        <pt x="343" y="582" on="1"/>
      </contour>
    </TTGlyph>
    <TTGlyph name="cacute" xMin="26" yMin="-17" xMax="493" yMax="835">
      <component glyphName="c" x="0" y="0" flags="0x0"/>
      <component glyphName="acute" x="110" y="0" flags="0x0"/>
    </TTGlyph>
    <TTGlyph name="cacute.loclPLK" xMin="26" yMin="-17" xMax="493" yMax="809">
      <component glyphName="c" x="0" y="0" flags="0x0"/>
      <component glyphName="acute.loclPLK" x="119" y="0" flags="0x0"/>
    </TTGlyph>
    <TTGlyph name="cacute.sc" xMin="31" yMin="-15" xMax="546" yMax="865">
      <component glyphName="c.sc" x="0" y="0" flags="0x0"/>
      <component glyphName="acute.sc" x="193" y="0" flags="0x0"/>
    </TTGlyph>
    <TTGlyph name="cacute.sc.loclPLK" xMin="31" yMin="-15" xMax="526" yMax="854">
      <component glyphName="c.sc" x="0" y="0" flags="0x0"/>
      <component glyphName="acute.sc.loclPLK" x="117" y="0" flags="0x0"/>
    </TTGlyph>
    <TTGlyph name="capslock" xMin="60" yMin="-12" xMax="660" yMax="832">
      <contour>
        <pt x="60" y="534" on="1"/>
        <pt x="360" y="832" on="1"/>
        <pt x="660" y="534" on="1"/>
        <pt x="491" y="534" on="1"/>
        <pt x="491" y="255" on="1"/>
        <pt x="229" y="255" on="1"/>
        <pt x="229" y="534" on="1"/>
      </contour>
      <contour>
        <pt x="551" y="579" on="1"/>
        <pt x="360" y="768" on="1"/>
        <pt x="169" y="579" on="1"/>
        <pt x="276" y="579" on="1"/>
        <pt x="276" y="297" on="1"/>
        <pt x="444" y="297" on="1"/>
        <pt x="444" y="579" on="1"/>
      </contour>
      <contour>
        <pt x="491" y="16" on="0"/>
        <pt x="464" y="-12" on="0"/>
        <pt x="441" y="-12" on="1"/>
        <pt x="279" y="-12" on="1"/>
        <pt x="257" y="-12" on="0"/>
        <pt x="229" y="16" on="0"/>
        <pt x="229" y="38" on="1"/>
        <pt x="229" y="155" on="1"/>
        <pt x="491" y="155" on="1"/>
        <pt x="491" y="38" on="1"/>
      </contour>
      <contour>
        <pt x="444" y="32" on="1"/>
        <pt x="444" y="113" on="1"/>
        <pt x="276" y="113" on="1"/>
        <pt x="276" y="32" on="1"/>
      </contour>
    </TTGlyph>
    <TTGlyph name="caron" xMin="96" yMin="611" xMax="469" yMax="813">
      <contour>
        <pt x="312" y="611" on="1"/>
        <pt x="217" y="611" on="1"/>
        <pt x="96" y="748" on="1"/>
        <pt x="156" y="813" on="1"/>
        <pt x="274" y="722" on="1"/>
        <pt x="419" y="813" on="1"/>
        <pt x="469" y="748" on="1"/>
      </contour>
    </TTGlyph>
    <TTGlyph name="caron.alt" xMin="102" yMin="478" xMax="258" yMax="707">
      <contour>
        <pt x="182" y="478" on="1"/>
        <pt x="102" y="486" on="1"/>
        <pt x="143" y="707" on="1"/>
        <pt x="258" y="693" on="1"/>
      </contour>
    </TTGlyph>
    <TTGlyph name="caron.case" xMin="114" yMin="750" xMax="487" yMax="943">
      <contour>
        <pt x="331" y="750" on="1"/>
        <pt x="236" y="750" on="1"/>
        <pt x="114" y="879" on="1"/>
        <pt x="177" y="943" on="1"/>
        <pt x="295" y="859" on="1"/>
        <pt x="438" y="943" on="1"/>
        <pt x="487" y="879" on="1"/>
      </contour>
    </TTGlyph>
    <TTGlyph name="caron.sc" xMin="76" yMin="642" xMax="449" yMax="843">
      <contour>
        <pt x="292" y="642" on="1"/>
        <pt x="197" y="642" on="1"/>
        <pt x="76" y="778" on="1"/>
        <pt x="137" y="843" on="1"/>
        <pt x="254" y="752" on="1"/>
        <pt x="399" y="843" on="1"/>
        <pt x="449" y="778" on="1"/>
      </contour>
    </TTGlyph>
    <TTGlyph name="ccaron" xMin="26" yMin="-17" xMax="539" yMax="813">
      <component glyphName="c" x="0" y="0" flags="0x0"/>
      <component glyphName="caron" x="70" y="0" flags="0x0"/>
    </TTGlyph>
    <TTGlyph name="ccaron.sc" xMin="31" yMin="-15" xMax="566" yMax="843">
      <component glyphName="c.sc" x="0" y="0" flags="0x0"/>
      <component glyphName="caron.sc" x="116" y="0" flags="0x0"/>
    </TTGlyph>
    <TTGlyph name="ccedilla" xMin="26" yMin="-262" xMax="493" yMax="548">
      <contour>
        <pt x="362" y="-9" on="0"/>
        <pt x="277" y="-16" on="1"/>
        <pt x="272" y="-48" on="1"/>
        <pt x="317" y="-53" on="0"/>
        <pt x="363" y="-100" on="0"/>
        <pt x="363" y="-137" on="1"/>
        <pt x="363" y="-166" on="0"/>
        <pt x="330" y="-224" on="0"/>
        <pt x="258" y="-262" on="0"/>
        <pt x="202" y="-262" on="1"/>
        <pt x="169" y="-262" on="0"/>
        <pt x="113" y="-244" on="0"/>
        <pt x="94" y="-230" on="1"/>
        <pt x="139" y="-160" on="1"/>
        <pt x="166" y="-176" on="0"/>
        <pt x="197" y="-176" on="1"/>
        <pt x="221" y="-176" on="0"/>
        <pt x="251" y="-159" on="0"/>
        <pt x="251" y="-142" on="1"/>
        <pt x="251" y="-125" on="0"/>
        <pt x="212" y="-112" on="0"/>
        <pt x="165" y="-112" on="1"/>
        <pt x="190" y="-11" on="1"/>
        <pt x="112" y="6" on="0"/>
        <pt x="26" y="123" on="0"/>
        <pt x="26" y="212" on="1"/>
        <pt x="26" y="288" on="0"/>
        <pt x="89" y="443" on="0"/>
        <pt x="223" y="548" on="0"/>
        <pt x="323" y="548" on="1"/>
        <pt x="427" y="548" on="0"/>
        <pt x="493" y="480" on="1"/>
        <pt x="417" y="390" on="1"/>
        <pt x="395" y="410" on="0"/>
        <pt x="351" y="427" on="0"/>
        <pt x="324" y="427" on="1"/>
        <pt x="251" y="427" on="0"/>
        <pt x="189" y="292" on="0"/>
        <pt x="189" y="206" on="1"/>
        <pt x="189" y="153" on="0"/>
        <pt x="232" y="108" on="0"/>
        <pt x="272" y="108" on="1"/>
        <pt x="299" y="108" on="0"/>
        <pt x="346" y="126" on="0"/>
        <pt x="378" y="145" on="1"/>
        <pt x="435" y="44" on="1"/>
      </contour>
    </TTGlyph>
    <TTGlyph name="ccedilla.sc" xMin="31" yMin="-262" xMax="526" yMax="582">
      <contour>
        <pt x="437" y="28" on="0"/>
        <pt x="343" y="-11" on="0"/>
        <pt x="291" y="-15" on="1"/>
        <pt x="285" y="-48" on="1"/>
        <pt x="330" y="-53" on="0"/>
        <pt x="376" y="-100" on="0"/>
        <pt x="376" y="-136" on="1"/>
        <pt x="376" y="-166" on="0"/>
        <pt x="344" y="-224" on="0"/>
        <pt x="271" y="-262" on="0"/>
        <pt x="215" y="-262" on="1"/>
        <pt x="182" y="-262" on="0"/>
        <pt x="126" y="-244" on="0"/>
        <pt x="107" y="-230" on="1"/>
        <pt x="152" y="-159" on="1"/>
        <pt x="178" y="-176" on="0"/>
        <pt x="210" y="-176" on="1"/>
        <pt x="234" y="-176" on="0"/>
        <pt x="264" y="-159" on="0"/>
        <pt x="264" y="-142" on="1"/>
        <pt x="264" y="-125" on="0"/>
        <pt x="225" y="-112" on="0"/>
        <pt x="178" y="-112" on="1"/>
        <pt x="203" y="-9" on="1"/>
        <pt x="121" y="9" on="0"/>
        <pt x="31" y="131" on="0"/>
        <pt x="31" y="229" on="1"/>
        <pt x="31" y="314" on="0"/>
        <pt x="96" y="476" on="0"/>
        <pt x="236" y="582" on="0"/>
        <pt x="343" y="582" on="1"/>
        <pt x="455" y="582" on="0"/>
        <pt x="526" y="511" on="1"/>
        <pt x="440" y="427" on="1"/>
        <pt x="399" y="468" on="0"/>
        <pt x="345" y="468" on="1"/>
        <pt x="290" y="468" on="0"/>
        <pt x="222" y="392" on="0"/>
        <pt x="192" y="282" on="0"/>
        <pt x="192" y="228" on="1"/>
        <pt x="192" y="165" on="0"/>
        <pt x="243" y="104" on="0"/>
        <pt x="290" y="104" on="1"/>
        <pt x="322" y="104" on="0"/>
        <pt x="377" y="129" on="0"/>
        <pt x="411" y="153" on="1"/>
        <pt x="473" y="57" on="1"/>
      </contour>
    </TTGlyph>
    <TTGlyph name="ccircumflex" xMin="26" yMin="-17" xMax="530" yMax="822">
      <component glyphName="c" x="0" y="0" flags="0x0"/>
      <component glyphName="circumflex" x="70" y="0" flags="0x0"/>
    </TTGlyph>
    <TTGlyph name="ccircumflex.sc" xMin="31" yMin="-15" xMax="567" yMax="852">
      <component glyphName="c.sc" x="0" y="0" flags="0x0"/>
      <component glyphName="circumflex.sc" x="126" y="0" flags="0x0"/>
    </TTGlyph>
    <TTGlyph name="cdotaccent" xMin="26" yMin="-17" xMax="493" yMax="811">
      <component glyphName="c" x="0" y="0" flags="0x0"/>
      <component glyphName="dotaccent" x="166" y="0" flags="0x0"/>
    </TTGlyph>
    <TTGlyph name="cdotaccent.sc" xMin="31" yMin="-15" xMax="526" yMax="841">
      <component glyphName="c.sc" x="0" y="0" flags="0x0"/>
      <component glyphName="dotaccent.sc" x="197" y="0" flags="0x0"/>
    </TTGlyph>
    <TTGlyph name="cedilla" xMin="-42" yMin="-262" xMax="227" yMax="16">
      <contour>
        <pt x="181" y="-53" on="0"/>
        <pt x="227" y="-100" on="0"/>
        <pt x="227" y="-136" on="1"/>
        <pt x="227" y="-166" on="0"/>
        <pt x="195" y="-224" on="0"/>
        <pt x="122" y="-262" on="0"/>
        <pt x="66" y="-262" on="1"/>
        <pt x="3" y="-262" on="0"/>
        <pt x="-42" y="-230" on="1"/>
        <pt x="3" y="-159" on="1"/>
        <pt x="29" y="-176" on="0"/>
        <pt x="61" y="-176" on="1"/>
        <pt x="85" y="-176" on="0"/>
        <pt x="115" y="-159" on="0"/>
        <pt x="115" y="-142" on="1"/>
        <pt x="115" y="-126" on="0"/>
        <pt x="76" y="-112" on="0"/>
        <pt x="29" y="-112" on="1"/>
        <pt x="61" y="16" on="1"/>
        <pt x="147" y="16" on="1"/>
        <pt x="136" y="-48" on="1"/>
      </contour>
    </TTGlyph>
    <TTGlyph name="cedilla.case" xMin="-57" yMin="-262" xMax="212" yMax="16">
      <contour>
        <pt x="166" y="-53" on="0"/>
        <pt x="212" y="-100" on="0"/>
        <pt x="212" y="-137" on="1"/>
        <pt x="212" y="-166" on="0"/>
        <pt x="179" y="-224" on="0"/>
        <pt x="107" y="-262" on="0"/>
        <pt x="51" y="-262" on="1"/>
        <pt x="18" y="-262" on="0"/>
        <pt x="-38" y="-244" on="0"/>
        <pt x="-57" y="-230" on="1"/>
        <pt x="-12" y="-160" on="1"/>
        <pt x="17" y="-176" on="0"/>
        <pt x="47" y="-176" on="1"/>
        <pt x="70" y="-176" on="0"/>
        <pt x="100" y="-159" on="0"/>
        <pt x="100" y="-142" on="1"/>
        <pt x="100" y="-125" on="0"/>
        <pt x="61" y="-112" on="0"/>
        <pt x="14" y="-112" on="1"/>
        <pt x="46" y="16" on="1"/>
        <pt x="132" y="16" on="1"/>
        <pt x="121" y="-48" on="1"/>
      </contour>
    </TTGlyph>
    <TTGlyph name="cedilla.sc" xMin="-42" yMin="-262" xMax="227" yMax="16">
      <contour>
        <pt x="181" y="-53" on="0"/>
        <pt x="227" y="-100" on="0"/>
        <pt x="227" y="-136" on="1"/>
        <pt x="227" y="-166" on="0"/>
        <pt x="195" y="-224" on="0"/>
        <pt x="122" y="-262" on="0"/>
        <pt x="66" y="-262" on="1"/>
        <pt x="3" y="-262" on="0"/>
        <pt x="-42" y="-230" on="1"/>
        <pt x="3" y="-159" on="1"/>
        <pt x="29" y="-176" on="0"/>
        <pt x="61" y="-176" on="1"/>
        <pt x="85" y="-176" on="0"/>
        <pt x="115" y="-159" on="0"/>
        <pt x="115" y="-142" on="1"/>
        <pt x="115" y="-126" on="0"/>
        <pt x="76" y="-112" on="0"/>
        <pt x="29" y="-112" on="1"/>
        <pt x="61" y="16" on="1"/>
        <pt x="147" y="16" on="1"/>
        <pt x="136" y="-48" on="1"/>
      </contour>
    </TTGlyph>
    <TTGlyph name="cent" xMin="26" yMin="-161" xMax="493" yMax="691">
      <contour>
        <pt x="366" y="-7" on="0"/>
        <pt x="288" y="-15" on="1"/>
        <pt x="267" y="-161" on="1"/>
        <pt x="154" y="-161" on="1"/>
        <pt x="177" y="-7" on="1"/>
        <pt x="105" y="12" on="0"/>
        <pt x="26" y="127" on="0"/>
        <pt x="26" y="212" on="1"/>
        <pt x="26" y="278" on="0"/>
        <pt x="74" y="416" on="0"/>
        <pt x="177" y="523" on="0"/>
        <pt x="254" y="541" on="1"/>
        <pt x="275" y="691" on="1"/>
        <pt x="386" y="691" on="1"/>
        <pt x="366" y="545" on="1"/>
        <pt x="440" y="533" on="0"/>
        <pt x="493" y="480" on="1"/>
        <pt x="417" y="390" on="1"/>
        <pt x="395" y="410" on="0"/>
        <pt x="351" y="427" on="0"/>
        <pt x="324" y="427" on="1"/>
        <pt x="251" y="427" on="0"/>
        <pt x="189" y="292" on="0"/>
        <pt x="189" y="206" on="1"/>
        <pt x="189" y="153" on="0"/>
        <pt x="232" y="108" on="0"/>
        <pt x="272" y="108" on="1"/>
        <pt x="299" y="108" on="0"/>
        <pt x="346" y="126" on="0"/>
        <pt x="378" y="145" on="1"/>
        <pt x="435" y="44" on="1"/>
      </contour>
    </TTGlyph>
    <TTGlyph name="cent.osf" xMin="26" yMin="-161" xMax="493" yMax="691">
      <component glyphName="cent" x="0" y="0" flags="0x0"/>
    </TTGlyph>
    <TTGlyph name="cent.tf" xMin="17" yMin="-161" xMax="484" yMax="692">
      <contour>
        <pt x="355" y="-7" on="0"/>
        <pt x="278" y="-15" on="1"/>
        <pt x="258" y="-161" on="1"/>
        <pt x="145" y="-161" on="1"/>
        <pt x="167" y="-7" on="1"/>
        <pt x="95" y="12" on="0"/>
        <pt x="17" y="127" on="0"/>
        <pt x="17" y="211" on="1"/>
        <pt x="17" y="278" on="0"/>
        <pt x="65" y="417" on="0"/>
        <pt x="167" y="524" on="0"/>
        <pt x="244" y="541" on="1"/>
        <pt x="266" y="692" on="1"/>
        <pt x="377" y="692" on="1"/>
        <pt x="356" y="545" on="1"/>
        <pt x="430" y="533" on="0"/>
        <pt x="484" y="481" on="1"/>
        <pt x="407" y="390" on="1"/>
        <pt x="367" y="427" on="0"/>
        <pt x="315" y="427" on="1"/>
        <pt x="242" y="427" on="0"/>
        <pt x="180" y="292" on="0"/>
        <pt x="180" y="206" on="1"/>
        <pt x="180" y="153" on="0"/>
        <pt x="223" y="108" on="0"/>
        <pt x="263" y="108" on="1"/>
        <pt x="290" y="108" on="0"/>
        <pt x="336" y="125" on="0"/>
        <pt x="368" y="145" on="1"/>
        <pt x="426" y="43" on="1"/>
      </contour>
    </TTGlyph>
    <TTGlyph name="cent.tosf" xMin="-20" yMin="-161" xMax="447" yMax="692">
      <component glyphName="cent.tf" x="-37" y="0" flags="0x0"/>
    </TTGlyph>
    <TTGlyph name="chi" xMin="-88" yMin="-221" xMax="510" yMax="544">
      <contour>
        <pt x="427" y="-196" on="1"/>
        <pt x="270" y="-221" on="1"/>
        <pt x="208" y="65" on="1"/>
        <pt x="69" y="-221" on="1"/>
        <pt x="-88" y="-204" on="1"/>
        <pt x="145" y="183" on="1"/>
        <pt x="101" y="318" on="0"/>
        <pt x="46" y="450" on="0"/>
        <pt x="7" y="499" on="1"/>
        <pt x="164" y="543" on="1"/>
        <pt x="195" y="485" on="0"/>
        <pt x="226" y="395" on="0"/>
        <pt x="242" y="299" on="1"/>
        <pt x="349" y="544" on="1"/>
        <pt x="510" y="528" on="1"/>
        <pt x="306" y="183" on="1"/>
      </contour>
    </TTGlyph>
    <TTGlyph name="chi.sc" xMin="-42" yMin="0" xMax="541" yMax="569">
      <component glyphName="x.sc" x="0" y="0" flags="0x0"/>
    </TTGlyph>
    <TTGlyph name="circumflex" xMin="87" yMin="620" xMax="460" yMax="822">
      <contour>
        <pt x="245" y="822" on="1"/>
        <pt x="340" y="822" on="1"/>
        <pt x="460" y="685" on="1"/>
        <pt x="397" y="620" on="1"/>
        <pt x="279" y="712" on="1"/>
        <pt x="137" y="620" on="1"/>
        <pt x="87" y="685" on="1"/>
      </contour>
    </TTGlyph>
    <TTGlyph name="circumflex.case" xMin="106" yMin="755" xMax="479" yMax="949">
      <contour>
        <pt x="157" y="755" on="1"/>
        <pt x="106" y="820" on="1"/>
        <pt x="263" y="949" on="1"/>
        <pt x="358" y="949" on="1"/>
        <pt x="479" y="820" on="1"/>
        <pt x="418" y="755" on="1"/>
        <pt x="299" y="839" on="1"/>
      </contour>
    </TTGlyph>
    <TTGlyph name="circumflex.sc" xMin="67" yMin="651" xMax="440" yMax="852">
      <contour>
        <pt x="225" y="852" on="1"/>
        <pt x="320" y="852" on="1"/>
        <pt x="440" y="715" on="1"/>
        <pt x="377" y="651" on="1"/>
        <pt x="259" y="742" on="1"/>
        <pt x="117" y="651" on="1"/>
        <pt x="67" y="715" on="1"/>
      </contour>
    </TTGlyph>
    <TTGlyph name="clear" xMin="100" yMin="-12" xMax="1140" yMax="713">
      <contour>
        <pt x="128" y="-12" on="0"/>
        <pt x="100" y="16" on="0"/>
        <pt x="100" y="38" on="1"/>
        <pt x="100" y="663" on="1"/>
        <pt x="100" y="686" on="0"/>
        <pt x="128" y="713" on="0"/>
        <pt x="150" y="713" on="1"/>
        <pt x="1090" y="713" on="1"/>
        <pt x="1113" y="713" on="0"/>
        <pt x="1140" y="686" on="0"/>
        <pt x="1140" y="663" on="1"/>
        <pt x="1140" y="38" on="1"/>
        <pt x="1140" y="16" on="0"/>
        <pt x="1113" y="-12" on="0"/>
        <pt x="1090" y="-12" on="1"/>
        <pt x="150" y="-12" on="1"/>
      </contour>
      <contour>
        <pt x="620" y="288" on="1"/>
        <pt x="774" y="134" on="1"/>
        <pt x="841" y="201" on="1"/>
        <pt x="687" y="355" on="1"/>
        <pt x="841" y="508" on="1"/>
        <pt x="774" y="577" on="1"/>
        <pt x="620" y="422" on="1"/>
        <pt x="466" y="577" on="1"/>
        <pt x="399" y="508" on="1"/>
        <pt x="553" y="355" on="1"/>
        <pt x="399" y="201" on="1"/>
        <pt x="466" y="134" on="1"/>
      </contour>
    </TTGlyph>
    <TTGlyph name="colon" xMin="3" yMin="-17" xMax="230" yMax="509">
      <component glyphName="period" x="0" y="0" flags="0x0"/>
      <component glyphName="period" x="48" y="345" flags="0x0"/>
    </TTGlyph>
    <TTGlyph name="comma" xMin="-34" yMin="-177" xMax="183" yMax="164">
      <contour>
        <pt x="138" y="164" on="0"/>
        <pt x="183" y="119" on="0"/>
        <pt x="183" y="85" on="1"/>
        <pt x="183" y="61" on="0"/>
        <pt x="164" y="13" on="0"/>
        <pt x="137" y="-34" on="1"/>
        <pt x="54" y="-177" on="1"/>
        <pt x="-34" y="-177" on="1"/>
        <pt x="34" y="1" on="1"/>
        <pt x="5" y="22" on="0"/>
        <pt x="5" y="62" on="1"/>
        <pt x="5" y="104" on="0"/>
        <pt x="62" y="164" on="0"/>
        <pt x="104" y="164" on="1"/>
      </contour>
    </TTGlyph>
    <TTGlyph name="copyright" xMin="67" yMin="99" xMax="743" yMax="766">
      <contour>
        <pt x="499" y="766" on="0"/>
        <pt x="653" y="677" on="0"/>
        <pt x="743" y="524" on="0"/>
        <pt x="743" y="432" on="1"/>
        <pt x="743" y="340" on="0"/>
        <pt x="653" y="188" on="0"/>
        <pt x="499" y="99" on="0"/>
        <pt x="406" y="99" on="1"/>
        <pt x="313" y="99" on="0"/>
        <pt x="158" y="188" on="0"/>
        <pt x="67" y="341" on="0"/>
        <pt x="67" y="432" on="1"/>
        <pt x="67" y="524" on="0"/>
        <pt x="158" y="677" on="0"/>
        <pt x="313" y="766" on="0"/>
        <pt x="406" y="766" on="1"/>
      </contour>
      <contour>
        <pt x="336" y="687" on="0"/>
        <pt x="223" y="619" on="0"/>
        <pt x="159" y="502" on="0"/>
        <pt x="159" y="432" on="1"/>
        <pt x="159" y="362" on="0"/>
        <pt x="223" y="246" on="0"/>
        <pt x="336" y="179" on="0"/>
        <pt x="406" y="179" on="1"/>
        <pt x="475" y="179" on="0"/>
        <pt x="588" y="246" on="0"/>
        <pt x="652" y="362" on="0"/>
        <pt x="652" y="432" on="1"/>
        <pt x="652" y="502" on="0"/>
        <pt x="588" y="619" on="0"/>
        <pt x="475" y="687" on="0"/>
        <pt x="406" y="687" on="1"/>
      </contour>
      <contour>
        <pt x="445" y="630" on="0"/>
        <pt x="512" y="603" on="0"/>
        <pt x="539" y="579" on="1"/>
        <pt x="490" y="518" on="1"/>
        <pt x="472" y="532" on="0"/>
        <pt x="440" y="543" on="0"/>
        <pt x="419" y="543" on="1"/>
        <pt x="386" y="543" on="0"/>
        <pt x="345" y="490" on="0"/>
        <pt x="345" y="433" on="1"/>
        <pt x="345" y="324" on="0"/>
        <pt x="418" y="324" on="1"/>
        <pt x="460" y="324" on="0"/>
        <pt x="498" y="353" on="1"/>
        <pt x="542" y="289" on="1"/>
        <pt x="486" y="236" on="0"/>
        <pt x="409" y="236" on="1"/>
        <pt x="327" y="236" on="0"/>
        <pt x="231" y="339" on="0"/>
        <pt x="231" y="433" on="1"/>
        <pt x="231" y="493" on="0"/>
        <pt x="277" y="582" on="0"/>
        <pt x="357" y="630" on="0"/>
        <pt x="408" y="630" on="1"/>
      </contour>
    </TTGlyph>
    <TTGlyph name="currency" xMin="17" yMin="78" xMax="543" yMax="606">
      <contour>
        <pt x="501" y="276" on="0"/>
        <pt x="468" y="223" on="1"/>
        <pt x="543" y="148" on="1"/>
        <pt x="474" y="78" on="1"/>
        <pt x="396" y="154" on="1"/>
        <pt x="346" y="125" on="0"/>
        <pt x="280" y="125" on="1"/>
        <pt x="215" y="125" on="0"/>
        <pt x="165" y="154" on="1"/>
        <pt x="87" y="78" on="1"/>
        <pt x="17" y="148" on="1"/>
        <pt x="94" y="224" on="1"/>
        <pt x="61" y="277" on="0"/>
        <pt x="61" y="342" on="1"/>
        <pt x="61" y="405" on="0"/>
        <pt x="93" y="458" on="1"/>
        <pt x="17" y="536" on="1"/>
        <pt x="87" y="606" on="1"/>
        <pt x="165" y="528" on="1"/>
        <pt x="217" y="558" on="0"/>
        <pt x="280" y="558" on="1"/>
        <pt x="344" y="558" on="0"/>
        <pt x="396" y="528" on="1"/>
        <pt x="474" y="606" on="1"/>
        <pt x="543" y="536" on="1"/>
        <pt x="468" y="460" on="1"/>
        <pt x="501" y="407" on="0"/>
        <pt x="501" y="342" on="1"/>
      </contour>
      <contour>
        <pt x="328" y="231" on="0"/>
        <pt x="377" y="289" on="0"/>
        <pt x="377" y="342" on="1"/>
        <pt x="377" y="395" on="0"/>
        <pt x="328" y="452" on="0"/>
        <pt x="281" y="452" on="1"/>
        <pt x="233" y="452" on="0"/>
        <pt x="183" y="394" on="0"/>
        <pt x="183" y="342" on="1"/>
        <pt x="183" y="289" on="0"/>
        <pt x="233" y="231" on="0"/>
        <pt x="281" y="231" on="1"/>
      </contour>
    </TTGlyph>
    <TTGlyph name="currency.osf" xMin="17" yMin="78" xMax="543" yMax="606">
      <component glyphName="currency" x="0" y="0" flags="0x0"/>
    </TTGlyph>
    <TTGlyph name="currency.tf" xMin="17" yMin="78" xMax="543" yMax="606">
      <component glyphName="currency" x="0" y="0" flags="0x0"/>
    </TTGlyph>
    <TTGlyph name="currency.tosf" xMin="17" yMin="78" xMax="543" yMax="606">
      <component glyphName="currency" x="0" y="0" flags="0x0"/>
    </TTGlyph>
    <TTGlyph name="d" xMin="31" yMin="-17" xMax="597" yMax="759">
      <contour>
        <pt x="493" y="0" on="1"/>
        <pt x="355" y="0" on="1"/>
        <pt x="356" y="76" on="1"/>
        <pt x="328" y="34" on="0"/>
        <pt x="249" y="-17" on="0"/>
        <pt x="198" y="-17" on="1"/>
        <pt x="115" y="-17" on="0"/>
        <pt x="31" y="95" on="0"/>
        <pt x="31" y="197" on="1"/>
        <pt x="31" y="278" on="0"/>
        <pt x="84" y="439" on="0"/>
        <pt x="200" y="548" on="0"/>
        <pt x="290" y="548" on="1"/>
        <pt x="325" y="548" on="0"/>
        <pt x="385" y="520" on="0"/>
        <pt x="406" y="497" on="1"/>
        <pt x="443" y="759" on="1"/>
        <pt x="597" y="742" on="1"/>
      </contour>
      <contour>
        <pt x="273" y="433" on="0"/>
        <pt x="216" y="356" on="0"/>
        <pt x="192" y="247" on="0"/>
        <pt x="192" y="196" on="1"/>
        <pt x="192" y="143" on="0"/>
        <pt x="223" y="99" on="0"/>
        <pt x="251" y="99" on="1"/>
        <pt x="281" y="99" on="0"/>
        <pt x="337" y="152" on="0"/>
        <pt x="364" y="197" on="1"/>
        <pt x="392" y="394" on="1"/>
        <pt x="377" y="414" on="0"/>
        <pt x="343" y="433" on="0"/>
        <pt x="319" y="433" on="1"/>
      </contour>
    </TTGlyph>
    <TTGlyph name="d.sc" xMin="27" yMin="0" xMax="557" yMax="568">
      <contour>
        <pt x="406" y="568" on="0"/>
        <pt x="557" y="468" on="0"/>
        <pt x="557" y="343" on="1"/>
        <pt x="557" y="192" on="0"/>
        <pt x="395" y="0" on="0"/>
        <pt x="215" y="0" on="1"/>
        <pt x="27" y="0" on="1"/>
        <pt x="107" y="568" on="1"/>
        <pt x="280" y="568" on="1"/>
      </contour>
      <contour>
        <pt x="197" y="112" on="1"/>
        <pt x="238" y="112" on="1"/>
        <pt x="326" y="112" on="0"/>
        <pt x="398" y="253" on="0"/>
        <pt x="398" y="348" on="1"/>
        <pt x="398" y="409" on="0"/>
        <pt x="341" y="457" on="0"/>
        <pt x="288" y="457" on="1"/>
        <pt x="245" y="457" on="1"/>
      </contour>
    </TTGlyph>
    <TTGlyph name="dagger" xMin="44" yMin="0" xMax="533" yMax="676">
      <contour>
        <pt x="533" y="536" on="1"/>
        <pt x="515" y="408" on="1"/>
        <pt x="353" y="408" on="1"/>
        <pt x="295" y="0" on="1"/>
        <pt x="150" y="0" on="1"/>
        <pt x="207" y="408" on="1"/>
        <pt x="44" y="408" on="1"/>
        <pt x="62" y="536" on="1"/>
        <pt x="225" y="536" on="1"/>
        <pt x="244" y="676" on="1"/>
        <pt x="390" y="676" on="1"/>
        <pt x="370" y="536" on="1"/>
      </contour>
    </TTGlyph>
    <TTGlyph name="dagger.osf" xMin="44" yMin="0" xMax="533" yMax="676">
      <component glyphName="dagger" x="0" y="0" flags="0x0"/>
    </TTGlyph>
    <TTGlyph name="dagger.tf" xMin="60" yMin="0" xMax="562" yMax="693">
      <contour>
        <pt x="562" y="553" on="1"/>
        <pt x="545" y="425" on="1"/>
        <pt x="375" y="425" on="1"/>
        <pt x="316" y="0" on="1"/>
        <pt x="170" y="0" on="1"/>
        <pt x="230" y="425" on="1"/>
        <pt x="60" y="425" on="1"/>
        <pt x="77" y="553" on="1"/>
        <pt x="248" y="553" on="1"/>
        <pt x="267" y="693" on="1"/>
        <pt x="413" y="693" on="1"/>
        <pt x="393" y="553" on="1"/>
      </contour>
    </TTGlyph>
    <TTGlyph name="dagger.tosf" xMin="23" yMin="0" xMax="512" yMax="676">
      <component glyphName="dagger" x="-21" y="0" flags="0x0"/>
    </TTGlyph>
    <TTGlyph name="daggerdbl" xMin="9" yMin="0" xMax="533" yMax="676">
      <contour>
        <pt x="334" y="273" on="1"/>
        <pt x="498" y="273" on="1"/>
        <pt x="480" y="145" on="1"/>
        <pt x="315" y="145" on="1"/>
        <pt x="295" y="0" on="1"/>
        <pt x="150" y="0" on="1"/>
        <pt x="170" y="145" on="1"/>
        <pt x="9" y="145" on="1"/>
        <pt x="27" y="273" on="1"/>
        <pt x="188" y="273" on="1"/>
        <pt x="207" y="408" on="1"/>
        <pt x="44" y="408" on="1"/>
        <pt x="62" y="536" on="1"/>
        <pt x="225" y="536" on="1"/>
        <pt x="244" y="676" on="1"/>
        <pt x="390" y="676" on="1"/>
        <pt x="370" y="536" on="1"/>
        <pt x="533" y="536" on="1"/>
        <pt x="515" y="408" on="1"/>
        <pt x="353" y="408" on="1"/>
      </contour>
    </TTGlyph>
    <TTGlyph name="daggerdbl.osf" xMin="9" yMin="0" xMax="533" yMax="676">
      <component glyphName="daggerdbl" x="0" y="0" flags="0x0"/>
    </TTGlyph>
    <TTGlyph name="daggerdbl.tf" xMin="22" yMin="0" xMax="562" yMax="693">
      <contour>
        <pt x="355" y="285" on="1"/>
        <pt x="519" y="285" on="1"/>
        <pt x="500" y="157" on="1"/>
        <pt x="338" y="157" on="1"/>
        <pt x="316" y="0" on="1"/>
        <pt x="170" y="0" on="1"/>
        <pt x="192" y="157" on="1"/>
        <pt x="22" y="157" on="1"/>
        <pt x="41" y="285" on="1"/>
        <pt x="210" y="285" on="1"/>
        <pt x="230" y="425" on="1"/>
        <pt x="60" y="425" on="1"/>
        <pt x="77" y="553" on="1"/>
        <pt x="248" y="553" on="1"/>
        <pt x="267" y="693" on="1"/>
        <pt x="413" y="693" on="1"/>
        <pt x="393" y="553" on="1"/>
        <pt x="562" y="553" on="1"/>
        <pt x="545" y="425" on="1"/>
        <pt x="375" y="425" on="1"/>
      </contour>
    </TTGlyph>
    <TTGlyph name="daggerdbl.tosf" xMin="-12" yMin="0" xMax="512" yMax="676">
      <component glyphName="daggerdbl" x="-21" y="0" flags="0x0"/>
    </TTGlyph>
    <TTGlyph name="dcaron" xMin="29" yMin="-17" xMax="783" yMax="759">
      <component glyphName="d" x="-1" y="0" flags="0x0"/>
      <component glyphName="caron.alt" x="524" y="48" flags="0x0"/>
    </TTGlyph>
    <TTGlyph name="dcaron.sc" xMin="27" yMin="0" xMax="557" yMax="843">
      <component glyphName="d.sc" x="0" y="0" flags="0x0"/>
      <component glyphName="caron.sc" x="71" y="0" flags="0x0"/>
    </TTGlyph>
    <TTGlyph name="dcroat" xMin="31" yMin="-17" xMax="650" yMax="759">
      <contour>
        <pt x="576" y="596" on="1"/>
        <pt x="493" y="0" on="1"/>
        <pt x="355" y="0" on="1"/>
        <pt x="356" y="76" on="1"/>
        <pt x="328" y="34" on="0"/>
        <pt x="249" y="-17" on="0"/>
        <pt x="198" y="-17" on="1"/>
        <pt x="115" y="-17" on="0"/>
        <pt x="31" y="95" on="0"/>
        <pt x="31" y="197" on="1"/>
        <pt x="31" y="278" on="0"/>
        <pt x="84" y="439" on="0"/>
        <pt x="200" y="548" on="0"/>
        <pt x="290" y="548" on="1"/>
        <pt x="325" y="548" on="0"/>
        <pt x="385" y="520" on="0"/>
        <pt x="406" y="497" on="1"/>
        <pt x="420" y="596" on="1"/>
        <pt x="292" y="596" on="1"/>
        <pt x="293" y="688" on="1"/>
        <pt x="433" y="688" on="1"/>
        <pt x="443" y="759" on="1"/>
        <pt x="597" y="742" on="1"/>
        <pt x="589" y="688" on="1"/>
        <pt x="650" y="688" on="1"/>
        <pt x="637" y="596" on="1"/>
      </contour>
      <contour>
        <pt x="377" y="414" on="0"/>
        <pt x="343" y="433" on="0"/>
        <pt x="319" y="433" on="1"/>
        <pt x="273" y="433" on="0"/>
        <pt x="216" y="356" on="0"/>
        <pt x="192" y="247" on="0"/>
        <pt x="192" y="196" on="1"/>
        <pt x="192" y="143" on="0"/>
        <pt x="223" y="99" on="0"/>
        <pt x="251" y="99" on="1"/>
        <pt x="281" y="99" on="0"/>
        <pt x="337" y="152" on="0"/>
        <pt x="364" y="197" on="1"/>
        <pt x="392" y="394" on="1"/>
      </contour>
    </TTGlyph>
    <TTGlyph name="dcroat.sc" xMin="-20" yMin="0" xMax="511" yMax="569">
      <component glyphName="eth.sc" x="0" y="0" flags="0x0"/>
    </TTGlyph>
    <TTGlyph name="degree" xMin="75" yMin="369" xMax="428" yMax="711">
      <contour>
        <pt x="190" y="369" on="0"/>
        <pt x="119" y="405" on="0"/>
        <pt x="75" y="473" on="0"/>
        <pt x="75" y="518" on="1"/>
        <pt x="75" y="576" on="0"/>
        <pt x="134" y="664" on="0"/>
        <pt x="225" y="711" on="0"/>
        <pt x="272" y="711" on="1"/>
        <pt x="313" y="711" on="0"/>
        <pt x="385" y="675" on="0"/>
        <pt x="428" y="608" on="0"/>
        <pt x="428" y="563" on="1"/>
        <pt x="428" y="505" on="0"/>
        <pt x="369" y="417" on="0"/>
        <pt x="278" y="369" on="0"/>
        <pt x="231" y="369" on="1"/>
      </contour>
      <contour>
        <pt x="270" y="462" on="0"/>
        <pt x="315" y="507" on="0"/>
        <pt x="321" y="544" on="1"/>
        <pt x="322" y="550" on="0"/>
        <pt x="322" y="560" on="1"/>
        <pt x="322" y="588" on="0"/>
        <pt x="292" y="620" on="0"/>
        <pt x="266" y="619" on="1"/>
        <pt x="234" y="619" on="0"/>
        <pt x="188" y="575" on="0"/>
        <pt x="182" y="537" on="1"/>
        <pt x="181" y="522" on="1"/>
        <pt x="181" y="494" on="0"/>
        <pt x="212" y="462" on="0"/>
        <pt x="238" y="462" on="1"/>
      </contour>
    </TTGlyph>
    <TTGlyph name="degree.osf" xMin="75" yMin="369" xMax="428" yMax="711">
      <component glyphName="degree" x="0" y="0" flags="0x0"/>
    </TTGlyph>
    <TTGlyph name="degree.tf" xMin="60" yMin="389" xMax="413" yMax="731">
      <component glyphName="degree" x="-14" y="20" flags="0x0"/>
    </TTGlyph>
    <TTGlyph name="degree.tosf" xMin="57" yMin="369" xMax="410" yMax="711">
      <component glyphName="degree" x="-17" y="0" flags="0x0"/>
    </TTGlyph>
    <TTGlyph name="deleterightKey" xMin="100" yMin="-12" xMax="1360" yMax="713">
      <contour>
        <pt x="128" y="-12" on="0"/>
        <pt x="100" y="16" on="0"/>
        <pt x="100" y="38" on="1"/>
        <pt x="100" y="663" on="1"/>
        <pt x="100" y="686" on="0"/>
        <pt x="128" y="713" on="0"/>
        <pt x="150" y="713" on="1"/>
        <pt x="980" y="713" on="1"/>
        <pt x="1360" y="352" on="1"/>
        <pt x="980" y="-12" on="1"/>
        <pt x="150" y="-12" on="1"/>
      </contour>
      <contour>
        <pt x="570" y="288" on="1"/>
        <pt x="724" y="134" on="1"/>
        <pt x="791" y="201" on="1"/>
        <pt x="637" y="355" on="1"/>
        <pt x="791" y="508" on="1"/>
        <pt x="724" y="577" on="1"/>
        <pt x="570" y="422" on="1"/>
        <pt x="416" y="577" on="1"/>
        <pt x="349" y="508" on="1"/>
        <pt x="503" y="355" on="1"/>
        <pt x="349" y="201" on="1"/>
        <pt x="416" y="134" on="1"/>
      </contour>
    </TTGlyph>
    <TTGlyph name="delta" xMin="26" yMin="-17" xMax="545" yMax="759">
      <contour>
        <pt x="475" y="759" on="0"/>
        <pt x="545" y="685" on="1"/>
        <pt x="465" y="605" on="1"/>
        <pt x="441" y="628" on="0"/>
        <pt x="392" y="649" on="0"/>
        <pt x="362" y="649" on="1"/>
        <pt x="322" y="649" on="0"/>
        <pt x="282" y="617" on="0"/>
        <pt x="282" y="594" on="1"/>
        <pt x="282" y="571" on="0"/>
        <pt x="316" y="540" on="0"/>
        <pt x="368" y="518" on="1"/>
        <pt x="457" y="479" on="0"/>
        <pt x="540" y="378" on="0"/>
        <pt x="540" y="298" on="1"/>
        <pt x="540" y="230" on="0"/>
        <pt x="481" y="85" on="0"/>
        <pt x="350" y="-17" on="0"/>
        <pt x="249" y="-17" on="1"/>
        <pt x="180" y="-17" on="0"/>
        <pt x="79" y="40" on="0"/>
        <pt x="26" y="137" on="0"/>
        <pt x="26" y="198" on="1"/>
        <pt x="26" y="290" on="0"/>
        <pt x="111" y="426" on="0"/>
        <pt x="213" y="466" on="1"/>
        <pt x="169" y="495" on="0"/>
        <pt x="133" y="559" on="0"/>
        <pt x="133" y="598" on="1"/>
        <pt x="133" y="637" on="0"/>
        <pt x="180" y="711" on="0"/>
        <pt x="277" y="759" on="0"/>
        <pt x="349" y="759" on="1"/>
      </contour>
      <contour>
        <pt x="230" y="379" on="0"/>
        <pt x="186" y="266" on="0"/>
        <pt x="186" y="194" on="1"/>
        <pt x="186" y="149" on="0"/>
        <pt x="223" y="99" on="0"/>
        <pt x="259" y="99" on="1"/>
        <pt x="304" y="99" on="0"/>
        <pt x="358" y="167" on="0"/>
        <pt x="380" y="261" on="0"/>
        <pt x="380" y="304" on="1"/>
        <pt x="380" y="346" on="0"/>
        <pt x="340" y="398" on="0"/>
        <pt x="291" y="424" on="1"/>
      </contour>
    </TTGlyph>
    <TTGlyph name="delta.sc" xMin="-51" yMin="0" xMax="494" yMax="570">
      <contour>
        <pt x="-51" y="0" on="1"/>
        <pt x="209" y="570" on="1"/>
        <pt x="395" y="570" on="1"/>
        <pt x="494" y="0" on="1"/>
      </contour>
      <contour>
        <pt x="323" y="113" on="1"/>
        <pt x="285" y="458" on="1"/>
        <pt x="151" y="113" on="1"/>
      </contour>
    </TTGlyph>
    <TTGlyph name="dieresis" xMin="93" yMin="641" xMax="481" yMax="799">
      <contour>
        <pt x="212" y="799" on="0"/>
        <pt x="253" y="759" on="0"/>
        <pt x="253" y="729" on="1"/>
        <pt x="253" y="693" on="0"/>
        <pt x="201" y="641" on="0"/>
        <pt x="164" y="641" on="1"/>
        <pt x="133" y="641" on="0"/>
        <pt x="93" y="682" on="0"/>
        <pt x="93" y="713" on="1"/>
        <pt x="93" y="748" on="0"/>
        <pt x="146" y="799" on="0"/>
        <pt x="181" y="799" on="1"/>
      </contour>
      <contour>
        <pt x="441" y="799" on="0"/>
        <pt x="481" y="759" on="0"/>
        <pt x="481" y="729" on="1"/>
        <pt x="481" y="693" on="0"/>
        <pt x="429" y="641" on="0"/>
        <pt x="392" y="641" on="1"/>
        <pt x="361" y="641" on="0"/>
        <pt x="321" y="682" on="0"/>
        <pt x="321" y="713" on="1"/>
        <pt x="321" y="748" on="0"/>
        <pt x="374" y="799" on="0"/>
        <pt x="409" y="799" on="1"/>
      </contour>
    </TTGlyph>
    <TTGlyph name="dieresis.case" xMin="69" yMin="767" xMax="457" yMax="925">
      <contour>
        <pt x="188" y="925" on="0"/>
        <pt x="229" y="885" on="0"/>
        <pt x="229" y="855" on="1"/>
        <pt x="229" y="819" on="0"/>
        <pt x="176" y="767" on="0"/>
        <pt x="140" y="767" on="1"/>
        <pt x="109" y="767" on="0"/>
        <pt x="69" y="808" on="0"/>
        <pt x="69" y="839" on="1"/>
        <pt x="69" y="874" on="0"/>
        <pt x="122" y="925" on="0"/>
        <pt x="157" y="925" on="1"/>
      </contour>
      <contour>
        <pt x="417" y="925" on="0"/>
        <pt x="457" y="885" on="0"/>
        <pt x="457" y="855" on="1"/>
        <pt x="457" y="819" on="0"/>
        <pt x="404" y="767" on="0"/>
        <pt x="368" y="767" on="1"/>
        <pt x="337" y="767" on="0"/>
        <pt x="297" y="808" on="0"/>
        <pt x="297" y="839" on="1"/>
        <pt x="297" y="874" on="0"/>
        <pt x="350" y="925" on="0"/>
        <pt x="385" y="925" on="1"/>
      </contour>
    </TTGlyph>
    <TTGlyph name="dieresis.sc" xMin="73" yMin="671" xMax="461" yMax="829">
      <contour>
        <pt x="192" y="829" on="0"/>
        <pt x="233" y="789" on="0"/>
        <pt x="233" y="759" on="1"/>
        <pt x="233" y="723" on="0"/>
        <pt x="180" y="671" on="0"/>
        <pt x="145" y="671" on="1"/>
        <pt x="114" y="671" on="0"/>
        <pt x="73" y="712" on="0"/>
        <pt x="73" y="743" on="1"/>
        <pt x="73" y="778" on="0"/>
        <pt x="126" y="829" on="0"/>
        <pt x="161" y="829" on="1"/>
      </contour>
      <contour>
        <pt x="421" y="829" on="0"/>
        <pt x="461" y="790" on="0"/>
        <pt x="461" y="760" on="1"/>
        <pt x="461" y="723" on="0"/>
        <pt x="409" y="671" on="0"/>
        <pt x="373" y="671" on="1"/>
        <pt x="342" y="671" on="0"/>
        <pt x="301" y="712" on="0"/>
        <pt x="301" y="743" on="1"/>
        <pt x="301" y="778" on="0"/>
        <pt x="355" y="829" on="0"/>
        <pt x="389" y="829" on="1"/>
      </contour>
    </TTGlyph>
    <TTGlyph name="dieresistonos" xMin="87" yMin="610" xMax="507" yMax="950">
      <contour>
        <pt x="346" y="736" on="1"/>
        <pt x="259" y="751" on="1"/>
        <pt x="317" y="950" on="1"/>
        <pt x="444" y="927" on="1"/>
      </contour>
      <contour>
        <pt x="205" y="764" on="0"/>
        <pt x="245" y="724" on="0"/>
        <pt x="245" y="694" on="1"/>
        <pt x="245" y="660" on="0"/>
        <pt x="194" y="610" on="0"/>
        <pt x="159" y="610" on="1"/>
        <pt x="129" y="610" on="0"/>
        <pt x="87" y="649" on="0"/>
        <pt x="87" y="679" on="1"/>
        <pt x="87" y="714" on="0"/>
        <pt x="140" y="764" on="0"/>
        <pt x="174" y="764" on="1"/>
      </contour>
      <contour>
        <pt x="467" y="764" on="0"/>
        <pt x="507" y="724" on="0"/>
        <pt x="507" y="694" on="1"/>
        <pt x="507" y="660" on="0"/>
        <pt x="456" y="610" on="0"/>
        <pt x="421" y="610" on="1"/>
        <pt x="391" y="610" on="0"/>
        <pt x="350" y="649" on="0"/>
        <pt x="350" y="679" on="1"/>
        <pt x="350" y="714" on="0"/>
        <pt x="402" y="764" on="0"/>
        <pt x="436" y="764" on="1"/>
      </contour>
    </TTGlyph>
    <TTGlyph name="divide" xMin="48" yMin="1" xMax="480" yMax="664">
      <component glyphName="period" x="134" y="17" flags="0x0"/>
      <component glyphName="period" x="201" y="500" flags="0x0"/>
      <component glyphName="minus" x="0" y="0" flags="0x0"/>
    </TTGlyph>
    <TTGlyph name="divide.osf" xMin="48" yMin="0" xMax="480" yMax="664">
      <contour>
        <pt x="338" y="664" on="0"/>
        <pt x="383" y="618" on="0"/>
        <pt x="383" y="584" on="1"/>
        <pt x="383" y="544" on="0"/>
        <pt x="324" y="484" on="0"/>
        <pt x="284" y="484" on="1"/>
        <pt x="249" y="484" on="0"/>
        <pt x="204" y="531" on="0"/>
        <pt x="204" y="565" on="1"/>
        <pt x="204" y="605" on="0"/>
        <pt x="264" y="664" on="0"/>
        <pt x="304" y="664" on="1"/>
      </contour>
      <contour>
        <pt x="480" y="393" on="1"/>
        <pt x="463" y="271" on="1"/>
        <pt x="48" y="271" on="1"/>
        <pt x="65" y="393" on="1"/>
      </contour>
      <contour>
        <pt x="271" y="181" on="0"/>
        <pt x="316" y="135" on="0"/>
        <pt x="316" y="101" on="1"/>
        <pt x="316" y="60" on="0"/>
        <pt x="256" y="0" on="0"/>
        <pt x="216" y="0" on="1"/>
        <pt x="181" y="0" on="0"/>
        <pt x="137" y="47" on="0"/>
        <pt x="137" y="82" on="1"/>
        <pt x="137" y="122" on="0"/>
        <pt x="197" y="181" on="0"/>
        <pt x="237" y="181" on="1"/>
      </contour>
    </TTGlyph>
    <TTGlyph name="divide.tf" xMin="68" yMin="1" xMax="501" yMax="664">
      <contour>
        <pt x="358" y="664" on="0"/>
        <pt x="403" y="618" on="0"/>
        <pt x="403" y="584" on="1"/>
        <pt x="403" y="544" on="0"/>
        <pt x="344" y="484" on="0"/>
        <pt x="304" y="484" on="1"/>
        <pt x="269" y="484" on="0"/>
        <pt x="225" y="531" on="0"/>
        <pt x="225" y="565" on="1"/>
        <pt x="225" y="605" on="0"/>
        <pt x="284" y="664" on="0"/>
        <pt x="324" y="664" on="1"/>
      </contour>
      <contour>
        <pt x="501" y="394" on="1"/>
        <pt x="484" y="271" on="1"/>
        <pt x="68" y="271" on="1"/>
        <pt x="86" y="394" on="1"/>
      </contour>
      <contour>
        <pt x="291" y="181" on="0"/>
        <pt x="336" y="135" on="0"/>
        <pt x="336" y="101" on="1"/>
        <pt x="336" y="61" on="0"/>
        <pt x="277" y="1" on="0"/>
        <pt x="237" y="1" on="1"/>
        <pt x="202" y="1" on="0"/>
        <pt x="158" y="48" on="0"/>
        <pt x="158" y="82" on="1"/>
        <pt x="158" y="122" on="0"/>
        <pt x="217" y="181" on="0"/>
        <pt x="257" y="181" on="1"/>
      </contour>
    </TTGlyph>
    <TTGlyph name="divide.tosf" xMin="70" yMin="1" xMax="503" yMax="664">
      <contour>
        <pt x="361" y="664" on="0"/>
        <pt x="406" y="618" on="0"/>
        <pt x="406" y="584" on="1"/>
        <pt x="406" y="544" on="0"/>
        <pt x="347" y="484" on="0"/>
        <pt x="307" y="484" on="1"/>
        <pt x="272" y="484" on="0"/>
        <pt x="227" y="531" on="0"/>
        <pt x="227" y="565" on="1"/>
        <pt x="227" y="605" on="0"/>
        <pt x="287" y="664" on="0"/>
        <pt x="327" y="664" on="1"/>
      </contour>
      <contour>
        <pt x="503" y="394" on="1"/>
        <pt x="486" y="271" on="1"/>
        <pt x="70" y="271" on="1"/>
        <pt x="88" y="394" on="1"/>
      </contour>
      <contour>
        <pt x="293" y="181" on="0"/>
        <pt x="338" y="135" on="0"/>
        <pt x="338" y="101" on="1"/>
        <pt x="338" y="61" on="0"/>
        <pt x="279" y="1" on="0"/>
        <pt x="239" y="1" on="1"/>
        <pt x="204" y="1" on="0"/>
        <pt x="160" y="48" on="0"/>
        <pt x="160" y="82" on="1"/>
        <pt x="160" y="122" on="0"/>
        <pt x="219" y="181" on="0"/>
        <pt x="259" y="181" on="1"/>
      </contour>
    </TTGlyph>
    <TTGlyph name="divisionslash" xMin="-211" yMin="-85" xMax="390" yMax="759">
      <component glyphName="fraction" x="0" y="0" flags="0x0"/>
    </TTGlyph>
    <TTGlyph name="dollar" xMin="-18" yMin="-161" xMax="550" yMax="830">
      <contour>
        <pt x="419" y="382" on="0"/>
        <pt x="505" y="288" on="0"/>
        <pt x="505" y="217" on="1"/>
        <pt x="505" y="168" on="0"/>
        <pt x="461" y="76" on="0"/>
        <pt x="364" y="6" on="0"/>
        <pt x="288" y="-5" on="1"/>
        <pt x="266" y="-161" on="1"/>
        <pt x="153" y="-161" on="1"/>
        <pt x="175" y="-8" on="1"/>
        <pt x="112" y="-1" on="0"/>
        <pt x="14" y="50" on="0"/>
        <pt x="-18" y="88" on="1"/>
        <pt x="72" y="172" on="1"/>
        <pt x="103" y="140" on="0"/>
        <pt x="181" y="106" on="0"/>
        <pt x="224" y="106" on="1"/>
        <pt x="278" y="106" on="0"/>
        <pt x="343" y="156" on="0"/>
        <pt x="343" y="199" on="1"/>
        <pt x="343" y="229" on="0"/>
        <pt x="299" y="270" on="0"/>
        <pt x="244" y="290" on="1"/>
        <pt x="154" y="321" on="0"/>
        <pt x="71" y="415" on="0"/>
        <pt x="71" y="478" on="1"/>
        <pt x="71" y="555" on="0"/>
        <pt x="177" y="667" on="0"/>
        <pt x="272" y="682" on="1"/>
        <pt x="293" y="830" on="1"/>
        <pt x="405" y="830" on="1"/>
        <pt x="384" y="683" on="1"/>
        <pt x="477" y="669" on="0"/>
        <pt x="550" y="599" on="1"/>
        <pt x="468" y="517" on="1"/>
        <pt x="402" y="571" on="0"/>
        <pt x="336" y="571" on="1"/>
        <pt x="289" y="571" on="0"/>
        <pt x="233" y="534" on="0"/>
        <pt x="233" y="499" on="1"/>
        <pt x="233" y="470" on="0"/>
        <pt x="277" y="433" on="0"/>
        <pt x="339" y="410" on="1"/>
      </contour>
    </TTGlyph>
    <TTGlyph name="dollar.osf" xMin="-18" yMin="-161" xMax="550" yMax="830">
      <component glyphName="dollar" x="0" y="0" flags="0x0"/>
    </TTGlyph>
    <TTGlyph name="dollar.tf" xMin="-7" yMin="-161" xMax="554" yMax="851">
      <contour>
        <pt x="516" y="364" on="0"/>
        <pt x="516" y="225" on="1"/>
        <pt x="516" y="173" on="0"/>
        <pt x="471" y="77" on="0"/>
        <pt x="370" y="7" on="0"/>
        <pt x="292" y="-3" on="1"/>
        <pt x="270" y="-161" on="1"/>
        <pt x="157" y="-161" on="1"/>
        <pt x="179" y="-4" on="1"/>
        <pt x="63" y="9" on="0"/>
        <pt x="-7" y="90" on="1"/>
        <pt x="81" y="177" on="1"/>
        <pt x="142" y="111" on="0"/>
        <pt x="233" y="111" on="1"/>
        <pt x="288" y="111" on="0"/>
        <pt x="355" y="162" on="0"/>
        <pt x="355" y="208" on="1"/>
        <pt x="355" y="237" on="0"/>
        <pt x="309" y="280" on="0"/>
        <pt x="251" y="300" on="1"/>
        <pt x="76" y="358" on="0"/>
        <pt x="76" y="491" on="1"/>
        <pt x="76" y="537" on="0"/>
        <pt x="119" y="624" on="0"/>
        <pt x="210" y="687" on="0"/>
        <pt x="278" y="697" on="1"/>
        <pt x="299" y="851" on="1"/>
        <pt x="412" y="851" on="1"/>
        <pt x="390" y="698" on="1"/>
        <pt x="486" y="684" on="0"/>
        <pt x="554" y="613" on="1"/>
        <pt x="469" y="529" on="1"/>
        <pt x="413" y="584" on="0"/>
        <pt x="336" y="584" on="1"/>
        <pt x="289" y="584" on="0"/>
        <pt x="235" y="545" on="0"/>
        <pt x="235" y="509" on="1"/>
        <pt x="235" y="481" on="0"/>
        <pt x="282" y="443" on="0"/>
        <pt x="346" y="421" on="1"/>
      </contour>
    </TTGlyph>
    <TTGlyph name="dollar.tosf" xMin="-8" yMin="-161" xMax="549" yMax="831">
      <contour>
        <pt x="421" y="381" on="0"/>
        <pt x="505" y="288" on="0"/>
        <pt x="505" y="215" on="1"/>
        <pt x="505" y="165" on="0"/>
        <pt x="461" y="73" on="0"/>
        <pt x="365" y="5" on="0"/>
        <pt x="290" y="-5" on="1"/>
        <pt x="268" y="-161" on="1"/>
        <pt x="155" y="-161" on="1"/>
        <pt x="178" y="-7" on="1"/>
        <pt x="118" y="1" on="0"/>
        <pt x="23" y="51" on="0"/>
        <pt x="-8" y="88" on="1"/>
        <pt x="81" y="173" on="1"/>
        <pt x="144" y="107" on="0"/>
        <pt x="230" y="107" on="1"/>
        <pt x="286" y="107" on="0"/>
        <pt x="346" y="157" on="0"/>
        <pt x="346" y="195" on="1"/>
        <pt x="346" y="229" on="0"/>
        <pt x="304" y="270" on="0"/>
        <pt x="249" y="291" on="1"/>
        <pt x="162" y="323" on="0"/>
        <pt x="80" y="416" on="0"/>
        <pt x="80" y="478" on="1"/>
        <pt x="80" y="554" on="0"/>
        <pt x="183" y="666" on="0"/>
        <pt x="274" y="681" on="1"/>
        <pt x="295" y="831" on="1"/>
        <pt x="408" y="831" on="1"/>
        <pt x="386" y="683" on="1"/>
        <pt x="483" y="669" on="0"/>
        <pt x="549" y="599" on="1"/>
        <pt x="469" y="517" on="1"/>
        <pt x="408" y="571" on="0"/>
        <pt x="340" y="571" on="1"/>
        <pt x="294" y="571" on="0"/>
        <pt x="239" y="533" on="0"/>
        <pt x="239" y="498" on="1"/>
        <pt x="239" y="471" on="0"/>
        <pt x="284" y="433" on="0"/>
        <pt x="343" y="410" on="1"/>
      </contour>
    </TTGlyph>
    <TTGlyph name="dotaccent" xMin="90" yMin="631" xMax="275" yMax="811">
      <contour>
        <pt x="230" y="811" on="0"/>
        <pt x="275" y="766" on="0"/>
        <pt x="275" y="731" on="1"/>
        <pt x="275" y="690" on="0"/>
        <pt x="216" y="632" on="0"/>
        <pt x="172" y="631" on="1"/>
        <pt x="135" y="632" on="0"/>
        <pt x="90" y="676" on="0"/>
        <pt x="90" y="711" on="1"/>
        <pt x="90" y="753" on="0"/>
        <pt x="149" y="811" on="0"/>
        <pt x="192" y="811" on="1"/>
      </contour>
    </TTGlyph>
    <TTGlyph name="dotaccent.case" xMin="66" yMin="758" xMax="251" yMax="937">
      <contour>
        <pt x="206" y="937" on="0"/>
        <pt x="251" y="892" on="0"/>
        <pt x="251" y="857" on="1"/>
        <pt x="251" y="816" on="0"/>
        <pt x="191" y="758" on="0"/>
        <pt x="148" y="758" on="1"/>
        <pt x="111" y="758" on="0"/>
        <pt x="66" y="802" on="0"/>
        <pt x="66" y="837" on="1"/>
        <pt x="66" y="879" on="0"/>
        <pt x="125" y="937" on="0"/>
        <pt x="168" y="937" on="1"/>
      </contour>
    </TTGlyph>
    <TTGlyph name="dotaccent.sc" xMin="90" yMin="662" xMax="275" yMax="841">
      <contour>
        <pt x="231" y="841" on="0"/>
        <pt x="275" y="796" on="0"/>
        <pt x="275" y="761" on="1"/>
        <pt x="275" y="720" on="0"/>
        <pt x="216" y="662" on="0"/>
        <pt x="173" y="662" on="1"/>
        <pt x="135" y="662" on="0"/>
        <pt x="90" y="706" on="0"/>
        <pt x="90" y="741" on="1"/>
        <pt x="90" y="783" on="0"/>
        <pt x="150" y="841" on="0"/>
        <pt x="193" y="841" on="1"/>
      </contour>
    </TTGlyph>
    <TTGlyph name="dotlessi" xMin="24" yMin="0" xMax="254" yMax="531">
      <contour>
        <pt x="24" y="0" on="1"/>
        <pt x="98" y="531" on="1"/>
        <pt x="254" y="531" on="1"/>
        <pt x="180" y="0" on="1"/>
      </contour>
    </TTGlyph>
    <TTGlyph name="dotlessi.sc" xMin="27" yMin="0" xMax="262" yMax="568">
      <component glyphName="i.sc" x="0" y="0" flags="0x0"/>
    </TTGlyph>
    <TTGlyph name="dotlessj.sc" xMin="-62" yMin="-150" xMax="269" yMax="568">
      <component glyphName="j.sc" x="0" y="0" flags="0x0"/>
    </TTGlyph>
    <TTGlyph name="dotmath" xMin="36" yMin="218" xMax="214" yMax="398">
      <component glyphName="periodcentered" x="0" y="0" flags="0x0"/>
    </TTGlyph>
    <TTGlyph name="e" xMin="27" yMin="-17" xMax="524" yMax="548">
      <contour>
        <pt x="524" y="302" on="0"/>
        <pt x="334" y="207" on="0"/>
        <pt x="184" y="193" on="1"/>
        <pt x="189" y="99" on="0"/>
        <pt x="278" y="99" on="1"/>
        <pt x="311" y="99" on="0"/>
        <pt x="376" y="123" on="0"/>
        <pt x="413" y="148" on="1"/>
        <pt x="469" y="54" on="1"/>
        <pt x="371" y="-17" on="0"/>
        <pt x="258" y="-17" on="1"/>
        <pt x="145" y="-17" on="0"/>
        <pt x="27" y="104" on="0"/>
        <pt x="27" y="208" on="1"/>
        <pt x="27" y="288" on="0"/>
        <pt x="88" y="444" on="0"/>
        <pt x="224" y="548" on="0"/>
        <pt x="328" y="548" on="1"/>
        <pt x="421" y="548" on="0"/>
        <pt x="524" y="466" on="0"/>
        <pt x="524" y="403" on="1"/>
      </contour>
      <contour>
        <pt x="282" y="296" on="0"/>
        <pt x="367" y="356" on="0"/>
        <pt x="367" y="394" on="1"/>
        <pt x="367" y="415" on="0"/>
        <pt x="342" y="443" on="0"/>
        <pt x="313" y="443" on="1"/>
        <pt x="262" y="443" on="0"/>
        <pt x="202" y="355" on="0"/>
        <pt x="191" y="289" on="1"/>
      </contour>
    </TTGlyph>
    <TTGlyph name="e.sc" xMin="27" yMin="0" xMax="481" yMax="568">
      <contour>
        <pt x="245" y="458" on="1"/>
        <pt x="230" y="344" on="1"/>
        <pt x="408" y="344" on="1"/>
        <pt x="393" y="236" on="1"/>
        <pt x="215" y="236" on="1"/>
        <pt x="197" y="111" on="1"/>
        <pt x="413" y="111" on="1"/>
        <pt x="398" y="0" on="1"/>
        <pt x="27" y="0" on="1"/>
        <pt x="107" y="568" on="1"/>
        <pt x="481" y="568" on="1"/>
        <pt x="449" y="458" on="1"/>
      </contour>
    </TTGlyph>
    <TTGlyph name="eacute" xMin="27" yMin="-17" xMax="524" yMax="835">
      <component glyphName="e" x="0" y="0" flags="0x0"/>
      <component glyphName="acute" x="103" y="0" flags="0x0"/>
    </TTGlyph>
    <TTGlyph name="eacute.sc" xMin="27" yMin="0" xMax="486" yMax="865">
      <component glyphName="e.sc" x="0" y="0" flags="0x0"/>
      <component glyphName="acute.sc" x="133" y="0" flags="0x0"/>
    </TTGlyph>
    <TTGlyph name="ebreve" xMin="27" yMin="-17" xMax="524" yMax="822">
      <component glyphName="e" x="0" y="0" flags="0x0"/>
      <component glyphName="breve" x="80" y="0" flags="0x0"/>
    </TTGlyph>
    <TTGlyph name="ebreve.sc" xMin="27" yMin="0" xMax="491" yMax="852">
      <component glyphName="e.sc" x="0" y="0" flags="0x0"/>
      <component glyphName="breve.sc" x="62" y="0" flags="0x0"/>
    </TTGlyph>
    <TTGlyph name="ecaron" xMin="27" yMin="-17" xMax="532" yMax="813">
      <component glyphName="e" x="0" y="0" flags="0x0"/>
      <component glyphName="caron" x="63" y="0" flags="0x0"/>
    </TTGlyph>
    <TTGlyph name="ecaron.sc" xMin="27" yMin="0" xMax="506" yMax="843">
      <component glyphName="e.sc" x="0" y="0" flags="0x0"/>
      <component glyphName="caron.sc" x="56" y="0" flags="0x0"/>
    </TTGlyph>
    <TTGlyph name="ecircumflex" xMin="27" yMin="-17" xMax="524" yMax="822">
      <component glyphName="e" x="0" y="0" flags="0x0"/>
      <component glyphName="circumflex" x="63" y="0" flags="0x0"/>
    </TTGlyph>
    <TTGlyph name="ecircumflex.sc" xMin="27" yMin="0" xMax="507" yMax="852">
      <component glyphName="e.sc" x="0" y="0" flags="0x0"/>
      <component glyphName="circumflex.sc" x="66" y="0" flags="0x0"/>
    </TTGlyph>
    <TTGlyph name="edieresis" xMin="27" yMin="-17" xMax="530" yMax="799">
      <component glyphName="e" x="0" y="0" flags="0x0"/>
      <component glyphName="dieresis" x="49" y="0" flags="0x0"/>
    </TTGlyph>
    <TTGlyph name="edieresis.sc" xMin="27" yMin="0" xMax="513" yMax="829">
      <component glyphName="e.sc" x="0" y="0" flags="0x0"/>
      <component glyphName="dieresis.sc" x="52" y="0" flags="0x0"/>
    </TTGlyph>
    <TTGlyph name="edotaccent" xMin="27" yMin="-17" xMax="524" yMax="811">
      <component glyphName="e" x="0" y="0" flags="0x0"/>
      <component glyphName="dotaccent" x="159" y="0" flags="0x0"/>
    </TTGlyph>
    <TTGlyph name="edotaccent.sc" xMin="27" yMin="0" xMax="481" yMax="841">
      <component glyphName="e.sc" x="0" y="0" flags="0x0"/>
      <component glyphName="dotaccent.sc" x="138" y="0" flags="0x0"/>
    </TTGlyph>
    <TTGlyph name="egrave" xMin="27" yMin="-17" xMax="524" yMax="835">
      <component glyphName="e" x="0" y="0" flags="0x0"/>
      <component glyphName="grave" x="123" y="0" flags="0x0"/>
    </TTGlyph>
    <TTGlyph name="egrave.sc" xMin="27" yMin="0" xMax="481" yMax="865">
      <component glyphName="e.sc" x="0" y="0" flags="0x0"/>
      <component glyphName="grave.sc" x="114" y="0" flags="0x0"/>
    </TTGlyph>
    <TTGlyph name="eight" xMin="15" yMin="-17" xMax="554" yMax="690">
      <contour>
        <pt x="533" y="303" on="0"/>
        <pt x="533" y="202" on="1"/>
        <pt x="533" y="143" on="0"/>
        <pt x="463" y="42" on="0"/>
        <pt x="333" y="-17" on="0"/>
        <pt x="247" y="-17" on="1"/>
        <pt x="174" y="-17" on="0"/>
        <pt x="70" y="30" on="0"/>
        <pt x="15" y="113" on="0"/>
        <pt x="15" y="166" on="1"/>
        <pt x="15" y="222" on="0"/>
        <pt x="86" y="318" on="0"/>
        <pt x="166" y="350" on="1"/>
        <pt x="88" y="402" on="0"/>
        <pt x="88" y="487" on="1"/>
        <pt x="88" y="541" on="0"/>
        <pt x="147" y="634" on="0"/>
        <pt x="262" y="690" on="0"/>
        <pt x="340" y="690" on="1"/>
        <pt x="435" y="690" on="0"/>
        <pt x="554" y="603" on="0"/>
        <pt x="554" y="529" on="1"/>
        <pt x="554" y="481" on="0"/>
        <pt x="491" y="395" on="0"/>
        <pt x="423" y="361" on="1"/>
      </contour>
      <contour>
        <pt x="283" y="583" on="0"/>
        <pt x="237" y="527" on="0"/>
        <pt x="237" y="492" on="1"/>
        <pt x="237" y="464" on="0"/>
        <pt x="270" y="426" on="0"/>
        <pt x="305" y="410" on="1"/>
        <pt x="324" y="403" on="1"/>
        <pt x="403" y="452" on="0"/>
        <pt x="403" y="523" on="1"/>
        <pt x="403" y="551" on="0"/>
        <pt x="367" y="583" on="0"/>
        <pt x="334" y="583" on="1"/>
      </contour>
      <contour>
        <pt x="315" y="96" on="0"/>
        <pt x="377" y="159" on="0"/>
        <pt x="377" y="206" on="1"/>
        <pt x="377" y="236" on="0"/>
        <pt x="337" y="275" on="0"/>
        <pt x="289" y="294" on="1"/>
        <pt x="259" y="305" on="1"/>
        <pt x="211" y="280" on="0"/>
        <pt x="172" y="208" on="0"/>
        <pt x="172" y="173" on="1"/>
        <pt x="172" y="137" on="0"/>
        <pt x="219" y="96" on="0"/>
        <pt x="261" y="96" on="1"/>
      </contour>
    </TTGlyph>
    <TTGlyph name="eight.dnom" xMin="-1" yMin="-12" xMax="362" yMax="431">
      <contour>
        <pt x="315" y="206" on="0"/>
        <pt x="349" y="156" on="0"/>
        <pt x="349" y="122" on="1"/>
        <pt x="349" y="88" on="0"/>
        <pt x="303" y="26" on="0"/>
        <pt x="215" y="-12" on="0"/>
        <pt x="156" y="-12" on="1"/>
        <pt x="82" y="-12" on="0"/>
        <pt x="-1" y="52" on="0"/>
        <pt x="-1" y="101" on="1"/>
        <pt x="-1" y="180" on="0"/>
        <pt x="95" y="216" on="1"/>
        <pt x="44" y="250" on="0"/>
        <pt x="44" y="304" on="1"/>
        <pt x="44" y="336" on="0"/>
        <pt x="82" y="395" on="0"/>
        <pt x="160" y="431" on="0"/>
        <pt x="215" y="431" on="1"/>
        <pt x="282" y="431" on="0"/>
        <pt x="362" y="377" on="0"/>
        <pt x="362" y="332" on="1"/>
        <pt x="362" y="302" on="0"/>
        <pt x="321" y="245" on="0"/>
        <pt x="278" y="225" on="1"/>
      </contour>
      <contour>
        <pt x="183" y="355" on="0"/>
        <pt x="156" y="331" on="0"/>
        <pt x="156" y="307" on="1"/>
        <pt x="156" y="276" on="0"/>
        <pt x="193" y="261" on="1"/>
        <pt x="205" y="257" on="1"/>
        <pt x="228" y="271" on="0"/>
        <pt x="248" y="300" on="0"/>
        <pt x="248" y="318" on="1"/>
        <pt x="248" y="335" on="0"/>
        <pt x="227" y="355" on="0"/>
        <pt x="207" y="355" on="1"/>
      </contour>
      <contour>
        <pt x="199" y="70" on="0"/>
        <pt x="234" y="101" on="0"/>
        <pt x="234" y="124" on="1"/>
        <pt x="234" y="141" on="0"/>
        <pt x="211" y="164" on="0"/>
        <pt x="186" y="174" on="1"/>
        <pt x="163" y="182" on="1"/>
        <pt x="115" y="158" on="0"/>
        <pt x="115" y="111" on="1"/>
        <pt x="115" y="93" on="0"/>
        <pt x="143" y="70" on="0"/>
        <pt x="167" y="70" on="1"/>
      </contour>
    </TTGlyph>
    <TTGlyph name="eight.numr" xMin="0" yMin="260" xMax="363" yMax="703">
      <component glyphName="eight.dnom" x="1" y="272" flags="0x0"/>
    </TTGlyph>
    <TTGlyph name="eight.osf" xMin="15" yMin="-17" xMax="554" yMax="690">
      <contour>
        <pt x="533" y="303" on="0"/>
        <pt x="533" y="202" on="1"/>
        <pt x="533" y="143" on="0"/>
        <pt x="463" y="42" on="0"/>
        <pt x="333" y="-17" on="0"/>
        <pt x="247" y="-17" on="1"/>
        <pt x="174" y="-17" on="0"/>
        <pt x="70" y="30" on="0"/>
        <pt x="15" y="113" on="0"/>
        <pt x="15" y="166" on="1"/>
        <pt x="15" y="222" on="0"/>
        <pt x="86" y="318" on="0"/>
        <pt x="166" y="350" on="1"/>
        <pt x="88" y="402" on="0"/>
        <pt x="88" y="487" on="1"/>
        <pt x="88" y="541" on="0"/>
        <pt x="148" y="634" on="0"/>
        <pt x="263" y="690" on="0"/>
        <pt x="341" y="690" on="1"/>
        <pt x="436" y="690" on="0"/>
        <pt x="554" y="603" on="0"/>
        <pt x="554" y="529" on="1"/>
        <pt x="554" y="481" on="0"/>
        <pt x="491" y="395" on="0"/>
        <pt x="423" y="361" on="1"/>
      </contour>
      <contour>
        <pt x="283" y="583" on="0"/>
        <pt x="237" y="527" on="0"/>
        <pt x="237" y="492" on="1"/>
        <pt x="237" y="463" on="0"/>
        <pt x="269" y="426" on="0"/>
        <pt x="305" y="410" on="1"/>
        <pt x="324" y="403" on="1"/>
        <pt x="403" y="452" on="0"/>
        <pt x="403" y="523" on="1"/>
        <pt x="403" y="551" on="0"/>
        <pt x="367" y="583" on="0"/>
        <pt x="334" y="583" on="1"/>
      </contour>
      <contour>
        <pt x="315" y="96" on="0"/>
        <pt x="377" y="159" on="0"/>
        <pt x="377" y="206" on="1"/>
        <pt x="377" y="236" on="0"/>
        <pt x="337" y="275" on="0"/>
        <pt x="289" y="294" on="1"/>
        <pt x="259" y="305" on="1"/>
        <pt x="211" y="280" on="0"/>
        <pt x="172" y="208" on="0"/>
        <pt x="172" y="173" on="1"/>
        <pt x="172" y="137" on="0"/>
        <pt x="219" y="96" on="0"/>
        <pt x="261" y="96" on="1"/>
      </contour>
    </TTGlyph>
    <TTGlyph name="eight.tf" xMin="15" yMin="-17" xMax="544" yMax="710">
      <contour>
        <pt x="470" y="342" on="0"/>
        <pt x="522" y="262" on="0"/>
        <pt x="522" y="208" on="1"/>
        <pt x="522" y="156" on="0"/>
        <pt x="464" y="52" on="0"/>
        <pt x="338" y="-17" on="0"/>
        <pt x="240" y="-17" on="1"/>
        <pt x="169" y="-17" on="0"/>
        <pt x="68" y="31" on="0"/>
        <pt x="15" y="114" on="0"/>
        <pt x="15" y="167" on="1"/>
        <pt x="15" y="227" on="0"/>
        <pt x="86" y="327" on="0"/>
        <pt x="166" y="360" on="1"/>
        <pt x="90" y="412" on="0"/>
        <pt x="90" y="498" on="1"/>
        <pt x="90" y="549" on="0"/>
        <pt x="142" y="646" on="0"/>
        <pt x="254" y="710" on="0"/>
        <pt x="338" y="710" on="1"/>
        <pt x="430" y="710" on="0"/>
        <pt x="544" y="625" on="0"/>
        <pt x="544" y="550" on="1"/>
        <pt x="544" y="437" on="0"/>
        <pt x="417" y="371" on="1"/>
      </contour>
      <contour>
        <pt x="284" y="604" on="0"/>
        <pt x="236" y="546" on="0"/>
        <pt x="236" y="500" on="1"/>
        <pt x="236" y="470" on="0"/>
        <pt x="271" y="433" on="0"/>
        <pt x="309" y="418" on="1"/>
        <pt x="320" y="413" on="1"/>
        <pt x="365" y="442" on="0"/>
        <pt x="396" y="505" on="0"/>
        <pt x="396" y="538" on="1"/>
        <pt x="396" y="568" on="0"/>
        <pt x="361" y="604" on="0"/>
        <pt x="330" y="604" on="1"/>
      </contour>
      <contour>
        <pt x="312" y="96" on="0"/>
        <pt x="369" y="163" on="0"/>
        <pt x="369" y="209" on="1"/>
        <pt x="369" y="244" on="0"/>
        <pt x="331" y="286" on="0"/>
        <pt x="284" y="303" on="1"/>
        <pt x="255" y="315" on="1"/>
        <pt x="209" y="289" on="0"/>
        <pt x="171" y="215" on="0"/>
        <pt x="171" y="178" on="1"/>
        <pt x="171" y="141" on="0"/>
        <pt x="217" y="96" on="0"/>
        <pt x="256" y="96" on="1"/>
      </contour>
    </TTGlyph>
    <TTGlyph name="eight.tosf" xMin="18" yMin="-17" xMax="544" yMax="690">
      <contour>
        <pt x="523" y="302" on="0"/>
        <pt x="523" y="201" on="1"/>
        <pt x="523" y="142" on="0"/>
        <pt x="454" y="42" on="0"/>
        <pt x="328" y="-17" on="0"/>
        <pt x="246" y="-17" on="1"/>
        <pt x="174" y="-17" on="0"/>
        <pt x="71" y="30" on="0"/>
        <pt x="18" y="113" on="0"/>
        <pt x="18" y="166" on="1"/>
        <pt x="18" y="222" on="0"/>
        <pt x="89" y="318" on="0"/>
        <pt x="168" y="350" on="1"/>
        <pt x="91" y="402" on="0"/>
        <pt x="91" y="487" on="1"/>
        <pt x="91" y="541" on="0"/>
        <pt x="149" y="634" on="0"/>
        <pt x="262" y="690" on="0"/>
        <pt x="340" y="690" on="1"/>
        <pt x="429" y="690" on="0"/>
        <pt x="544" y="603" on="0"/>
        <pt x="544" y="529" on="1"/>
        <pt x="544" y="425" on="0"/>
        <pt x="414" y="361" on="1"/>
      </contour>
      <contour>
        <pt x="282" y="583" on="0"/>
        <pt x="239" y="527" on="0"/>
        <pt x="239" y="492" on="1"/>
        <pt x="239" y="462" on="0"/>
        <pt x="271" y="426" on="0"/>
        <pt x="308" y="410" on="1"/>
        <pt x="325" y="403" on="1"/>
        <pt x="367" y="433" on="0"/>
        <pt x="396" y="493" on="0"/>
        <pt x="396" y="522" on="1"/>
        <pt x="396" y="550" on="0"/>
        <pt x="361" y="583" on="0"/>
        <pt x="329" y="583" on="1"/>
      </contour>
      <contour>
        <pt x="310" y="96" on="0"/>
        <pt x="369" y="159" on="0"/>
        <pt x="369" y="206" on="1"/>
        <pt x="369" y="238" on="0"/>
        <pt x="336" y="279" on="0"/>
        <pt x="292" y="294" on="1"/>
        <pt x="261" y="305" on="1"/>
        <pt x="214" y="280" on="0"/>
        <pt x="174" y="208" on="0"/>
        <pt x="174" y="173" on="1"/>
        <pt x="174" y="137" on="0"/>
        <pt x="219" y="96" on="0"/>
        <pt x="260" y="96" on="1"/>
      </contour>
    </TTGlyph>
    <TTGlyph name="eightinferior" xMin="-67" yMin="-217" xMax="296" yMax="226">
      <component glyphName="eight.dnom" x="-66" y="-205" flags="0x0"/>
    </TTGlyph>
    <TTGlyph name="eightsuperior" xMin="7" yMin="309" xMax="370" yMax="752">
      <component glyphName="eight.dnom" x="8" y="321" flags="0x0"/>
    </TTGlyph>
    <TTGlyph name="ellipsis" xMin="2" yMin="-17" xMax="668" yMax="164">
      <component glyphName="period" x="243" y="0" flags="0x0"/>
      <component glyphName="period" x="486" y="0" flags="0x0"/>
      <component glyphName="period" x="0" y="0" flags="0x0"/>
    </TTGlyph>
    <TTGlyph name="emacron" xMin="27" yMin="-17" xMax="524" yMax="765">
      <component glyphName="e" x="0" y="0" flags="0x0"/>
      <component glyphName="macron" x="100" y="0" flags="0x0"/>
    </TTGlyph>
    <TTGlyph name="emacron.sc" xMin="27" yMin="0" xMax="481" yMax="795">
      <component glyphName="e.sc" x="0" y="0" flags="0x0"/>
      <component glyphName="macron.sc" x="98" y="0" flags="0x0"/>
    </TTGlyph>
    <TTGlyph name="emdash" xMin="18" yMin="252" xMax="776" yMax="374">
      <contour>
        <pt x="776" y="374" on="1"/>
        <pt x="759" y="252" on="1"/>
        <pt x="18" y="252" on="1"/>
        <pt x="36" y="374" on="1"/>
      </contour>
    </TTGlyph>
    <TTGlyph name="emdash.case" xMin="24" yMin="297" xMax="782" yMax="419">
      <component glyphName="emdash" x="6" y="45" flags="0x0"/>
    </TTGlyph>
</ttFont>
